<svg xmlns="http://www.w3.org/2000/svg" xmlns:xlink="http://www.w3.org/1999/xlink" viewBox="0 0 929 627"><defs><style>.cls-1{fill:#d3efeb;}.cls-2{fill:none;stroke:#54afa1;stroke-miterlimit:10;}.cls-3{fill:url(#Безымянный_градиент_131);}.cls-4{fill:#107678;}</style><linearGradient id="Безымянный_градиент_131" x1="464.5" y1="461.47" x2="464.5" y2="11.83" gradientUnits="userSpaceOnUse"><stop offset="0" stop-color="#81dbc3"/><stop offset="0.43" stop-color="#74c3b6"/><stop offset="1" stop-color="#64a6a7"/></linearGradient></defs><title>wallfloor</title><g id="Слой_2" data-name="Слой 2"><g id="layer_1" data-name="layer 1"><rect class="cls-1" y="431.17" width="929" height="195.83"/><line class="cls-2" y1="461.12" x2="929" y2="461.12"/><line class="cls-2" y1="501.99" x2="929" y2="501.99"/><line class="cls-2" y1="543.3" x2="929" y2="543.3"/><line class="cls-2" y1="584.25" x2="929" y2="584.25"/><line class="cls-2" x1="669.83" y1="501.99" x2="669.83" y2="461.12"/><line class="cls-2" x1="830.46" y1="584.17" x2="830.46" y2="543.3"/><line class="cls-2" x1="424.14" y1="501.99" x2="424.14" y2="461.12"/><line class="cls-2" x1="165.62" y1="501.99" x2="165.62" y2="461.12"/><line class="cls-2" x1="245.44" y1="543.29" x2="245.44" y2="502.41"/><line class="cls-2" x1="93" y1="584.17" x2="93" y2="543.3"/><line class="cls-2" x1="532.97" y1="543.29" x2="532.97" y2="502.41"/><line class="cls-2" x1="574.5" y1="584.18" x2="574.5" y2="543.31"/><line class="cls-2" x1="317.82" y1="584.18" x2="317.82" y2="543.31"/><line class="cls-2" x1="807.98" y1="543.29" x2="807.98" y2="502.41"/><rect class="cls-3" width="929" height="421.11"/><rect class="cls-4" y="421.11" width="929" height="10.05"/></g></g></svg>