<svg xmlns="http://www.w3.org/2000/svg" xmlns:xlink="http://www.w3.org/1999/xlink" width="1920" height="1080" viewBox="0 0 1920 1080">
  <defs>
    <style>
      .a {
        fill: url(#a);
      }

      .b {
        fill: url(#b);
      }

      .c, .z {
        fill: #fff;
      }

      .d {
        fill: url(#c);
      }

      .e {
        fill: url(#d);
      }

      .f {
        fill: url(#e);
      }

      .g {
        fill: url(#f);
      }

      .h {
        fill: url(#g);
      }

      .i {
        fill: url(#h);
      }

      .j {
        fill: url(#i);
      }

      .k {
        fill: url(#j);
      }

      .l {
        fill: url(#k);
      }

      .m {
        fill: url(#l);
      }

      .n {
        fill: url(#m);
      }

      .o {
        fill: url(#n);
      }

      .p {
        fill: url(#o);
      }

      .q {
        fill: url(#p);
      }

      .r {
        fill: url(#q);
      }

      .s {
        fill: url(#r);
      }

      .t {
        fill: url(#s);
      }

      .u {
        fill: url(#t);
      }

      .v {
        fill: url(#u);
      }

      .w {
        fill: url(#v);
      }

      .x {
        fill: url(#w);
      }

      .y {
        opacity: 0.5;
      }

      .z {
        opacity: 0.8;
      }

      .aa {
        fill: url(#x);
      }

      .ab {
        fill: url(#y);
      }

      .ac {
        fill: url(#z);
      }

      .ad {
        fill: url(#aa);
      }

      .ae {
        fill: url(#ab);
      }

      .af {
        fill: url(#ac);
      }

      .ag {
        fill: url(#ad);
      }

      .ah {
        fill: url(#ae);
      }

      .ai {
        fill: url(#af);
      }

      .aj {
        fill: url(#ag);
      }

      .ak {
        fill: url(#ah);
      }

      .al {
        fill: url(#ai);
      }

      .am {
        fill: url(#aj);
      }

      .an {
        fill: url(#ak);
      }

      .ao {
        fill: url(#al);
      }

      .ap {
        fill: url(#am);
      }

      .aq {
        fill: url(#an);
      }

      .ar {
        fill: url(#ao);
      }

      .as {
        fill: url(#ap);
      }

      .at {
        fill: url(#aq);
      }

      .au {
        fill: url(#ar);
      }

      .av {
        fill: url(#as);
      }
    </style>
    <radialGradient id="a" cx="960" cy="540" r="778.85" gradientUnits="userSpaceOnUse">
      <stop offset="0" stop-color="#336"/>
      <stop offset="0.31" stop-color="#313162"/>
      <stop offset="0.65" stop-color="#2b2b54"/>
      <stop offset="1" stop-color="#22223f"/>
    </radialGradient>
    <radialGradient id="b" cx="101" cy="327" r="34" gradientUnits="userSpaceOnUse">
      <stop offset="0" stop-color="#fff" stop-opacity="0.75"/>
      <stop offset="0.31" stop-color="#b7b7c9" stop-opacity="0.49"/>
      <stop offset="0.64" stop-color="#707094" stop-opacity="0.23"/>
      <stop offset="0.88" stop-color="#444473" stop-opacity="0.06"/>
      <stop offset="1" stop-color="#336" stop-opacity="0"/>
    </radialGradient>
    <radialGradient id="c" cx="1180" cy="64" r="34" xlink:href="#b"/>
    <radialGradient id="d" cx="1127" cy="269" r="34" xlink:href="#b"/>
    <radialGradient id="e" cx="1843" cy="604" r="34" xlink:href="#b"/>
    <radialGradient id="f" cx="1641" cy="689" r="34" xlink:href="#b"/>
    <radialGradient id="g" cx="1708" cy="832" r="34" xlink:href="#b"/>
    <radialGradient id="h" cx="1860" cy="860" r="34" xlink:href="#b"/>
    <radialGradient id="i" cx="1591" cy="480" r="34" xlink:href="#b"/>
    <radialGradient id="j" cx="875" cy="913" r="34" xlink:href="#b"/>
    <radialGradient id="k" cx="763" cy="809" r="34" xlink:href="#b"/>
    <radialGradient id="l" cx="655" cy="884" r="34" xlink:href="#b"/>
    <radialGradient id="m" cx="217" cy="1006" r="34" xlink:href="#b"/>
    <radialGradient id="n" cx="90" cy="880" r="34" xlink:href="#b"/>
    <radialGradient id="o" cx="56" cy="57" r="34" xlink:href="#b"/>
    <radialGradient id="p" cx="800" cy="332" r="34" xlink:href="#b"/>
    <radialGradient id="q" cx="857" cy="446" r="34" xlink:href="#b"/>
    <radialGradient id="r" cx="584" cy="378" r="34" xlink:href="#b"/>
    <radialGradient id="s" cx="469" cy="311" r="34" xlink:href="#b"/>
    <radialGradient id="t" cx="1769" cy="108" r="34" xlink:href="#b"/>
    <radialGradient id="u" cx="1323" cy="258" r="34" xlink:href="#b"/>
    <radialGradient id="v" cx="783" cy="46" r="34" xlink:href="#b"/>
    <radialGradient id="w" cx="801" cy="728" r="25" gradientUnits="userSpaceOnUse">
      <stop offset="0" stop-color="#fff" stop-opacity="0.5"/>
      <stop offset="0.02" stop-color="#f9f9fb" stop-opacity="0.49"/>
      <stop offset="0.49" stop-color="#8f8fab" stop-opacity="0.23"/>
      <stop offset="0.83" stop-color="#4c4c79" stop-opacity="0.06"/>
      <stop offset="1" stop-color="#336" stop-opacity="0"/>
    </radialGradient>
    <radialGradient id="x" cx="1103" cy="540" r="25" xlink:href="#w"/>
    <radialGradient id="y" cx="1126" cy="601" r="25" xlink:href="#w"/>
    <radialGradient id="z" cx="975" cy="47" r="25" xlink:href="#w"/>
    <radialGradient id="aa" cx="930" cy="80" r="25" xlink:href="#w"/>
    <radialGradient id="ab" cx="1591" cy="779" r="25" xlink:href="#w"/>
    <radialGradient id="ac" cx="1529" cy="934" r="25" xlink:href="#w"/>
    <radialGradient id="ad" cx="729" cy="344" r="25" xlink:href="#w"/>
    <radialGradient id="ae" cx="490" cy="82" r="25" xlink:href="#w"/>
    <radialGradient id="af" cx="390" cy="109" r="25" xlink:href="#w"/>
    <radialGradient id="ag" cx="139" cy="543" r="25" xlink:href="#w"/>
    <radialGradient id="ah" cx="107" cy="617" r="25" xlink:href="#w"/>
    <radialGradient id="ai" cx="286" cy="759" r="25" xlink:href="#w"/>
    <radialGradient id="aj" cx="509" cy="612" r="25" xlink:href="#w"/>
    <radialGradient id="ak" cx="114" cy="991" r="25" xlink:href="#w"/>
    <radialGradient id="al" cx="88" cy="204" r="25" xlink:href="#w"/>
    <radialGradient id="am" cx="1320" cy="769" r="25" xlink:href="#w"/>
    <radialGradient id="an" cx="1257" cy="851" r="25" xlink:href="#w"/>
    <radialGradient id="ao" cx="1780" cy="554" r="25" xlink:href="#w"/>
    <radialGradient id="ap" cx="1555" cy="407" r="25" xlink:href="#w"/>
    <radialGradient id="aq" cx="1868" cy="470" r="25" xlink:href="#w"/>
    <radialGradient id="ar" cx="128" cy="69" r="25" xlink:href="#w"/>
    <radialGradient id="as" cx="550" cy="866" r="25" xlink:href="#w"/>
  </defs>
  <g>
    <rect class="a" width="1920" height="1080"/>
    <g>
      <g>
        <circle class="b" cx="101" cy="327" r="34"/>
        <g>
          <polygon class="c" points="100.82 298.11 99.81 327.23 100.82 356.34 101.83 327.23 100.82 298.11"/>
          <polygon class="c" points="118.32 327.23 100.82 326.38 83.33 327.23 100.82 328.07 118.32 327.23"/>
        </g>
      </g>
      <g>
        <circle class="d" cx="1180" cy="64" r="34"/>
        <g>
          <polygon class="c" points="1179.82 35.11 1178.81 64.22 1179.82 93.34 1180.83 64.22 1179.82 35.11"/>
          <polygon class="c" points="1197.32 64.22 1179.82 63.38 1162.33 64.22 1179.82 65.07 1197.32 64.22"/>
        </g>
      </g>
      <g>
        <circle class="e" cx="1127" cy="269" r="34"/>
        <g>
          <polygon class="c" points="1126.82 240.11 1125.81 269.23 1126.82 298.34 1127.83 269.23 1126.82 240.11"/>
          <polygon class="c" points="1144.32 269.23 1126.82 268.38 1109.33 269.23 1126.82 270.07 1144.32 269.23"/>
        </g>
      </g>
      <g>
        <circle class="f" cx="1843" cy="604" r="34"/>
        <g>
          <polygon class="c" points="1842.82 575.11 1841.81 604.23 1842.82 633.34 1843.83 604.23 1842.82 575.11"/>
          <polygon class="c" points="1860.32 604.23 1842.82 603.38 1825.33 604.23 1842.82 605.07 1860.32 604.23"/>
        </g>
      </g>
      <g>
        <circle class="g" cx="1641" cy="689" r="34"/>
        <g>
          <polygon class="c" points="1640.82 660.11 1639.81 689.23 1640.82 718.34 1641.83 689.23 1640.82 660.11"/>
          <polygon class="c" points="1658.32 689.23 1640.82 688.38 1623.33 689.23 1640.82 690.07 1658.32 689.23"/>
        </g>
      </g>
      <g>
        <circle class="h" cx="1708" cy="832" r="34"/>
        <g>
          <polygon class="c" points="1707.82 803.11 1706.81 832.23 1707.82 861.34 1708.83 832.23 1707.82 803.11"/>
          <polygon class="c" points="1725.32 832.23 1707.82 831.38 1690.33 832.23 1707.82 833.07 1725.32 832.23"/>
        </g>
      </g>
      <g>
        <circle class="i" cx="1860" cy="860" r="34"/>
        <g>
          <polygon class="c" points="1859.82 831.11 1858.81 860.23 1859.82 889.34 1860.83 860.23 1859.82 831.11"/>
          <polygon class="c" points="1877.32 860.23 1859.82 859.38 1842.33 860.23 1859.82 861.07 1877.32 860.23"/>
        </g>
      </g>
      <g>
        <circle class="j" cx="1591" cy="480" r="34"/>
        <g>
          <polygon class="c" points="1590.82 451.11 1589.81 480.23 1590.82 509.34 1591.83 480.23 1590.82 451.11"/>
          <polygon class="c" points="1608.32 480.23 1590.82 479.38 1573.33 480.23 1590.82 481.07 1608.32 480.23"/>
        </g>
      </g>
      <g>
        <circle class="k" cx="875" cy="913" r="34"/>
        <g>
          <polygon class="c" points="874.82 884.11 873.81 913.23 874.82 942.34 875.83 913.23 874.82 884.11"/>
          <polygon class="c" points="892.32 913.23 874.82 912.38 857.33 913.23 874.82 914.07 892.32 913.23"/>
        </g>
      </g>
      <g>
        <circle class="l" cx="763" cy="809" r="34"/>
        <g>
          <polygon class="c" points="762.82 780.11 761.81 809.23 762.82 838.34 763.83 809.23 762.82 780.11"/>
          <polygon class="c" points="780.32 809.23 762.82 808.38 745.33 809.23 762.82 810.07 780.32 809.23"/>
        </g>
      </g>
      <g>
        <circle class="m" cx="655" cy="884" r="34"/>
        <g>
          <polygon class="c" points="654.82 855.11 653.81 884.23 654.82 913.34 655.83 884.23 654.82 855.11"/>
          <polygon class="c" points="672.32 884.23 654.82 883.38 637.33 884.23 654.82 885.07 672.32 884.23"/>
        </g>
      </g>
      <g>
        <circle class="n" cx="217" cy="1006" r="34"/>
        <g>
          <polygon class="c" points="216.82 977.11 215.81 1006.23 216.82 1035.34 217.83 1006.23 216.82 977.11"/>
          <polygon class="c" points="234.32 1006.23 216.82 1005.38 199.33 1006.23 216.82 1007.07 234.32 1006.23"/>
        </g>
      </g>
      <g>
        <circle class="o" cx="90" cy="880" r="34"/>
        <g>
          <polygon class="c" points="89.82 851.11 88.81 880.23 89.82 909.34 90.83 880.23 89.82 851.11"/>
          <polygon class="c" points="107.32 880.23 89.82 879.38 72.33 880.23 89.82 881.07 107.32 880.23"/>
        </g>
      </g>
      <g>
        <circle class="p" cx="56" cy="57" r="34"/>
        <g>
          <polygon class="c" points="55.82 28.11 54.81 57.23 55.82 86.34 56.83 57.23 55.82 28.11"/>
          <polygon class="c" points="73.32 57.23 55.82 56.38 38.33 57.23 55.82 58.07 73.32 57.23"/>
        </g>
      </g>
      <g>
        <circle class="q" cx="800" cy="332" r="34"/>
        <g>
          <polygon class="c" points="799.82 303.11 798.81 332.23 799.82 361.34 800.83 332.23 799.82 303.11"/>
          <polygon class="c" points="817.32 332.23 799.82 331.38 782.33 332.23 799.82 333.07 817.32 332.23"/>
        </g>
      </g>
      <g>
        <circle class="r" cx="857" cy="446" r="34"/>
        <g>
          <polygon class="c" points="856.82 417.11 855.81 446.23 856.82 475.34 857.83 446.23 856.82 417.11"/>
          <polygon class="c" points="874.32 446.23 856.82 445.38 839.33 446.23 856.82 447.07 874.32 446.23"/>
        </g>
      </g>
      <g>
        <circle class="s" cx="584" cy="378" r="34"/>
        <g>
          <polygon class="c" points="583.82 349.11 582.81 378.23 583.82 407.34 584.83 378.23 583.82 349.11"/>
          <polygon class="c" points="601.32 378.23 583.82 377.38 566.33 378.23 583.82 379.07 601.32 378.23"/>
        </g>
      </g>
      <g>
        <circle class="t" cx="469" cy="311" r="34"/>
        <g>
          <polygon class="c" points="468.82 282.11 467.81 311.23 468.82 340.34 469.83 311.23 468.82 282.11"/>
          <polygon class="c" points="486.32 311.23 468.82 310.38 451.33 311.23 468.82 312.07 486.32 311.23"/>
        </g>
      </g>
      <g>
        <circle class="u" cx="1769" cy="108" r="34"/>
        <g>
          <polygon class="c" points="1768.82 79.11 1767.81 108.22 1768.82 137.34 1769.83 108.22 1768.82 79.11"/>
          <polygon class="c" points="1786.32 108.22 1768.82 107.38 1751.33 108.22 1768.82 109.07 1786.32 108.22"/>
        </g>
      </g>
      <g>
        <circle class="v" cx="1323" cy="258" r="34"/>
        <g>
          <polygon class="c" points="1322.82 229.11 1321.81 258.23 1322.82 287.34 1323.83 258.23 1322.82 229.11"/>
          <polygon class="c" points="1340.32 258.23 1322.82 257.38 1305.33 258.23 1322.82 259.07 1340.32 258.23"/>
        </g>
      </g>
      <g>
        <circle class="w" cx="783" cy="46" r="34"/>
        <g>
          <polygon class="c" points="782.82 17.11 781.81 46.23 782.82 75.34 783.83 46.23 782.82 17.11"/>
          <polygon class="c" points="800.32 46.23 782.82 45.38 765.33 46.23 782.82 47.07 800.32 46.23"/>
        </g>
      </g>
      <g>
        <circle class="x" cx="801" cy="728" r="25"/>
        <g class="y">
          <polygon class="z" points="786.92 713.35 800.46 727.87 814.97 741.41 801.43 726.89 786.92 713.35"/>
          <polygon class="z" points="786.92 741.41 801.43 727.87 814.97 713.35 800.46 726.89 786.92 741.41"/>
        </g>
      </g>
      <g>
        <circle class="aa" cx="1103" cy="540" r="25"/>
        <g class="y">
          <polygon class="z" points="1088.92 525.35 1102.46 539.87 1116.97 553.41 1103.43 538.89 1088.92 525.35"/>
          <polygon class="z" points="1088.92 553.41 1103.43 539.87 1116.97 525.35 1102.46 538.89 1088.92 553.41"/>
        </g>
      </g>
      <g>
        <circle class="ab" cx="1126" cy="601" r="25"/>
        <g class="y">
          <polygon class="z" points="1111.92 586.35 1125.46 600.87 1139.97 614.41 1126.43 599.89 1111.92 586.35"/>
          <polygon class="z" points="1111.92 614.41 1126.43 600.87 1139.97 586.35 1125.46 599.89 1111.92 614.41"/>
        </g>
      </g>
      <g>
        <circle class="ac" cx="975" cy="47" r="25"/>
        <g class="y">
          <polygon class="z" points="960.92 32.35 974.46 46.87 988.97 60.41 975.43 45.89 960.92 32.35"/>
          <polygon class="z" points="960.92 60.41 975.43 46.87 988.97 32.35 974.46 45.89 960.92 60.41"/>
        </g>
      </g>
      <g>
        <circle class="ad" cx="930" cy="80" r="25"/>
        <g class="y">
          <polygon class="z" points="915.92 65.35 929.46 79.87 943.97 93.41 930.43 78.89 915.92 65.35"/>
          <polygon class="z" points="915.92 93.41 930.43 79.87 943.97 65.35 929.46 78.89 915.92 93.41"/>
        </g>
      </g>
      <g>
        <circle class="ae" cx="1591" cy="779" r="25"/>
        <g class="y">
          <polygon class="z" points="1576.92 764.35 1590.46 778.87 1604.97 792.41 1591.43 777.89 1576.92 764.35"/>
          <polygon class="z" points="1576.92 792.41 1591.43 778.87 1604.97 764.35 1590.46 777.89 1576.92 792.41"/>
        </g>
      </g>
      <g>
        <circle class="af" cx="1529" cy="934" r="25"/>
        <g class="y">
          <polygon class="z" points="1514.92 919.35 1528.46 933.87 1542.97 947.41 1529.43 932.89 1514.92 919.35"/>
          <polygon class="z" points="1514.92 947.41 1529.43 933.87 1542.97 919.35 1528.46 932.89 1514.92 947.41"/>
        </g>
      </g>
      <g>
        <circle class="ag" cx="729" cy="344" r="25"/>
        <g class="y">
          <polygon class="z" points="714.92 329.35 728.46 343.87 742.97 357.41 729.43 342.89 714.92 329.35"/>
          <polygon class="z" points="714.92 357.41 729.43 343.87 742.97 329.35 728.46 342.89 714.92 357.41"/>
        </g>
      </g>
      <g>
        <circle class="ah" cx="490" cy="82" r="25"/>
        <g class="y">
          <polygon class="z" points="475.92 67.35 489.46 81.87 503.97 95.41 490.43 80.89 475.92 67.35"/>
          <polygon class="z" points="475.92 95.41 490.43 81.87 503.97 67.35 489.46 80.89 475.92 95.41"/>
        </g>
      </g>
      <g>
        <circle class="ai" cx="390" cy="109" r="25"/>
        <g class="y">
          <polygon class="z" points="375.92 94.35 389.46 108.87 403.97 122.41 390.43 107.89 375.92 94.35"/>
          <polygon class="z" points="375.92 122.41 390.43 108.87 403.97 94.35 389.46 107.89 375.92 122.41"/>
        </g>
      </g>
      <g>
        <circle class="aj" cx="139" cy="543" r="25"/>
        <g class="y">
          <polygon class="z" points="124.92 528.35 138.46 542.87 152.97 556.41 139.43 541.89 124.92 528.35"/>
          <polygon class="z" points="124.92 556.41 139.43 542.87 152.97 528.35 138.46 541.89 124.92 556.41"/>
        </g>
      </g>
      <g>
        <circle class="ak" cx="107" cy="617" r="25"/>
        <g class="y">
          <polygon class="z" points="92.92 602.35 106.46 616.87 120.97 630.41 107.43 615.89 92.92 602.35"/>
          <polygon class="z" points="92.92 630.41 107.43 616.87 120.97 602.35 106.46 615.89 92.92 630.41"/>
        </g>
      </g>
      <g>
        <circle class="al" cx="286" cy="759" r="25"/>
        <g class="y">
          <polygon class="z" points="271.92 744.35 285.46 758.87 299.97 772.41 286.43 757.89 271.92 744.35"/>
          <polygon class="z" points="271.92 772.41 286.43 758.87 299.97 744.35 285.46 757.89 271.92 772.41"/>
        </g>
      </g>
      <g>
        <circle class="am" cx="509" cy="612" r="25"/>
        <g class="y">
          <polygon class="z" points="494.92 597.35 508.46 611.87 522.97 625.41 509.43 610.89 494.92 597.35"/>
          <polygon class="z" points="494.92 625.41 509.43 611.87 522.97 597.35 508.46 610.89 494.92 625.41"/>
        </g>
      </g>
      <g>
        <circle class="an" cx="114" cy="991" r="25"/>
        <g class="y">
          <polygon class="z" points="99.92 976.35 113.46 990.87 127.97 1004.41 114.43 989.89 99.92 976.35"/>
          <polygon class="z" points="99.92 1004.41 114.43 990.87 127.97 976.35 113.46 989.89 99.92 1004.41"/>
        </g>
      </g>
      <g>
        <circle class="ao" cx="88" cy="204" r="25"/>
        <g class="y">
          <polygon class="z" points="73.92 189.35 87.46 203.87 101.97 217.41 88.43 202.89 73.92 189.35"/>
          <polygon class="z" points="73.92 217.41 88.43 203.87 101.97 189.35 87.46 202.89 73.92 217.41"/>
        </g>
      </g>
      <g>
        <circle class="ap" cx="1320" cy="769" r="25"/>
        <g class="y">
          <polygon class="z" points="1305.92 754.35 1319.46 768.87 1333.97 782.41 1320.43 767.89 1305.92 754.35"/>
          <polygon class="z" points="1305.92 782.41 1320.43 768.87 1333.97 754.35 1319.46 767.89 1305.92 782.41"/>
        </g>
      </g>
      <g>
        <circle class="aq" cx="1257" cy="851" r="25"/>
        <g class="y">
          <polygon class="z" points="1242.92 836.35 1256.46 850.87 1270.97 864.41 1257.43 849.89 1242.92 836.35"/>
          <polygon class="z" points="1242.92 864.41 1257.43 850.87 1270.97 836.35 1256.46 849.89 1242.92 864.41"/>
        </g>
      </g>
      <g>
        <circle class="ar" cx="1780" cy="554" r="25"/>
        <g class="y">
          <polygon class="z" points="1765.92 539.35 1779.46 553.87 1793.97 567.41 1780.43 552.89 1765.92 539.35"/>
          <polygon class="z" points="1765.92 567.41 1780.43 553.87 1793.97 539.35 1779.46 552.89 1765.92 567.41"/>
        </g>
      </g>
      <g>
        <circle class="as" cx="1555" cy="407" r="25"/>
        <g class="y">
          <polygon class="z" points="1540.92 392.35 1554.46 406.87 1568.97 420.41 1555.43 405.89 1540.92 392.35"/>
          <polygon class="z" points="1540.92 420.41 1555.43 406.87 1568.97 392.35 1554.46 405.89 1540.92 420.41"/>
        </g>
      </g>
      <g>
        <circle class="at" cx="1868" cy="470" r="25"/>
        <g class="y">
          <polygon class="z" points="1853.92 455.35 1867.46 469.87 1881.97 483.41 1868.43 468.89 1853.92 455.35"/>
          <polygon class="z" points="1853.92 483.41 1868.43 469.87 1881.97 455.35 1867.46 468.89 1853.92 483.41"/>
        </g>
      </g>
      <g>
        <circle class="au" cx="128" cy="69" r="25"/>
        <g class="y">
          <polygon class="z" points="113.92 54.35 127.46 68.87 141.97 82.41 128.43 67.89 113.92 54.35"/>
          <polygon class="z" points="113.92 82.41 128.43 68.87 141.97 54.35 127.46 67.89 113.92 82.41"/>
        </g>
      </g>
      <g>
        <circle class="av" cx="550" cy="866" r="25"/>
        <g class="y">
          <polygon class="z" points="535.92 851.35 549.46 865.87 563.97 879.41 550.43 864.89 535.92 851.35"/>
          <polygon class="z" points="535.92 879.41 550.43 865.87 563.97 851.35 549.46 864.89 535.92 879.41"/>
        </g>
      </g>
    </g>
  </g>
</svg>
