<svg xmlns="http://www.w3.org/2000/svg" xmlns:xlink="http://www.w3.org/1999/xlink" viewBox="0 0 1920.38 1080.39"><defs><style>.cls-1{fill:url(#Безымянный_градиент_86);}.cls-16,.cls-2,.cls-3,.cls-4,.cls-7{fill:none;}.cls-2{stroke:#534741;}.cls-16,.cls-2,.cls-3,.cls-4{stroke-miterlimit:10;}.cls-2,.cls-4{stroke-width:3px;}.cls-3{stroke:#1e1917;}.cls-4{stroke:#736357;}.cls-5{fill:url(#Безымянный_градиент_112);}.cls-6{fill:url(#Безымянный_градиент_43);}.cls-8{fill:#fff;}.cls-9{fill:#e4e4e4;}.cls-10{fill:#cacaca;}.cls-11{fill:#b1b1b1;}.cls-12{fill:#f0f0f0;}.cls-13{fill:#534741;}.cls-14{fill:#736357;}.cls-15{fill:#c5b097;}.cls-16{stroke:gray;}.cls-17{fill:#978475;}.cls-18{fill:#666;}</style><linearGradient id="Безымянный_градиент_86" x1="-220.55" y1="930" x2="2069.41" y2="930" gradientUnits="userSpaceOnUse"><stop offset="0" stop-color="#42210b"/><stop offset="0.03" stop-color="#573315"/><stop offset="0.07" stop-color="#6d4520"/><stop offset="0.09" stop-color="#754c24"/><stop offset="0.14" stop-color="#835a32"/><stop offset="0.18" stop-color="#8a6239"/><stop offset="0.23" stop-color="#90683f"/><stop offset="0.29" stop-color="#a27a50"/><stop offset="0.29" stop-color="#a47c52"/><stop offset="0.31" stop-color="#aa8257"/><stop offset="0.38" stop-color="#bd9467"/><stop offset="0.43" stop-color="#c49a6d"/><stop offset="0.49" stop-color="#b98f64"/><stop offset="0.62" stop-color="#a47c52"/><stop offset="0.69" stop-color="#997147"/><stop offset="0.75" stop-color="#8a6239"/><stop offset="0.87" stop-color="#754c24"/><stop offset="0.9" stop-color="#67401d"/><stop offset="1" stop-color="#42210b"/></linearGradient><linearGradient id="Безымянный_градиент_112" x1="-257.4" y1="390" x2="2296.99" y2="390" gradientUnits="userSpaceOnUse"><stop offset="0.02" stop-color="#534741"/><stop offset="0.13" stop-color="#978475"/><stop offset="0.17" stop-color="#a18e7d"/><stop offset="0.23" stop-color="#bda891"/><stop offset="0.25" stop-color="#c5b097"/><stop offset="0.34" stop-color="#e0d1c1"/><stop offset="0.35" stop-color="#decfbe"/><stop offset="0.48" stop-color="#c5b097"/><stop offset="0.52" stop-color="#b19d88"/><stop offset="0.56" stop-color="#9e8b7a"/><stop offset="0.59" stop-color="#978475"/><stop offset="0.86" stop-color="#423833"/><stop offset="0.91" stop-color="#302825"/></linearGradient><linearGradient id="Безымянный_градиент_43" x1="-422.12" y1="390" x2="2300.47" y2="390" gradientUnits="userSpaceOnUse"><stop offset="0" stop-color="#332b27"/><stop offset="0.17" stop-color="#50443e"/><stop offset="0.18" stop-color="#534741"/><stop offset="0.26" stop-color="#68594f"/><stop offset="0.32" stop-color="#736357"/><stop offset="0.42" stop-color="#978475"/><stop offset="0.49" stop-color="#736357"/><stop offset="0.56" stop-color="#61534b"/><stop offset="0.63" stop-color="#534741"/><stop offset="0.65" stop-color="#4d413c"/><stop offset="0.74" stop-color="#3a312c"/><stop offset="0.8" stop-color="#332b27"/><stop offset="0.96" stop-color="#0f0d0d"/></linearGradient></defs><g id="Слой_2" data-name="Слой 2"><g id="Слой_1-2" data-name="Слой 1"><g id="BG"><g id="Floor"><rect id="Линейный" class="cls-1" x="0.38" y="780" width="1920" height="300"/><line class="cls-2" x1="960.56" y1="1034.83" x2="1260.68" y2="1034.13"/><line class="cls-2" x1="960.56" y1="871.48" x2="1186.79" y2="871.48"/><line class="cls-2" x1="1227.59" y1="961.29" x2="1456.72" y2="962.61"/><line class="cls-3" x1="1412.91" y1="910.56" x2="1693.53" y2="912.65"/><line class="cls-3" x1="1495.21" y1="1008.36" x2="1821.84" y2="1007.16"/><line class="cls-3" x1="1761.36" y1="962.61" x2="1919.03" y2="961.96"/><line class="cls-3" x1="1635.12" y1="869.63" x2="1854.28" y2="871.48"/><line class="cls-3" x1="1797.24" y1="839.56" x2="1919.73" y2="841.98"/><line class="cls-2" x1="1161.63" y1="816.1" x2="1333.96" y2="816.73"/><line class="cls-3" x1="1363.2" y1="851.48" x2="1606.16" y2="848.3"/><line class="cls-4" x1="162.47" y1="960.06" x2="515.93" y2="961.95"/><line class="cls-4" x1="282.7" y1="871.48" x2="584.09" y2="871.48"/><line class="cls-2" x1="376.73" y1="802.2" x2="637.81" y2="800.17"/><line class="cls-4" x1="464.58" y1="1030.12" x2="776.68" y2="1025.97"/><line class="cls-4" x1="554.6" y1="910.62" x2="812.49" y2="911.61"/><line class="cls-2" x1="832.05" y1="828.65" x2="615.3" y2="830.05"/><line class="cls-2" x1="233.44" y1="907.77" x2="14" y2="909.99"/><line class="cls-2" x1="339.87" y1="829.35" x2="156.85" y2="829.35"/><line class="cls-3" x1="83.41" y1="870.55" x2="1.48" y2="870.55"/><line class="cls-3" x1="194.53" y1="796.59" x2="1.48" y2="796.59"/><line class="cls-4" x1="794.46" y1="962.61" x2="960.56" y2="961.95"/><line class="cls-2" x1="828.65" y1="840.77" x2="957.56" y2="840.77"/><line class="cls-4" x1="761.67" y1="1079.48" x2="845.23" y2="779.77"/><line class="cls-2" x1="960.21" y1="1079.48" x2="960.56" y2="779.77"/><line class="cls-2" x1="1280.15" y1="1076.99" x2="1146.14" y2="784.64"/><line class="cls-4" x1="427.39" y1="1079.48" x2="660.37" y2="770.22"/><line class="cls-2" x1="1.16" y1="1078.91" x2="410.85" y2="777.06"/><line class="cls-2" x1="0.74" y1="917.53" x2="244.09" y2="780.22"/><line class="cls-2" x1="1552.96" y1="1076.99" x2="1310.71" y2="779.77"/><line class="cls-3" x1="1918.48" y1="1078.81" x2="1507.35" y2="772.64"/><line class="cls-3" x1="1919.16" y1="907.59" x2="1688.32" y2="778.78"/></g><g id="Wall"><rect id="Линейный-2" data-name="Линейный" class="cls-5" x="0.38" width="1919.65" height="780"/><path class="cls-6" d="M.38,0V780h1920V0ZM1618.82,584.09a3.57,3.57,0,0,1-3.57,3.57h-117a3.56,3.56,0,0,1-3.56-3.57V566.37a3.56,3.56,0,0,1,3.56-3.57h117a3.57,3.57,0,0,1,3.57,3.57Zm48.46,13.67a7.34,7.34,0,0,1,7.34,7.33V656.9a7.34,7.34,0,0,1-7.34,7.34H1502a7.34,7.34,0,0,1-7.33-7.34V605.09a7.33,7.33,0,0,1,7.33-7.33Zm-270.38-47a7.23,7.23,0,0,1-7.23-7.23v-17a7.23,7.23,0,0,1,7.23-7.23h280.26a7.23,7.23,0,0,1,7.22,7.23v17a7.23,7.23,0,0,1-7.22,7.23Zm85.22,15.86v92.74a5.57,5.57,0,0,1-5.56,5.57h-79.3a5.57,5.57,0,0,1-5.57-5.57V566.62a5.57,5.57,0,0,1,5.57-5.57h79.3A5.56,5.56,0,0,1,1482.12,566.62Zm-269.34,48.26a5.68,5.68,0,0,1-5.68-5.68V584.9a5.68,5.68,0,0,1,5.68-5.68h57a5.68,5.68,0,0,1,5.68,5.68v24.3a5.68,5.68,0,0,1-5.68,5.68Zm24.69,15v30.16c0,2.3-2.58,4.17-5.77,4.17h-18.82c-3.19,0-5.78-1.87-5.78-4.17V629.91c0-2.3,2.59-4.17,5.78-4.17h18.82C1234.89,625.74,1237.47,627.61,1237.47,629.91Zm-30.37-71.84V461.26A10.29,10.29,0,0,1,1217.39,451h85.46a10.28,10.28,0,0,1,10.29,10.29v96.81a10.29,10.29,0,0,1-10.29,10.29h-85.46A10.29,10.29,0,0,1,1207.1,558.07Zm42.4,76a8.31,8.31,0,0,1,8.3-8.3h113.8a8.31,8.31,0,0,1,8.3,8.3v21.9a8.31,8.31,0,0,1-8.3,8.3H1257.8a8.31,8.31,0,0,1-8.3-8.3Zm123.27-19.16H1294a7.13,7.13,0,0,1-7.13-7.13v-21.4a7.13,7.13,0,0,1,7.13-7.13h78.74a7.13,7.13,0,0,1,7.13,7.13v21.4A7.13,7.13,0,0,1,1372.77,614.88Zm-.4-46.52h-42.56a7.53,7.53,0,0,1-7.53-7.53V458.37a7.53,7.53,0,0,1,7.53-7.53h42.56a7.53,7.53,0,0,1,7.53,7.53V560.83A7.53,7.53,0,0,1,1372.37,568.36Zm-1.11-125.89H1254a8.63,8.63,0,0,1-8.63-8.64V401.64A8.63,8.63,0,0,1,1254,393h117.28a8.64,8.64,0,0,1,8.64,8.64v32.19A8.64,8.64,0,0,1,1371.26,442.47ZM1252,383.35a6.64,6.64,0,0,1-6.64-6.64V350.17a6.64,6.64,0,0,1,6.64-6.64h188a6.64,6.64,0,0,1,6.64,6.64v26.54a6.64,6.64,0,0,1-6.64,6.64Zm142-192.88a5.87,5.87,0,0,1,5.86,5.86v18.14a5.86,5.86,0,0,1-5.86,5.86H1237.13a5.86,5.86,0,0,1-5.86-5.86V196.33a5.86,5.86,0,0,1,5.86-5.86ZM1286.9,174.24V65.62a5.32,5.32,0,0,1,5.32-5.32H1317a5.32,5.32,0,0,1,5.32,5.32V174.24a5.32,5.32,0,0,1-5.32,5.31h-24.74A5.32,5.32,0,0,1,1286.9,174.24ZM1511.83,335.5a5,5,0,0,1-5-5V290a5,5,0,0,1,5-5h83.89a5,5,0,0,1,5,5v40.52a5,5,0,0,1-5,5Zm56.22,86.95h110.68a4.39,4.39,0,0,1,4.38,4.39v15.5a4.39,4.39,0,0,1-4.38,4.39H1568.05a4.39,4.39,0,0,1-4.38-4.39v-15.5A4.39,4.39,0,0,1,1568.05,422.45ZM1488.5,233.08a6.15,6.15,0,0,1,6.16,6.15v90.65a6.15,6.15,0,0,1-6.16,6.15H1351.7a6.15,6.15,0,0,1-6.16-6.15V239.23a6.15,6.15,0,0,1,6.16-6.15Zm-76.14-19V145a6.57,6.57,0,0,1,6.58-6.58h69.14a6.58,6.58,0,0,1,6.58,6.58v69.15a6.59,6.59,0,0,1-6.58,6.58h-69.14A6.58,6.58,0,0,1,1412.36,214.13Zm43.35,140.23a6.94,6.94,0,0,1,6.93-6.94h84.24a6.94,6.94,0,0,1,6.93,6.94V438.6a6.93,6.93,0,0,1-6.93,6.94h-84.24a6.93,6.93,0,0,1-6.93-6.94Zm57.76-78.68a6.68,6.68,0,0,1-6.68-6.68V239.75a6.68,6.68,0,0,1,6.68-6.67h131.34a6.68,6.68,0,0,1,6.68,6.67V269a6.68,6.68,0,0,1-6.68,6.68ZM1613.54,291a6.1,6.1,0,0,1,6.1-6.1H1777.3a6.1,6.1,0,0,1,6.1,6.1v38.92a6.1,6.1,0,0,1-6.1,6.1H1619.64a6.1,6.1,0,0,1-6.1-6.1Zm38-78.83a8.15,8.15,0,0,1-8.15,8.15h-128.4a8.15,8.15,0,0,1-8.15-8.15V149.36a8.15,8.15,0,0,1,8.15-8.14h128.4a8.15,8.15,0,0,1,8.15,8.14Zm-108.93-90.06a9.31,9.31,0,0,1-9.3,9.3H1342.7a9.3,9.3,0,0,1-9.3-9.3V69.6a9.3,9.3,0,0,1,9.3-9.3h190.56a9.31,9.31,0,0,1,9.3,9.3ZM1338.14,138.4h57a4.74,4.74,0,0,1,4.74,4.74V173a4.74,4.74,0,0,1-4.74,4.73h-57a4.74,4.74,0,0,1-4.74-4.73V143.14A4.74,4.74,0,0,1,1338.14,138.4Zm-99.56,94.68h87.5a7.31,7.31,0,0,1,7.32,7.31v28a7.31,7.31,0,0,1-7.32,7.31h-87.5a7.31,7.31,0,0,1-7.31-7.31v-28A7.31,7.31,0,0,1,1238.58,233.08Zm48.32,57a5,5,0,0,1,5-5h36.56a5,5,0,0,1,5,5v40.44a5,5,0,0,1-5,5h-36.56a5,5,0,0,1-5-5Zm159,113.69v93.13a8.91,8.91,0,0,1-8.91,8.91h-38.44a8.91,8.91,0,0,1-8.91-8.91V403.78a8.91,8.91,0,0,1,8.91-8.91H1437A8.91,8.91,0,0,1,1445.93,403.78Zm229.78,102H1464.38a8.68,8.68,0,0,1-8.67-8.68V465.61a8.67,8.67,0,0,1,8.67-8.68h211.33a8.67,8.67,0,0,1,8.67,8.68v31.53A8.68,8.68,0,0,1,1675.71,505.82Zm-102.15-94.25a8.24,8.24,0,0,1-8.24-8.24V351.77a8.24,8.24,0,0,1,8.24-8.24h201.6a8.24,8.24,0,0,1,8.24,8.24v51.56a8.24,8.24,0,0,1-8.24,8.24ZM1693,430a7.5,7.5,0,0,1,7.5-7.5h150.46a7.5,7.5,0,0,1,7.5,7.5V543.26a7.5,7.5,0,0,1-7.5,7.5H1700.47a7.5,7.5,0,0,1-7.5-7.5Zm158.36-18.38h-47.55a7.1,7.1,0,0,1-7.1-7.1V368.65a7.1,7.1,0,0,1,7.1-7.09h47.55a7.1,7.1,0,0,1,7.1,7.09v35.82A7.1,7.1,0,0,1,1851.33,411.57ZM1677.44,275.68a10.59,10.59,0,0,1-10.59-10.58v-113a10.59,10.59,0,0,1,10.59-10.58h162.45a10.59,10.59,0,0,1,10.59,10.58v113a10.59,10.59,0,0,1-10.59,10.58ZM1700.27,8.87a7,7,0,0,1,7-7h52.3a6.86,6.86,0,0,1,2.06.31c32.41,10,58.72,25.31,78.87,44.42a2.08,2.08,0,0,1-1.44,3.59H1707.22a7,7,0,0,1-7-7Zm-135.33,1.2a8.15,8.15,0,0,1,8.15-8.16h111.73a8.15,8.15,0,0,1,8.15,8.16v32a8.15,8.15,0,0,1-8.15,8.16H1573.09a8.15,8.15,0,0,1-8.15-8.16Zm-8.72,58.86a8.63,8.63,0,0,1,8.63-8.63h277a8.63,8.63,0,0,1,8.63,8.63v53.86a8.64,8.64,0,0,1-8.63,8.63h-277a8.63,8.63,0,0,1-8.63-8.63ZM1436.91,9.81a7.9,7.9,0,0,1,7.9-7.9h99.69a7.9,7.9,0,0,1,7.9,7.9V42.33a7.9,7.9,0,0,1-7.9,7.9h-99.69a7.9,7.9,0,0,1-7.9-7.9ZM1178.65,7.88a6,6,0,0,1,6-6h229.51a6,6,0,0,1,6,6V44.26a6,6,0,0,1-6,6H1184.62a6,6,0,0,1-6-6Zm0,64a11.62,11.62,0,0,1,11.62-11.62h73.53a11.62,11.62,0,0,1,11.62,11.62v98a11.62,11.62,0,0,1-11.62,11.62h-73.53a11.62,11.62,0,0,1-11.62-11.62ZM948.15,7.07a5.16,5.16,0,0,1,5.16-5.16h207.91a5.16,5.16,0,0,1,5.16,5.16V93.38a5.16,5.16,0,0,1-5.16,5.17H953.31a5.16,5.16,0,0,1-5.16-5.17Zm-150,1.74A6.9,6.9,0,0,1,805,1.91h126.7a6.9,6.9,0,0,1,6.9,6.9V30.09a6.9,6.9,0,0,1-6.9,6.91H805a6.91,6.91,0,0,1-6.91-6.91ZM938.62,51.45V92.6a5.94,5.94,0,0,1-5.94,6H870.42a6,6,0,0,1-5.95-6V51.45a6,6,0,0,1,5.95-6h62.26A5.94,5.94,0,0,1,938.62,51.45Zm-110,451.21a8.58,8.58,0,0,1,8.58,8.58v41.28a10,10,0,0,1-10,10H675c-3.43,0-6.21-2.15-6.21-4.81V507.47c0-2.66,2.78-4.81,6.21-4.81Zm-19.36-14.08V456a5.14,5.14,0,0,1,5.14-5.14H832a5.15,5.15,0,0,1,5.15,5.14v32.6a5.15,5.15,0,0,1-5.15,5.14H814.38A5.14,5.14,0,0,1,809.24,488.58ZM631.16,632.79a5.19,5.19,0,0,1,5.2,5.19v28.31a5.19,5.19,0,0,1-5.2,5.19H499.4a5.19,5.19,0,0,1-5.19-5.19V638a5.19,5.19,0,0,1,5.19-5.19Zm-102.94-571H558.1A1.21,1.21,0,0,1,559.3,63V85.83a1.2,1.2,0,0,1-2,.93c-8-6.7-20.91-16.61-29.79-22.8A1.2,1.2,0,0,1,528.22,61.77Zm82.32,93.7a1.26,1.26,0,0,1-.19-.65v-1.65a1.21,1.21,0,0,1,1.21-1.21h57.78a5.76,5.76,0,0,1,5.76,5.76v48.91a4.48,4.48,0,0,1-4.48,4.47H645.71a8.88,8.88,0,0,1-8.12-5.31A371.62,371.62,0,0,0,610.54,155.47Zm129.27,64.86a4.81,4.81,0,0,1,4.81,4.81v45.73a4.81,4.81,0,0,1-4.81,4.81H666.89a4.8,4.8,0,0,1-4.69-3.77,332.83,332.83,0,0,0-13.46-45.09,4.81,4.81,0,0,1,4.5-6.49Zm-49.24-13.65v-50.3A4.42,4.42,0,0,1,695,152H792.5a4.42,4.42,0,0,1,4.42,4.42v50.3a4.42,4.42,0,0,1-4.42,4.42H695A4.42,4.42,0,0,1,690.57,206.68ZM665.51,372.36V325.41a235.79,235.79,0,0,0-3.3-38.17,3.42,3.42,0,0,1,3.37-4H692a3.42,3.42,0,0,1,3.42,3.42v85.68a3.42,3.42,0,0,1-3.42,3.41H668.93A3.42,3.42,0,0,1,665.51,372.36Zm.77,81a2.63,2.63,0,0,1,2.71-2.55h24.5a2.63,2.63,0,0,1,2.71,2.55v37.78a2.63,2.63,0,0,1-2.71,2.55H669a2.63,2.63,0,0,1-2.71-2.55Zm-20.95,184a5.8,5.8,0,0,1,5.7-5.89h11.1a5.8,5.8,0,0,0,5.69-5.89v-48.7a5.8,5.8,0,0,1,5.7-5.89h66.31a5.8,5.8,0,0,1,5.7,5.89v88.71a5.79,5.79,0,0,1-5.7,5.89H651a5.79,5.79,0,0,1-5.7-5.89ZM798.11,486.41a7.31,7.31,0,0,1-7.31,7.31h-75a7.31,7.31,0,0,1-7.32-7.31V458.16a7.32,7.32,0,0,1,7.32-7.32h75a7.31,7.31,0,0,1,7.31,7.32ZM736.28,438a6.06,6.06,0,0,1-6.06,6.07H672.34a6.06,6.06,0,0,1-6.06-6.07V389.42a6.06,6.06,0,0,1,6.06-6.07h57.88a6.06,6.06,0,0,1,6.06,6.07ZM708.19,290.63a5.5,5.5,0,0,1,5.5-5.5H791a5.5,5.5,0,0,1,5.5,5.5V338a5.5,5.5,0,0,1-5.5,5.5H713.69a5.5,5.5,0,0,1-5.5-5.5Zm52.42-14.95a5,5,0,0,1-5-5V225.35a5,5,0,0,1,5-5h83.56a5,5,0,0,1,5,5v45.32a5,5,0,0,1-5,5Zm57.46-64.58a6.13,6.13,0,0,1-6.14-6.13V158.1a6.14,6.14,0,0,1,6.14-6.14H886a6.14,6.14,0,0,1,6.13,6.14V205A6.13,6.13,0,0,1,886,211.1Zm32.74-76.8a6.92,6.92,0,0,1-6.92,6.92H673.2a6.92,6.92,0,0,1-6.92-6.92V52.42a6.92,6.92,0,0,1,6.92-6.92H843.89a6.92,6.92,0,0,1,6.92,6.92ZM708.19,7.28a5.36,5.36,0,0,1,5.37-5.37h67.53a5.36,5.36,0,0,1,5.36,5.37V31.63A5.37,5.37,0,0,1,781.09,37H713.56a5.37,5.37,0,0,1-5.37-5.37ZM567,6a4.08,4.08,0,0,1,4.08-4.08H691.35A4.08,4.08,0,0,1,695.43,6V32.92A4.08,4.08,0,0,1,691.35,37H571.06A4.08,4.08,0,0,1,567,32.92Zm0,45.08a7.8,7.8,0,0,1,7.8-7.8h71.15a7.8,7.8,0,0,1,7.8,7.8v82.35a7.8,7.8,0,0,1-7.8,7.8H608.17a7.8,7.8,0,0,1-6.36-3.29,332.79,332.79,0,0,0-32.65-39.49A7.72,7.72,0,0,1,567,93Zm-47.79-45a4.15,4.15,0,0,1,4.15-4.15h31.81a4.15,4.15,0,0,1,4.15,4.15V51.72a4.15,4.15,0,0,1-4.15,4.15H523.34a4.15,4.15,0,0,1-4.15-4.15Zm-62.3-1.23a3,3,0,0,1,3-2.95h49.21a3,3,0,0,1,2.95,3v45a3,3,0,0,1-2.95,3h-1.23a3,3,0,0,1-1.44-.37,219.06,219.06,0,0,0-47.33-19.78,3,3,0,0,1-2.17-2.85Zm-19.8-2.92h10.56a1.54,1.54,0,0,1,1.54,1.54V16a1.54,1.54,0,0,1-2.72,1L435.91,4.44A1.54,1.54,0,0,1,437.09,1.91ZM446.18,29ZM348.62,3.24A1.36,1.36,0,0,1,350,1.88h11.93a1.35,1.35,0,0,1,.95,2.33L350.92,15.79a1.36,1.36,0,0,1-2.3-1ZM313.45,6.65a4.77,4.77,0,0,1,4.77-4.77h19A4.76,4.76,0,0,1,342,6.65V27.56a4.77,4.77,0,0,1-3.45,4.58q-9.47,2.74-18.59,6.28A4.77,4.77,0,0,1,313.45,34ZM478.24,632.79a4.17,4.17,0,0,1,4.17,4.16v30.37a4.17,4.17,0,0,1-4.17,4.16H306.76a4.17,4.17,0,0,1-4.17-4.16V637a4.17,4.17,0,0,1,4.17-4.16ZM221,7.28a5.39,5.39,0,0,1,5.39-5.4h73.36a5.4,5.4,0,0,1,5.4,5.4V40.11a5.39,5.39,0,0,1-3,4.81,258.06,258.06,0,0,0-71.89,53A5.39,5.39,0,0,1,221,94.21Zm69.79,630V667a4.48,4.48,0,0,1-4.48,4.48H188.79a4.48,4.48,0,0,1-4.48-4.48V637.27a4.48,4.48,0,0,1,4.48-4.48h97.52A4.48,4.48,0,0,1,290.79,637.27ZM121.33,12.64A186.42,186.42,0,0,1,142.65,2.13a3.22,3.22,0,0,1,1.26-.25h64.14a3.25,3.25,0,0,1,3.26,3.25V15.46a3.25,3.25,0,0,1-3.26,3.25H123A3.25,3.25,0,0,1,121.33,12.64ZM77,51.69a11.45,11.45,0,0,1,3.31-8c4.4-4.45,9.77-9.5,14.48-13.53a11.47,11.47,0,0,1,7.46-2.76h97.6a11.46,11.46,0,0,1,11.46,11.46v74.81a11.49,11.49,0,0,1-2.64,7.31,323.26,323.26,0,0,0-36.43,54.53,11.47,11.47,0,0,1-10.11,6.07H88.45A11.46,11.46,0,0,1,77,170.07Zm52.24,248.19H68a4.73,4.73,0,0,1-4.73-4.73V256.34A4.74,4.74,0,0,1,68,251.6h68.42a4.74,4.74,0,0,1,4.6,5.87,326.71,326.71,0,0,0-7,38.22A4.74,4.74,0,0,1,129.24,299.88Zm3.94,13.69q-.26,5.94-.26,11.84V376a3.61,3.61,0,0,1-3.61,3.61h-14a3.61,3.61,0,0,1-3.61-3.61V313.42a3.62,3.62,0,0,1,3.61-3.62h14.24A3.61,3.61,0,0,1,133.18,313.57ZM53.11,241.69a3.83,3.83,0,0,1-3.82-3.83V196.8A3.82,3.82,0,0,1,53.11,193h65.61a3.82,3.82,0,0,1,3.82,3.83v41.06a3.83,3.83,0,0,1-3.82,3.83Zm83.13-.76a3.06,3.06,0,0,1-3.06-3.06v-42.6a3.06,3.06,0,0,1,3.06-3.06h22.62a3.06,3.06,0,0,1,2.79,4.31A335.08,335.08,0,0,0,146,238.72a3.07,3.07,0,0,1-2.94,2.21ZM29.67,164.44A171.58,171.58,0,0,1,62.23,63.64a3.64,3.64,0,0,1,6.6,2.12V177.89a3.64,3.64,0,0,1-3.64,3.64H33.31a3.64,3.64,0,0,1-3.64-3.64Zm0,30.31a2.54,2.54,0,0,1,2.54-2.54H39.3a2.54,2.54,0,0,1,2.54,2.54v43.63a2.55,2.55,0,0,1-2.54,2.55H32.21a2.54,2.54,0,0,1-2.54-2.55Zm0,60.94a4.09,4.09,0,0,1,4.08-4.09H49.93A4.09,4.09,0,0,1,54,255.69V295.8a4.08,4.08,0,0,1-4.08,4.08H33.75a4.08,4.08,0,0,1-4.08-4.08Zm0,58a3.9,3.9,0,0,1,3.89-3.9h62a3.9,3.9,0,0,1,3.89,3.9v62a3.89,3.89,0,0,1-3.89,3.89h-62a3.89,3.89,0,0,1-3.89-3.89Zm0,83.07c0-3.74,1.84-6.77,4.1-6.77h95.49c2.27,0,4.11,3,4.11,6.77v93.44c0,3.74-1.84,6.76-4.11,6.76H33.77c-2.26,0-4.1-3-4.1-6.76ZM132.72,507.26v19.45c0,.66-1.54,1.19-3.45,1.19H76.44c-1.91,0-3.46-.53-3.46-1.19V507.26c0-.65,1.55-1.19,3.46-1.19h52.83C131.18,506.07,132.72,506.61,132.72,507.26Zm-103,3.17A4.36,4.36,0,0,1,34,506.07H58.86a4.36,4.36,0,0,1,4.36,4.36v13.11a4.36,4.36,0,0,1-4.36,4.36H34a4.36,4.36,0,0,1-4.36-4.36Zm0,33.91a5.09,5.09,0,0,1,5-5.15h93.58a5.09,5.09,0,0,1,5,5.15v82.3a5.09,5.09,0,0,0,5,5.16h29.48a5.09,5.09,0,0,1,5,5.15v29.38a5.09,5.09,0,0,1-5,5.15H34.69a5.08,5.08,0,0,1-5-5.15ZM61.8,769.15a3.71,3.71,0,0,1-3.71,3.71H34.8a3.71,3.71,0,0,1-3.71-3.71V686.36a3.71,3.71,0,0,1,3.71-3.71H58.09a3.71,3.71,0,0,1,3.71,3.71Zm160.69-.28a4,4,0,0,1-4,4H77a4,4,0,0,1-4-4V686.63a4,4,0,0,1,4-4H218.5a4,4,0,0,1,4,4Zm151-.16a4.14,4.14,0,0,1-4.14,4.15H237a4.15,4.15,0,0,1-4.15-4.15V686.79a4.14,4.14,0,0,1,4.15-4.14H369.38a4.14,4.14,0,0,1,4.14,4.14Zm169.74-2.88a7,7,0,0,1-7,7H391.82a7,7,0,0,1-7-7V689.68a7,7,0,0,1,7-7h144.4a7,7,0,0,1,7,7Zm60,2.24a4.78,4.78,0,0,1-4.78,4.79H558.83a4.79,4.79,0,0,1-4.79-4.79V687.43a4.79,4.79,0,0,1,4.79-4.78h39.62a4.78,4.78,0,0,1,4.78,4.78Zm193.69-4.63a9.42,9.42,0,0,1-9.42,9.42H623.44a9.42,9.42,0,0,1-9.42-9.42V692.06a9.41,9.41,0,0,1,9.42-9.41H787.5a9.41,9.41,0,0,1,9.42,9.41Zm40.26,4.86a4.56,4.56,0,0,1-4.56,4.56H812.29a4.56,4.56,0,0,1-4.56-4.56V687.2a4.56,4.56,0,0,1,4.56-4.55h20.33a4.56,4.56,0,0,1,4.56,4.55Zm0-100.7a3.89,3.89,0,0,1-3.89,3.88H765a3.89,3.89,0,0,1-3.89-3.88V652a3.89,3.89,0,0,1,3.89-3.89h68.29a3.89,3.89,0,0,1,3.89,3.89Zm0-36a5.54,5.54,0,0,1-5.54,5.53h-65a5.54,5.54,0,0,1-5.53-5.53V576.53a5.54,5.54,0,0,1,5.53-5.54h65a5.54,5.54,0,0,1,5.54,5.54Zm2-242.76c-1.39,14.75-2.1,30.53-2,47.45V439a5,5,0,0,1-5,5H754.46a5,5,0,0,1-5-5V388.36a5,5,0,0,1,5-5h79.76A5,5,0,0,1,839.2,388.82Zm4.58-33.26q-1.15,6.27-2.12,12.85a4.63,4.63,0,0,1-4.58,3.95h-124a4.62,4.62,0,0,1-4.63-4.62V357.6a4.63,4.63,0,0,1,4.63-4.63H841.62A2.19,2.19,0,0,1,843.78,355.56Zm21.38-67.9a257.32,257.32,0,0,0-18.31,53.18,3.49,3.49,0,0,1-3.4,2.69H812.73a3.49,3.49,0,0,1-3.49-3.49V288.4a3.49,3.49,0,0,1,3.49-3.49h50.7A1.92,1.92,0,0,1,865.16,287.66Zm49.69-63.87a174.76,174.76,0,0,0-42.44,50.08,3.57,3.57,0,0,1-3.1,1.81h-5.69a3.57,3.57,0,0,1-3.57-3.57V223.9a3.57,3.57,0,0,1,3.57-3.57h50A1.94,1.94,0,0,1,914.85,223.79ZM1022.14,184a3,3,0,0,1-2.93,3c-21.88.38-53.75,5.49-83.85,22.82a9.56,9.56,0,0,1-4.75,1.26H908.07a4,4,0,0,1-4-4V156a4,4,0,0,1,4-4h110a4,4,0,0,1,4,4Zm61.21,9.06a3.7,3.7,0,0,1-4.91,3.49,180.14,180.14,0,0,0-40.5-8.77,4.61,4.61,0,0,1-4.15-4.6V156.58a4.62,4.62,0,0,1,4.62-4.62h40.32a4.62,4.62,0,0,1,4.62,4.62Zm0-57.31a5.44,5.44,0,0,1-5.44,5.43h-208a5.44,5.44,0,0,1-5.44-5.43v-22.1a5.44,5.44,0,0,1,5.44-5.43h208a5.44,5.44,0,0,1,5.44,5.43Zm8.74-20.77a6.77,6.77,0,0,1,6.77-6.76h60.75a6.77,6.77,0,0,1,6.77,6.76v60.77a6.77,6.77,0,0,1-6.77,6.77h-60.75a6.77,6.77,0,0,1-6.77-6.77Zm78.54,157.6c-21.3-36.06-49.29-57.44-76.53-69.82a3.44,3.44,0,0,1-2-3.14V194a3.55,3.55,0,0,1,3.55-3.55h115.75a6.21,6.21,0,0,1,6.21,6.21v72.79a6.21,6.21,0,0,1-6.21,6.21H1176A6.22,6.22,0,0,1,1170.63,272.62Zm22.19,59.74a333.86,333.86,0,0,0-14-43.68c-.7-1.75.35-3.77,2-3.77H1270c2.36,0,4.27,2.3,4.27,5.14v40.84c0,2.84-1.91,5.14-4.27,5.14H1196.9A4.45,4.45,0,0,1,1192.82,332.36Zm6.22,17a4.79,4.79,0,0,1,4.45-5.87H1230a5.66,5.66,0,0,1,5.45,5.84v87.32a5.59,5.59,0,0,1-5.39,5.78h-20.89a2.12,2.12,0,0,1-2-2.18C1207.06,405.75,1204.15,375.64,1199,349.4Zm64.41,419c0,3.58-2.62,6.49-5.85,6.49h-44.66c-3.22,0-5.84-2.91-5.84-6.49V682.7c0-3.59,2.62-6.49,5.84-6.49h44.66c3.23,0,5.85,2.9,5.85,6.49ZM1438,765.83a8,8,0,0,1-8,8H1283.43a8,8,0,0,1-8-8V684.22a8,8,0,0,1,8-8H1430a8,8,0,0,1,8,8Zm184.64-1.62a8.65,8.65,0,0,1-8.65,8.65H1460.08a8.65,8.65,0,0,1-8.65-8.65V683.87a8.65,8.65,0,0,1,8.65-8.65H1614a8.65,8.65,0,0,1,8.65,8.65Zm118.34-6.3a12.54,12.54,0,0,1-12.54,12.54H1647.1a12.55,12.55,0,0,1-12.54-12.54V686.33a12.55,12.55,0,0,1,12.54-12.54h81.32A12.54,12.54,0,0,1,1741,686.33Zm-51.7-101.36v-51.1a7.69,7.69,0,0,1,7.69-7.69h76.84a7.69,7.69,0,0,1,7.69,7.69v51.1a7.69,7.69,0,0,1-7.69,7.69H1697A7.7,7.7,0,0,1,1689.26,656.55Zm200.4,102.27a12.26,12.26,0,0,1-12.25,12.26H1765.15a12.26,12.26,0,0,1-12.25-12.26V685.41a12.26,12.26,0,0,1,12.25-12.25h112.26a12.26,12.26,0,0,1,12.25,12.25Zm0-106.15a11.57,11.57,0,0,1-11.57,11.57h-69.84a11.57,11.57,0,0,1-11.57-11.57v-44a11.57,11.57,0,0,1,11.57-11.57h69.84a11.57,11.57,0,0,1,11.57,11.57Zm0-71.09a6.08,6.08,0,0,1-6.07,6.08h-250a6.08,6.08,0,0,1-6.07-6.08V568.87a6.07,6.07,0,0,1,6.07-6.07h250a6.07,6.07,0,0,1,6.07,6.07Zm0-34.92a5.65,5.65,0,0,1-5.64,5.64h-9a5.65,5.65,0,0,1-5.64-5.64V367.2a5.64,5.64,0,0,1,5.64-5.64h9a5.64,5.64,0,0,1,5.64,5.64Zm0-203.92a8.33,8.33,0,0,1-8.32,8.32H1805a8.33,8.33,0,0,1-8.32-8.32V293.23a8.32,8.32,0,0,1,8.32-8.32h76.34a8.32,8.32,0,0,1,8.32,8.32Zm0-74.67a7.62,7.62,0,0,1-7.62,7.61h-16a7.61,7.61,0,0,1-7.61-7.61v-70a7.62,7.62,0,0,1,7.61-7.62h16a7.62,7.62,0,0,1,7.62,7.62Zm0-90.65a5.14,5.14,0,0,1-5.14,5.14h-21a5.14,5.14,0,0,1-5.14-5.14V72.13a1.71,1.71,0,0,1,3.11-1c18.7,26.9,28.12,58.71,28.12,92.79Z"/><g id="Lightside"><path class="cls-7" d="M321.35,39.76q9.12-3.52,18.59-6.27a4.77,4.77,0,0,0,3.45-4.58V8a4.77,4.77,0,0,0-4.77-4.77h-19A4.77,4.77,0,0,0,314.87,8V35.31A4.77,4.77,0,0,0,321.35,39.76Z"/><path class="cls-8" d="M144.6,239.9a2.5,2.5,0,0,0,.38-1.31l.12-1.5c.08-1,.23-2,.35-3,.31-2,.66-4,1.13-5.93s1-3.88,1.53-5.82,1.25-3.8,1.9-5.7,1.47-3.72,2.27-5.56,1.65-3.65,2.63-5.41,2-3.52,3-5.23c.56-.85,1.09-1.7,1.69-2.53l.9-1.23a3.82,3.82,0,0,0,.77-1.21l.29,0a3.64,3.64,0,0,1-.43,1.47l-.59,1.37L159.37,201q-1.17,2.75-2.28,5.51-2.24,5.52-4.26,11.11t-4,11.22q-.94,2.82-1.85,5.66l-.89,2.84-.44,1.43a3.12,3.12,0,0,1-.83,1.31Z"/><path class="cls-7" d="M163.33,196.66a3.05,3.05,0,0,0-3.05-3.26H137.66a3.06,3.06,0,0,0-3.06,3.06V239a3.06,3.06,0,0,0,3.06,3.06h6.83a3,3,0,0,0,2.12-.86"/><path class="cls-9" d="M572.33,97.16A95.09,95.09,0,0,1,585,108c2,1.93,3.84,4,5.71,6s3.59,4.23,5.33,6.38,3.36,4.4,5,6.66,3.15,4.56,4.57,6.95l1,1.71a7.6,7.6,0,0,0,1,1.22,6.42,6.42,0,0,0,2.83,1.61,6,6,0,0,0,.86.18l1,.13c.68.09,1.37.17,2.06.28,1.37.2,2.74.44,4.12.71v.3h-6.18a16.29,16.29,0,0,1-2.09,0,8.05,8.05,0,0,1-5.36-3.07l-1.21-1.67q-4.81-6.69-10-13.13a324.83,324.83,0,0,0-21.57-24.89Z"/><path class="cls-10" d="M528.77,63.45a42.64,42.64,0,0,1,9.05,4c1.44.76,2.77,1.68,4.15,2.54s2.65,1.86,4,2.81,2.54,2,3.77,3.07,2.43,2.14,3.56,3.33,2.25,2.36,3.32,3.61l.77,1,.39.48c.12.16.29.37.26.4a.42.42,0,0,0,.47.27.75.75,0,0,0,.69-.53h.3a1.33,1.33,0,0,1-2,1.16c-.7-.5-1.27-1-1.92-1.5l-3.78-3q-3.79-3-7.66-5.87t-7.71-5.82c-2.6-1.9-5.19-3.8-7.81-5.68Z"/><path class="cls-7" d="M560.72,87.13V64.29a1.2,1.2,0,0,0-1.21-1.2H529.63a1.2,1.2,0,0,0-.69,2.19"/><path class="cls-7" d="M460.48,33.93a219.5,219.5,0,0,1,47.33,19.76,2.9,2.9,0,0,0,1.44.38h1.23a3,3,0,0,0,2.95-3V6.2a3,3,0,0,0-2.95-2.95H461.27a3,3,0,0,0-3,3V31.09A3,3,0,0,0,460.48,33.93Z"/><path class="cls-8" d="M615.88,160.68a101.62,101.62,0,0,1,10.89,13.39c1.69,2.32,3.16,4.78,4.71,7.2s2.9,4.95,4.29,7.47,2.63,5.09,3.85,7.69l1.76,3.93c.28.66.58,1.31.85,2l.76,1.89a7.6,7.6,0,0,0,5.15,4.19,8.62,8.62,0,0,0,.91.2l1,.14c.71.09,1.43.16,2.14.28,1.42.19,2.84.43,4.27.7v.3l-4.27,0c-1.43,0-2.84.08-4.29-.07a9.32,9.32,0,0,1-7-4.63c-2.51-5.14-5.06-10.21-7.79-15.21q-8-15.08-17.49-29.3Z"/><path class="cls-8" d="M131.44,299.07a4.65,4.65,0,0,0,1.05-2.53c0-.75-.09-1.88-.12-2.88,0-2.05,0-4.09.1-6.12s.34-4.05.54-6.08.6-4,.93-6,.82-4,1.31-5.95,1-3.93,1.69-5.86,1.34-3.85,2.11-5.74a12.28,12.28,0,0,0,.49-1.2,4.3,4.3,0,0,0-.8-3.78l.18-.24a4.92,4.92,0,0,1,1.74,2.53,5.43,5.43,0,0,1-.08,3.07q-.69,2.93-1.34,5.88c-.86,3.93-1.63,7.88-2.35,11.84s-1.46,7.91-2.08,11.89c-.31,2-.59,4-.86,6l-.2,1.49a6.9,6.9,0,0,1-.29,1.52,5,5,0,0,1-1.85,2.45Z"/><path class="cls-7" d="M140.68,253.72a4.74,4.74,0,0,0-2.9-1H69.37a4.74,4.74,0,0,0-4.74,4.73v38.77A4.73,4.73,0,0,0,69.37,301h61.28a4.72,4.72,0,0,0,2.72-.85"/><path class="cls-8" d="M132.27,373.72a116.09,116.09,0,0,1-2-15.3c-.24-2.55-.28-5.1-.42-7.65s-.1-5.1-.14-7.65.06-5.1.14-7.65.19-5.1.43-7.65.54-5.13.89-7.68c.21-1.28.38-2.55.62-3.82l.18-.95a4.25,4.25,0,0,0,.12-.84,3.12,3.12,0,0,0-.39-1.7l.23-.2a3.76,3.76,0,0,1,.84,1.78,11.61,11.61,0,0,1,0,1.95l-.06,3.82c0,2.55-.11,5.09-.11,7.64l.07,15.3-.15,30.6Z"/><path class="cls-7" d="M133.74,312.16a3.59,3.59,0,0,0-2.75-1.28H116.75a3.61,3.61,0,0,0-3.61,3.61V377a3.61,3.61,0,0,0,3.61,3.61h14a3.61,3.61,0,0,0,3.61-3.61v-3.82"/><path class="cls-8" d="M652.47,229.17a65.23,65.23,0,0,1,6.2,11.19c.91,1.92,1.61,3.91,2.4,5.88s1.36,4,2,6,1.13,4.08,1.61,6.14.93,4.14,1.22,6.25c.16,1.05.34,2.09.45,3.15l.32,3.14a4.18,4.18,0,0,0,3.31,3.72v.3a5,5,0,0,1-4.85-3.63c-.49-2-1-4.08-1.52-6.1q-1.57-6.09-3.42-12.11c-2.35-8-5-16-8-23.84Z"/><path class="cls-8" d="M666,290.71a84.53,84.53,0,0,1,5.72,20A96.62,96.62,0,0,1,673,321c.13,1.73.2,3.47.26,5.2l.06,5.13c0,6.79-.27,13.59-.94,20.38a127.72,127.72,0,0,1-3.31,20.39h-.5l-.12-10.19,0-10.2-.09-20.38c.08-6.8,0-13.57-.57-20.34q-.37-5.07-1-10.13t-1.28-10.1Z"/><path class="cls-8" d="M676.38,452.47c-.47.26-.93.45-1.4.67l-1.41.56c-.46.19-.93.31-1.4.47-.64.17-.51.27-.46.36s.22.06.25.17a2.36,2.36,0,0,1,.06.58c0,.28.05.58.11.94l.09.53c0,.17.09.45.13.67a58.66,58.66,0,0,1,1.17,11.23,62.45,62.45,0,0,1-.83,11.23,40.28,40.28,0,0,1-3.41,11.23h-.5l-.12-5.62,0-5.61-.07-11.23.09-11.23a12.88,12.88,0,0,1,.24-2.88,4.86,4.86,0,0,1,.57-1.41,2.56,2.56,0,0,1,1.21-1.06,3.3,3.3,0,0,1,1.52-.19l1.4,0,2.81.06Z"/><path class="cls-8" d="M687.81,385.73a74.8,74.8,0,0,1-8.61,2.08l-2.15.36a2.89,2.89,0,0,0-1.1.52,2.94,2.94,0,0,0-1.16,1.61,2.3,2.3,0,0,0,0,.86c0,.16,0,.22.06.45l.08,1.07c.14,1.44.2,2.87.29,4.31s.11,2.86.16,4.3l0,4.3a148.31,148.31,0,0,1-.94,17.22,93.25,93.25,0,0,1-3.3,17.21h-.5l-.13-8.61,0-8.6-.08-17.22,0-8.6,0-4.31v-1.07a8.62,8.62,0,0,1,.1-1.14,6.67,6.67,0,0,1,.78-2.16,6.45,6.45,0,0,1,3.47-2.86,6.87,6.87,0,0,1,2.24-.36h2.15l8.61.13Z"/><path class="cls-8" d="M665.23,633.71a16.06,16.06,0,0,1-5.05,2,23.37,23.37,0,0,1-5,.54l-1.13,0a3,3,0,0,0-.67,0,4.71,4.71,0,0,0-1.47.34,7.08,7.08,0,0,0-3.27,2.87h-.3a6,6,0,0,1,2-4.66,5.77,5.77,0,0,1,2.29-1.28,8.73,8.73,0,0,1,2.57-.25c3.37,0,6.74,0,10.1.15Z"/><path class="cls-8" d="M692.45,573.67A51.8,51.8,0,0,1,680,577c-1,.16-2.07.3-3.11.4a.78.78,0,0,0-.39.1c-.07,0-.13.06-.19.1a2.34,2.34,0,0,0-.3.25,1.71,1.71,0,0,0-.41.67,1.64,1.64,0,0,0-.16.77,82.84,82.84,0,0,1-.92,12.46,52.24,52.24,0,0,1-3.33,12.46h-.5l-.12-6.23,0-6.23-.09-12.46a6.47,6.47,0,0,1,3.23-5.56,6.22,6.22,0,0,1,3.22-.76l3.11,0,6.23,0,6.23.13Z"/><path class="cls-8" d="M132.1,479.41c-1.06-8.59-1.61-17.19-2-25.78-.23-4.29-.28-8.59-.42-12.88l-.14-12.89c0-4.29.06-8.59.14-12.88s.2-8.6.43-12.89l.14-3.14a9.11,9.11,0,0,0-.35-2.57,4.31,4.31,0,0,0-1.08-1.92,1.37,1.37,0,0,0-.64-.35,1.94,1.94,0,0,0-.33,0l-.41,0-.8-.05c-4.3-.35-8.59-.69-12.89-1.25v-.3l12.89,0c.54,0,1.06,0,1.62,0a3.06,3.06,0,0,1,1.6.56,5.89,5.89,0,0,1,1.93,2.67,10.08,10.08,0,0,1,.65,3.21c0,1.09,0,2.15,0,3.23l.07,25.77-.15,51.55Z"/><path class="cls-7" d="M116.29,391H35.19c-2.27,0-4.11,3-4.11,6.76v93.36c0,3.73,1.84,6.76,4.11,6.76h95.49c2.26,0,4.1-3,4.1-6.76V477.81"/><path class="cls-8" d="M131.57,524.12a16.05,16.05,0,0,1-3.34-6,19.31,19.31,0,0,1-.91-6,21.5,21.5,0,0,1,.23-3l.06-.37v-.09s0-.2,0,.21a3.46,3.46,0,0,0,.16.79,3.16,3.16,0,0,0,.25.6c.13.22.2.32.28.44a3.19,3.19,0,0,0,.29.32,1.87,1.87,0,0,0,.39.31.94.94,0,0,0,.41.16c.25,0,0-.26-.2-.44a6.29,6.29,0,0,0-.95-.61c-.49-.21-1-.45-1.49-.7s-1-.56-1.49-.91a12.46,12.46,0,0,1-1.49-1.17v-.5l3-.12a19.43,19.43,0,0,1,3,.06,5.35,5.35,0,0,1,1.56.43,1.56,1.56,0,0,1,.77.66.9.9,0,0,1,.1.34,2,2,0,0,1,0,.22v.37l0,3-.09,6,0,3-.12,3Z"/><path class="cls-7" d="M126.14,507H77.85c-1.9,0-3.45.53-3.45,1.19v19.43c0,.65,1.55,1.18,3.45,1.18h52.84c1.91,0,3.45-.53,3.45-1.18v-4"/><path class="cls-8" d="M131.72,589.21a126.1,126.1,0,0,1-3.31-20.44c-.68-6.82-.93-13.63-.94-20.44l0-1.28v-.64s0-.07,0-.1a1,1,0,0,0-.1-.34.67.67,0,0,0-.2-.28.57.57,0,0,0-.13-.08s0,0-.07,0l0,0h-.32c-3.41-.16-6.82-.35-10.23-.72A127.35,127.35,0,0,1,96,541.52V541l10.22-.12,10.22,0,10.23,0a5.51,5.51,0,0,1,4.78,2.33,5.57,5.57,0,0,1,1,2.57,5.49,5.49,0,0,1,.05.7v1.92l-.08,20.44,0,10.22-.12,10.22Z"/><path class="cls-7" d="M306.56,41.44V8.64a5.39,5.39,0,0,0-5.39-5.39H227.81a5.4,5.4,0,0,0-5.4,5.39V95.5a5.29,5.29,0,0,0,2.5,4.55"/><path class="cls-11" d="M223.74,96.87a5,5,0,0,0,5.47-.74c.58-.59,1.31-1.55,2-2.35l2.07-2.51c1.43-1.62,2.88-3.24,4.34-4.84s3-3.14,4.53-4.66,3.08-3.06,4.71-4.5,3.21-2.91,4.86-4.33c3.3-2.82,6.73-5.48,10.19-8.11,1.75-1.28,3.54-2.51,5.31-3.76s3.58-2.46,5.43-3.6c3.7-2.27,7.38-4.56,11.24-6.56s7.71-3.95,11.65-5.74c2-.87,4-1.69,6-2.5a7.48,7.48,0,0,0,1.33-.61,5,5,0,0,0,1.08-.93,5.08,5.08,0,0,0,1.23-2.74h.3a5.63,5.63,0,0,1-1,3.13A5.94,5.94,0,0,1,302,43.58c-1.9,1-3.83,2-5.71,3s-3.78,2-5.64,3.11-3.72,2.14-5.56,3.25c-7.36,4.43-14.52,9.17-21.4,14.31s-13.57,10.52-20,16.28c-1.6,1.42-3.14,2.92-4.72,4.37l-4.61,4.5-2.25,2.3A31.3,31.3,0,0,1,229.82,97a5.4,5.4,0,0,1-3.1,1.05,5.81,5.81,0,0,1-3.14-.89Z"/><path class="cls-8" d="M61,526.93a4.54,4.54,0,0,0-.42-2.36,3.14,3.14,0,0,1-.21-.58l-.21-.64c-.13-.43-.24-.86-.33-1.28a23.71,23.71,0,0,1-.55-5.14,24.29,24.29,0,0,1,.56-5.14,6.7,6.7,0,0,1,.28-.94,2.58,2.58,0,0,0,.13-.9,4.7,4.7,0,0,0-.61-2.32l.14-.26a4.53,4.53,0,0,1,1.9,1.83,4.92,4.92,0,0,1,.55,2.59l0,5.14,0,5.14,0,2.58a4.6,4.6,0,0,1-1,2.46Z"/><path class="cls-7" d="M62.36,507.5a4.32,4.32,0,0,0-2.09-.53H35.44a4.36,4.36,0,0,0-4.36,4.35v13.1a4.36,4.36,0,0,0,4.36,4.35H60.27a4.35,4.35,0,0,0,3.5-1.75"/><rect class="cls-7" x="31.08" y="310.88" width="69.75" height="69.69" rx="3.89"/><rect class="cls-7" x="31.08" y="252.74" width="24.35" height="48.23" rx="4.08"/><path class="cls-7" d="M54.53,194.16h65.61A3.82,3.82,0,0,1,124,198v41a3.83,3.83,0,0,1-3.83,3.83H54.53A3.82,3.82,0,0,1,50.71,239V198A3.83,3.83,0,0,1,54.53,194.16Z"/><rect class="cls-7" x="31.08" y="193.4" width="12.17" height="48.67" rx="2.54"/><path class="cls-9" d="M164.88,180.38a11.93,11.93,0,0,0,3.5-3.27,12.64,12.64,0,0,0,1.12-2l.94-2.29q2-4.62,4.26-9.11c1.48-3,3.15-5.92,4.81-8.83s3.5-5.72,5.32-8.54,3.8-5.53,5.81-8.22c1-1.32,2-2.66,3.09-4s2.1-2.61,3.2-3.88,2.18-2.55,3.31-3.78,2.29-2.46,3.45-3.67l1.79-1.77.9-.88c.27-.27.54-.54.8-.83a12.18,12.18,0,0,0,2.32-4.18l.3,0a11.74,11.74,0,0,1-1.77,4.7c-.46.71-1,1.34-1.53,2l-1.58,1.93c-2.07,2.6-4.12,5.22-6.11,7.88-4,5.31-7.84,10.74-11.48,16.3s-7.23,11.16-10.59,16.9c-1.67,2.87-3.32,5.76-4.9,8.68l-1.2,2.19a12,12,0,0,1-1.51,2,11.69,11.69,0,0,1-4.13,2.85Z"/><path class="cls-7" d="M212.6,116.54a11.35,11.35,0,0,0,.12-1.65V40.15A11.45,11.45,0,0,0,201.27,28.7H103.66a11.46,11.46,0,0,0-7.45,2.76c-4.72,4-10.08,9.07-14.48,13.51A11.41,11.41,0,0,0,78.42,53V171.29a11.44,11.44,0,0,0,11.45,11.44h73.67a11.45,11.45,0,0,0,4.36-.86"/><path class="cls-7" d="M34.72,182.73H66.61a3.62,3.62,0,0,0,3.63-3.63v-112A3.63,3.63,0,0,0,63.65,65a171.23,171.23,0,0,0-32.57,100.7V179.1A3.63,3.63,0,0,0,34.72,182.73Z"/><path class="cls-7" d="M124.38,20.07h85.09a3.24,3.24,0,0,0,3.25-3.25V6.5a3.25,3.25,0,0,0-3.25-3.25H145.33a3.41,3.41,0,0,0-1.26.25A186.37,186.37,0,0,0,122.75,14,3.25,3.25,0,0,0,124.38,20.07Z"/><path class="cls-7" d="M352.34,17.15,364.28,5.58a1.36,1.36,0,0,0-.95-2.33H351.39A1.35,1.35,0,0,0,350,4.61V16.17A1.36,1.36,0,0,0,352.34,17.15Z"/><path class="cls-7" d="M447.88,18.37a1.54,1.54,0,0,0,2.72-1V4.82a1.54,1.54,0,0,0-1.54-1.54H438.51a1.54,1.54,0,0,0-1.18,2.53Z"/><rect class="cls-7" x="520.61" y="3.28" width="40.11" height="53.91" rx="4.15"/><rect class="cls-7" x="568.39" y="3.28" width="128.45" height="35.05" rx="4.08"/><path class="cls-7" d="M190.21,633.56h97.52a4.47,4.47,0,0,1,4.47,4.47v29.7a4.48,4.48,0,0,1-4.48,4.48H190.21a4.47,4.47,0,0,1-4.47-4.47V638A4.48,4.48,0,0,1,190.21,633.56Z"/><rect class="cls-7" x="304.01" y="633.56" width="179.82" height="38.66" rx="4.16"/><path class="cls-7" d="M495.63,638.75V667a5.19,5.19,0,0,0,5.19,5.19H632.58a5.2,5.2,0,0,0,5.2-5.19V638.75a5.19,5.19,0,0,0-5.2-5.19H500.82A5.19,5.19,0,0,0,495.63,638.75Z"/><rect class="cls-7" x="74.4" y="683.37" width="149.51" height="90.13" rx="3.99"/><rect class="cls-7" x="32.5" y="683.37" width="30.71" height="90.13" rx="3.71"/><rect class="cls-7" x="234.3" y="683.37" width="140.64" height="90.13" rx="4.14"/><path class="cls-7" d="M537.64,683.37H393.24a7,7,0,0,0-7,7v76.07a7,7,0,0,0,7,7h144.4a7,7,0,0,0,7-7V690.4A7,7,0,0,0,537.64,683.37Z"/><path class="cls-7" d="M560.25,683.37h39.62a4.79,4.79,0,0,1,4.79,4.79v80.56a4.78,4.78,0,0,1-4.78,4.78H560.25a4.79,4.79,0,0,1-4.79-4.79V688.15A4.78,4.78,0,0,1,560.25,683.37Z"/><path class="cls-8" d="M781.78,684.94a88.08,88.08,0,0,1-13.17,2c-2.2.23-4.39.28-6.59.42s-4.39.09-6.58.13-4.39-.05-6.59-.14-4.39-.19-6.58-.42a89.49,89.49,0,0,1-13.18-2v-.3l26.35-.15,26.34.15Z"/><path class="cls-8" d="M723.91,453.13a16.67,16.67,0,0,1-1.93,1.18c-.65.35-1.29.63-1.94.91l-1,.37c-.16.07-.32.11-.48.17a1.7,1.7,0,0,0-.31.18,5.37,5.37,0,0,0-2.52,3.71,2.41,2.41,0,0,0-.07.37c0,.09,0,.09,0,.24s0,.32,0,.48c-.06.65-.09,1.29-.17,1.94a32.73,32.73,0,0,1-.69,3.87,23.62,23.62,0,0,1-3.33,7.75H711l-.13-3.88,0-3.87,0-3.87a26.52,26.52,0,0,1,.1-4,7.78,7.78,0,0,1,5.23-5.86,11.21,11.21,0,0,1,4-.35l3.87.12Z"/><path class="cls-8" d="M710.62,291.72a69.9,69.9,0,0,1,2,11.84c.24,2,.29,3.95.43,5.92s.09,3.95.13,5.92,0,4-.14,5.92-.19,3.95-.42,5.92a71.77,71.77,0,0,1-2,11.84h-.3l-.15-23.68.15-23.68Z"/><path class="cls-8" d="M758,227.06a80.88,80.88,0,0,1,2,12.6c.23,2.1.28,4.21.42,6.31s.09,4.2.13,6.3-.05,4.2-.14,6.3-.19,4.21-.42,6.31c-.11,1.05-.18,2.1-.32,3.15l-.21,1.58a4.17,4.17,0,0,0,0,1.12,4.5,4.5,0,0,0,3.44,3.74v.3a5.21,5.21,0,0,1-4.95-3.56,5.82,5.82,0,0,1-.26-1.6V268l0-3.15-.07-12.61.15-25.21Z"/><path class="cls-8" d="M693.83,179.56a67.85,67.85,0,0,1,2,11.6c.24,1.93.28,3.86.43,5.8s.09,3.86.13,5.8l0,2.83a1.93,1.93,0,0,0,.33,1.12,1.9,1.9,0,0,0,1,.81,1.59,1.59,0,0,0,.33.1l.2,0,.36,0,1.45.15a68.81,68.81,0,0,1,11.6,2v.3l-11.6.08h-1.45a6.33,6.33,0,0,1-1.49-.12,4.71,4.71,0,0,1-2.56-1.59,4.64,4.64,0,0,1-1.06-2.83l0-2.9.15-23.2Z"/><path class="cls-7" d="M819.49,212.28h67.89a6.14,6.14,0,0,0,6.14-6.13V159.32a6.13,6.13,0,0,0-6.14-6.13H819.49a6.13,6.13,0,0,0-6.14,6.13v6.45"/><path class="cls-9" d="M815.05,162.33a79.83,79.83,0,0,1,2,12.5c.24,2.09.28,4.17.42,6.26s.1,4.16.14,6.25-.06,4.16-.14,6.25-.19,4.16-.43,6.25l-.15,1.56-.07.78c0,.25-.07.56-.09.71a4.51,4.51,0,0,0,.28,2.3,5.81,5.81,0,0,0,4,3.5v.3a6.33,6.33,0,0,1-5.38-3,6.2,6.2,0,0,1-.94-3.05c0-1.06,0-2.09,0-3.13l-.07-12.5.15-25Z"/><path class="cls-10" d="M669.42,104.6a99.34,99.34,0,0,1,2,14c.23,2.34.28,4.67.42,7s.09,4.66.13,7v.78a3.27,3.27,0,0,0,0,.54,4.12,4.12,0,0,0,.27,1,4.66,4.66,0,0,0,1.28,1.74,4.18,4.18,0,0,0,2,1,5.4,5.4,0,0,0,.58.1c.21,0,.56,0,.83.05l1.75.15a99.27,99.27,0,0,1,14,2v.3l-14,.07a34.89,34.89,0,0,1-3.53-.06,7.11,7.11,0,0,1-3.32-1.37,7.24,7.24,0,0,1-2.24-2.81,7.87,7.87,0,0,1-.63-3.53l.15-28Z"/><path class="cls-7" d="M1079.33,109.53h-208a5.43,5.43,0,0,0-5.43,5.43V137a5.43,5.43,0,0,0,5.43,5.43h208a5.43,5.43,0,0,0,5.43-5.43V115A5.43,5.43,0,0,0,1079.33,109.53Z"/><path class="cls-7" d="M715,38.34H782.5A5.36,5.36,0,0,0,787.87,33V8.65a5.37,5.37,0,0,0-5.37-5.37H715a5.37,5.37,0,0,0-5.36,5.37V33A5.36,5.36,0,0,0,715,38.34Z"/><path class="cls-7" d="M806.43,38.34h126.7a6.9,6.9,0,0,0,6.91-6.9V10.18a6.9,6.9,0,0,0-6.91-6.9H806.43a6.9,6.9,0,0,0-6.9,6.9V31.44A6.9,6.9,0,0,0,806.43,38.34Z"/><path class="cls-7" d="M871.84,46.83a5.94,5.94,0,0,0-6,5.94V93.89a5.94,5.94,0,0,0,6,5.94h62.25A5.94,5.94,0,0,0,940,93.89V52.77a5.94,5.94,0,0,0-5.95-5.94Z"/><path class="cls-7" d="M954.73,99.83h207.9a5.17,5.17,0,0,0,5.17-5.16V8.44a5.17,5.17,0,0,0-5.17-5.16H954.73a5.16,5.16,0,0,0-5.16,5.16V94.67A5.16,5.16,0,0,0,954.73,99.83Z"/><path class="cls-7" d="M1100.27,183.76H1161a6.77,6.77,0,0,0,6.77-6.76V116.29a6.77,6.77,0,0,0-6.77-6.76h-60.76a6.76,6.76,0,0,0-6.76,6.76V177A6.76,6.76,0,0,0,1100.27,183.76Z"/><path class="cls-8" d="M694.05,504.64a78.06,78.06,0,0,1-8.84,2.09l-4.42.7c-.73.13-1.47.2-2.21.28l-1.1.12c-.09,0-.2,0-.26,0l-.16,0a1.47,1.47,0,0,0-.3.08,2.94,2.94,0,0,0-1.59,1.08c-.09.17,0,.28,0,.24s.06-.06.07-.1l.06,1c.08,1.48.11,2.95.17,4.42l0,4.42a158.86,158.86,0,0,1-.95,17.69,96.58,96.58,0,0,1-3.3,17.68h-.5l-.12-8.84,0-8.84-.08-17.69,0-8.84v-1.11a4.45,4.45,0,0,1,.21-1.21,4.92,4.92,0,0,1,1.31-2,7.14,7.14,0,0,1,4.23-1.85c6-.1,11.81,0,17.72.11Z"/><path class="cls-8" d="M818.64,684a8.18,8.18,0,0,1-3.12,2,7.83,7.83,0,0,1-.78.25l-.39.09a.77.77,0,0,0-.2.09l-.6.27c-.39.17-.81.3-1.4.61a5.34,5.34,0,0,0-1,.68c-.39.27-.71.88-1.27,1.38h-.3a13.75,13.75,0,0,1,0-1.58,4.56,4.56,0,0,1,.45-1.57,4.58,4.58,0,0,1,3.93-2.63c.56,0,1,0,1.58,0,1,0,2.08,0,3.12.1Z"/><path class="cls-8" d="M776.18,572.87c-2.16.57-4.32.9-6.48,1.25a4,4,0,0,0-3.23,2.73,3,3,0,0,0-.12,1c0,.17,0,.29,0,.51l0,.81.18,3.24c.07,2.16.09,4.32.13,6.48s-.06,4.32-.14,6.48-.19,4.33-.42,6.49a85.39,85.39,0,0,1-2,13h-.3l-.15-25.93,0-6.48,0-3.24a7,7,0,0,1,.53-3.26,5.79,5.79,0,0,1,5.39-3.35l6.48,0Z"/><path class="cls-8" d="M772.16,649.46a11.61,11.61,0,0,1-4,2c-.34.09-.67.18-1,.24a1.31,1.31,0,0,0-.4.21,4.26,4.26,0,0,0-.5.42,3,3,0,0,0-.45.48,1.72,1.72,0,0,0-.22.33s0,.1-.06.19a2.27,2.27,0,0,1-.06.25l-.13.51a11.75,11.75,0,0,1-2,4H763c-.06-1.35-.09-2.7-.1-4A7.14,7.14,0,0,1,763,652a4.19,4.19,0,0,1,1.1-1.84,4.08,4.08,0,0,1,1.9-1,8.69,8.69,0,0,1,2.08-.1c1.35,0,2.7,0,4,.1Z"/><path class="cls-7" d="M810.65,461.17v28.32a5.14,5.14,0,0,0,5.15,5.13h17.65a5.14,5.14,0,0,0,5.14-5.13V456.92a5.14,5.14,0,0,0-5.14-5.14H817.24"/><path class="cls-9" d="M817.8,452.4a6.61,6.61,0,0,1-.86.7,7.5,7.5,0,0,0-.79.56,6.34,6.34,0,0,0-.93,1,15,15,0,0,0-1,1.56c-.14.24-.26.47-.4.74s-.13.27-.22.43-.15.56-.24.83a9.46,9.46,0,0,1-2,3.44h-.3c-.06-1.15-.09-2.29-.1-3.44a9.54,9.54,0,0,1,.06-1.76,5.69,5.69,0,0,1,.59-1.71,5.46,5.46,0,0,1,2.7-2.32,5.07,5.07,0,0,1,1.76-.36c.59,0,1.15,0,1.73.06Z"/><path class="cls-8" d="M756.74,385.09a4.54,4.54,0,0,0-2.81,4.28,3.69,3.69,0,0,0,.1.5c0,.05,0,.23.05.36l0,.43c.08.57.12,1.14.17,1.71.09,1.15.12,2.29.13,3.44a40.8,40.8,0,0,1-.57,6.86,25.85,25.85,0,0,1-2,6.86h-.3c-.13-4.58-.09-9.15-.15-13.72l0-3.44v-1.71a8.83,8.83,0,0,1,.12-1.76,5.32,5.32,0,0,1,1.84-3,5.25,5.25,0,0,1,3.31-1.11Z"/><path class="cls-8" d="M715.1,354.16a4.8,4.8,0,0,0-2,3c-.18.95.07,1.07.06,2.89a17.07,17.07,0,0,1-.55,4.35,12.6,12.6,0,0,1-2,4.34h-.3c-.12-2.89-.09-5.79-.15-8.69a18.79,18.79,0,0,1,.1-2.22,4.75,4.75,0,0,1,.89-2.09,4.69,4.69,0,0,1,3.94-1.9Z"/><path class="cls-7" d="M814.14,344.58h30.73a3.48,3.48,0,0,0,3.39-2.69,257.4,257.4,0,0,1,18.32-53.13,1.92,1.92,0,0,0-1.73-2.75H814.14"/><path class="cls-12" d="M815.89,289.23a3.17,3.17,0,0,0-2.32,1.95,2.42,2.42,0,0,0-.1.63,1.51,1.51,0,0,0,0,.3l.06.35.26,1.81c.29,2.42.57,4.83.74,7.24s.28,4.83.42,7.25.1,4.82.14,7.24-.06,4.82-.14,7.24-.19,4.83-.43,7.24-.44,4.83-.74,7.24l-.26,1.81,0,.35c0,.1,0,.2,0,.3a3,3,0,0,0,.11.64,3.16,3.16,0,0,0,2.32,1.94v.3a3.74,3.74,0,0,1-3.2-1.71,3.35,3.35,0,0,1-.47-1.82v-1.81l0-7.24L812.1,316l.07-14.49,0-7.24v-1.81a3.29,3.29,0,0,1,.47-1.81,3.77,3.77,0,0,1,3.2-1.72Z"/><path class="cls-7" d="M861.47,273.23a3.56,3.56,0,0,0,3.57,3.56h5.68a3.59,3.59,0,0,0,3.11-1.8,174.35,174.35,0,0,1,42.44-50,2,2,0,0,0-1.22-3.47H865a3.57,3.57,0,0,0-3.57,3.57"/><path class="cls-9" d="M863.22,225.06a73.22,73.22,0,0,1,2,12c.24,2,.29,4,.43,6s.09,4,.13,6-.06,4-.14,6-.19,4-.42,6a74.29,74.29,0,0,1-2,12h-.3l-.15-24.09.15-24.08Z"/><path class="cls-7" d="M909.49,212.28H932a9.57,9.57,0,0,0,4.76-1.26c30.09-17.32,62-22.42,83.85-22.8a3,3,0,0,0,2.93-3v-28a4,4,0,0,0-4-4h-110a4,4,0,0,0-4,4v3.58"/><path class="cls-10" d="M907.62,157.73a89.12,89.12,0,0,1,2,13.45c.24,2.24.29,4.48.43,6.72s.09,4.48.13,6.72,0,4.48-.14,6.72-.19,4.48-.42,6.72-.45,4.49-.74,6.73l-.11.7a2.41,2.41,0,0,0,0,.6,3.34,3.34,0,0,0,.39,1.22,3.72,3.72,0,0,0,2.35,1.75v.3a4.2,4.2,0,0,1-3.1-1.36,4.3,4.3,0,0,1-1.11-3.21l0-6.73-.07-13.44.14-26.89Z"/><path class="cls-7" d="M1080.15,153.19h-40.33a4.61,4.61,0,0,0-4.61,4.61v26.62a4.6,4.6,0,0,0,4.15,4.59,181.3,181.3,0,0,1,40.5,8.76,3.69,3.69,0,0,0,4.9-3.48V157.8A4.61,4.61,0,0,0,1080.15,153.19Z"/><path class="cls-7" d="M1219,270.59V197.87a6.2,6.2,0,0,0-6.2-6.2H1097.05a3.53,3.53,0,0,0-3.54,3.54v5.64a3.44,3.44,0,0,0,2,3.13c27.24,12.37,55.22,33.73,76.53,69.75a6.2,6.2,0,0,0,5.35,3.06h35.41A6.2,6.2,0,0,0,1219,270.59Z"/><path class="cls-7" d="M1194.23,333.42a4.46,4.46,0,0,0,4.09,3.67h73.11c2.35,0,4.26-2.3,4.26-5.14v-40.8c0-2.84-1.91-5.14-4.26-5.14h-89.18"/><path class="cls-10" d="M1185.39,287.13a1.68,1.68,0,0,0-1,.85,2.25,2.25,0,0,0,.09,2.24l.79,1.32c1.06,1.86,2.07,3.76,3,5.7s1.73,3.91,2.56,5.87,1.47,4,2.17,6,1.25,4.08,1.79,6.14,1,4.14,1.41,6.26a67.34,67.34,0,0,1,1.37,12.81l-.3.08q-3.13-12.3-7.12-24.36-1.93-6-4.1-12c-.73-2-1.46-4-2.24-5.94-.18-.5-.38-1-.56-1.49a3.23,3.23,0,0,1-.1-1.66,2.5,2.5,0,0,1,2.29-2.14Z"/><path class="cls-7" d="M1210.55,443.42h20.89a5.6,5.6,0,0,0,5.39-5.77V350.42a5.65,5.65,0,0,0-5.46-5.84h-26.46"/><path class="cls-10" d="M1205.86,347.57a3,3,0,0,0-2.17,1.51,4.47,4.47,0,0,0-.63,2.5,5.34,5.34,0,0,0,.2,1.26l.37,1.47.74,2.94c.9,3.93,1.75,7.88,2.42,11.86l.52,3,.44,3c.3,2,.56,4,.83,6,.48,4,.85,8,1.21,12s.51,8.05.64,12.08.22,8.06.11,12.09-.2,8.06-.44,12.09c-.15,2-.28,4-.48,6l-.31,3a2.07,2.07,0,0,0,.14,1.23,1.32,1.32,0,0,0,1,.77v.3a1.7,1.7,0,0,1-1.38-.79,2.64,2.64,0,0,1-.42-1.51l0-3c0-2,0-4-.08-6q-.11-6-.33-12-.45-12-1.39-24t-2.36-23.94c-.48-4-1-8-1.64-11.92l-.47-3a13.12,13.12,0,0,1-.3-3,5.37,5.37,0,0,1,1.12-2.86,3.54,3.54,0,0,1,2.71-1.37Z"/><path class="cls-7" d="M1208.52,558.91a10.29,10.29,0,0,0,10.29,10.28h85.46a10.29,10.29,0,0,0,10.29-10.28V462.19a10.29,10.29,0,0,0-10.29-10.28h-85.46"/><path class="cls-10" d="M1220.87,455.62a8.89,8.89,0,0,0-7.7,8.33,10.16,10.16,0,0,0,0,1.46l.1,1.68.21,3.35c.14,2.23.21,4.46.32,6.69.23,4.47.28,8.94.42,13.4l.14,13.4c0,4.46-.06,8.93-.14,13.39s-.2,8.94-.43,13.4c-.38,8.93-.93,17.86-2,26.8h-.3l-.15-53.59.07-26.8,0-6.69v-3.35a22.47,22.47,0,0,1,.14-3.37,10,10,0,0,1,3.09-5.93,9.09,9.09,0,0,1,6.18-2.47Z"/><path class="cls-7" d="M1208.52,610a5.67,5.67,0,0,0,5.68,5.67h57a5.67,5.67,0,0,0,5.68-5.67V585.71a5.67,5.67,0,0,0-5.68-5.67h-57"/><path class="cls-10" d="M1215.72,581a5.15,5.15,0,0,0-3.51,5.13l.06.33.07.48.11,1c.08.69.11,1.38.17,2.08.09,1.38.12,2.76.13,4.14a62.46,62.46,0,0,1-.57,8.3,36.68,36.68,0,0,1-2,8.3h-.3c-.13-5.53-.1-11.06-.15-16.6,0-2.77,0-5.5.08-8.32a5.82,5.82,0,0,1,5.89-5.18Z"/><path class="cls-7" d="M1208.52,644.89v15.92c0,2.3,2.59,4.17,5.77,4.17h18.82c3.19,0,5.78-1.87,5.78-4.17V630.68c0-2.3-2.59-4.16-5.78-4.16h-18.82"/><path class="cls-10" d="M1215.12,627.53a12.57,12.57,0,0,0-2.2,1.64,3.88,3.88,0,0,0-1.09,1.61,1.09,1.09,0,0,0,0,.55,1.62,1.62,0,0,0,.06.17s0,0,0,.12l0,.34c.09.92.12,1.84.13,2.76a27.76,27.76,0,0,1-.55,5.51,18.9,18.9,0,0,1-2,5.52h-.3c-.13-3.68-.1-7.35-.15-11l0-2.76a4.55,4.55,0,0,1,.18-1.44,3.73,3.73,0,0,1,.73-1.27,6.48,6.48,0,0,1,5.14-2Z"/><path class="cls-7" d="M1259,676.94h-44.66c-3.22,0-5.84,2.9-5.84,6.48V769c0,3.58,2.62,6.48,5.84,6.48H1259c3.23,0,5.84-2.9,5.84-6.48V683.42C1264.86,679.84,1262.25,676.94,1259,676.94Z"/><path class="cls-7" d="M1566.27,132.67h277a8.62,8.62,0,0,0,8.62-8.62V70.24a8.62,8.62,0,0,0-8.62-8.62h-277a8.62,8.62,0,0,0-8.63,8.62v53.81A8.62,8.62,0,0,0,1566.27,132.67Z"/><path class="cls-7" d="M1851.89,266.22V153.3a10.58,10.58,0,0,0-10.58-10.57H1678.85a10.58,10.58,0,0,0-10.58,10.57V266.22a10.58,10.58,0,0,0,10.58,10.57h162.46A10.58,10.58,0,0,0,1851.89,266.22Z"/><path class="cls-7" d="M1701.89,551.61h150.46a7.49,7.49,0,0,0,7.49-7.5V430.92a7.49,7.49,0,0,0-7.49-7.5H1701.89a7.5,7.5,0,0,0-7.5,7.5V544.11A7.5,7.5,0,0,0,1701.89,551.61Z"/><path class="cls-7" d="M1859.84,369.68a7.08,7.08,0,0,0-7.09-7.09h-47.56a7.09,7.09,0,0,0-7.09,7.09v35.78a7.09,7.09,0,0,0,7.09,7.09h47.56a7.08,7.08,0,0,0,7.09-7.09Z"/><path class="cls-7" d="M1784.82,404.32V352.81a8.23,8.23,0,0,0-8.24-8.23H1575a8.23,8.23,0,0,0-8.25,8.23v51.51a8.24,8.24,0,0,0,8.25,8.23h201.6A8.24,8.24,0,0,0,1784.82,404.32Z"/><path class="cls-7" d="M1574.51,51.56h111.73a8.15,8.15,0,0,0,8.15-8.15v-32a8.15,8.15,0,0,0-8.15-8.15H1574.51a8.15,8.15,0,0,0-8.15,8.15v32A8.15,8.15,0,0,0,1574.51,51.56Z"/><path class="cls-7" d="M1446.22,51.56h99.7a7.9,7.9,0,0,0,7.9-7.9V11.18a7.9,7.9,0,0,0-7.9-7.9h-99.7a7.9,7.9,0,0,0-7.9,7.9V43.66A7.9,7.9,0,0,0,1446.22,51.56Z"/><path class="cls-7" d="M1534.67,61.62H1344.11a9.29,9.29,0,0,0-9.29,9.29v52.46a9.29,9.29,0,0,0,9.29,9.3h190.56a9.3,9.3,0,0,0,9.3-9.3V70.91A9.29,9.29,0,0,0,1534.67,61.62Z"/><path class="cls-7" d="M1621.06,337.09h157.66a6.1,6.1,0,0,0,6.1-6.1V292.11a6.1,6.1,0,0,0-6.1-6.1H1621.06a6.1,6.1,0,0,0-6.1,6.1V331A6.1,6.1,0,0,0,1621.06,337.09Z"/><path class="cls-7" d="M1496.07,605.89v51.76a7.33,7.33,0,0,0,7.33,7.33h165.3a7.33,7.33,0,0,0,7.33-7.33V605.89a7.33,7.33,0,0,0-7.33-7.33H1503.4A7.33,7.33,0,0,0,1496.07,605.89Z"/><path class="cls-7" d="M1685.8,466.54a8.67,8.67,0,0,0-8.68-8.67H1465.8a8.67,8.67,0,0,0-8.67,8.67V498a8.67,8.67,0,0,0,8.67,8.67h211.32a8.67,8.67,0,0,0,8.68-8.67Z"/><rect class="cls-7" x="1565.09" y="423.42" width="119.44" height="24.25" rx="4.38"/><path class="cls-7" d="M1652.9,270.12V240.9a6.67,6.67,0,0,0-6.67-6.67H1514.89a6.68,6.68,0,0,0-6.68,6.67v29.22a6.67,6.67,0,0,0,6.68,6.67h131.34A6.67,6.67,0,0,0,1652.9,270.12Z"/><path class="cls-7" d="M1489.49,221.87a6.57,6.57,0,0,0,6.58-6.57V146.21a6.57,6.57,0,0,0-6.58-6.57h-69.14a6.57,6.57,0,0,0-6.57,6.57V215.3a6.57,6.57,0,0,0,6.57,6.57Z"/><path class="cls-7" d="M1347,240.38v90.56a6.15,6.15,0,0,0,6.15,6.15h136.81a6.15,6.15,0,0,0,6.15-6.15V240.38a6.15,6.15,0,0,0-6.15-6.15H1353.11A6.15,6.15,0,0,0,1347,240.38Z"/><path class="cls-7" d="M1602.18,331.53V291a5,5,0,0,0-5-5h-83.89a5,5,0,0,0-5,5v40.49a5,5,0,0,0,5,5h83.89A5,5,0,0,0,1602.18,331.53Z"/><path class="cls-7" d="M1685.8,544.39v-17a7.23,7.23,0,0,0-7.23-7.22H1398.31a7.22,7.22,0,0,0-7.22,7.22v17a7.22,7.22,0,0,0,7.22,7.22h280.26A7.23,7.23,0,0,0,1685.8,544.39Z"/><path class="cls-7" d="M1398.67,561.89a5.56,5.56,0,0,0-5.56,5.56V660.1a5.56,5.56,0,0,0,5.56,5.57H1478a5.57,5.57,0,0,0,5.57-5.57V567.45a5.56,5.56,0,0,0-5.57-5.56Z"/><path class="cls-7" d="M1381.31,587.16a7.12,7.12,0,0,0-7.12-7.12h-78.74a7.13,7.13,0,0,0-7.13,7.12v21.39a7.13,7.13,0,0,0,7.13,7.12h78.74a7.12,7.12,0,0,0,7.12-7.12Z"/><path class="cls-7" d="M1250.92,643v13.7a8.29,8.29,0,0,0,8.3,8.29H1373a8.29,8.29,0,0,0,8.29-8.29V634.81a8.29,8.29,0,0,0-8.29-8.29H1264"/><path class="cls-11" d="M1264.93,626.67a19.38,19.38,0,0,1-3.25,1.25c-.53.15-1.1.27-1.6.42a5.67,5.67,0,0,1-.62.21l-.58.24a8.47,8.47,0,0,0-3.41,3,8.07,8.07,0,0,0-1,2,7.6,7.6,0,0,0-.28,1.14,15.7,15.7,0,0,1-.25,1.63,23.37,23.37,0,0,1-2,6.49h-.3c-.06-2.16-.09-4.33-.1-6.49a18.37,18.37,0,0,1,.13-3.3,8.51,8.51,0,0,1,1.23-3.1,8.6,8.6,0,0,1,5.43-3.65,15.92,15.92,0,0,1,3.29-.16l3.25.08Z"/><path class="cls-7" d="M1381.31,459.3a7.52,7.52,0,0,0-7.52-7.52h-42.57a7.52,7.52,0,0,0-7.52,7.52V561.67a7.52,7.52,0,0,0,7.52,7.52h42.57a7.52,7.52,0,0,0,7.52-7.52Z"/><path class="cls-7" d="M1438.44,395.87H1400a8.91,8.91,0,0,0-8.91,8.9v93a8.91,8.91,0,0,0,8.91,8.9h38.44a8.91,8.91,0,0,0,8.91-8.9v-93A8.91,8.91,0,0,0,1438.44,395.87Z"/><rect class="cls-7" x="1457.13" y="348.46" width="98.1" height="98.03" rx="6.93"/><path class="cls-7" d="M1448,377.73V351.21a6.64,6.64,0,0,0-6.65-6.63h-188a6.64,6.64,0,0,0-6.64,6.63v26.52a6.64,6.64,0,0,0,6.64,6.63h188A6.64,6.64,0,0,0,1448,377.73Z"/><path class="cls-7" d="M1381.31,402.63a8.63,8.63,0,0,0-8.63-8.63H1255.4a8.63,8.63,0,0,0-8.64,8.63v32.16a8.64,8.64,0,0,0,8.64,8.63h117.28a8.63,8.63,0,0,0,8.63-8.63Z"/><path class="cls-7" d="M1186,51.56h229.51a6,6,0,0,0,6-6V9.25a6,6,0,0,0-6-6H1186a6,6,0,0,0-6,6V45.59A6,6,0,0,0,1186,51.56Z"/><path class="cls-7" d="M1191.69,182.73h73.53a11.61,11.61,0,0,0,11.62-11.61V73.23a11.62,11.62,0,0,0-11.62-11.61h-73.53a11.61,11.61,0,0,0-11.62,11.61v97.89A11.61,11.61,0,0,0,1191.69,182.73Z"/><path class="cls-7" d="M1232.68,197.52v18.12a5.86,5.86,0,0,0,5.86,5.85h156.87a5.85,5.85,0,0,0,5.85-5.85V197.52a5.85,5.85,0,0,0-5.85-5.85H1238.54A5.86,5.86,0,0,0,1232.68,197.52Z"/><path class="cls-7" d="M1318.38,180.76a5.32,5.32,0,0,0,5.32-5.32V66.93a5.32,5.32,0,0,0-5.32-5.31h-24.74a5.32,5.32,0,0,0-5.32,5.31V175.44a5.32,5.32,0,0,0,5.32,5.32Z"/><path class="cls-7" d="M1339.55,139.64h57a4.74,4.74,0,0,1,4.74,4.74V174.2a4.73,4.73,0,0,1-4.73,4.73h-57a4.74,4.74,0,0,1-4.74-4.74V144.38A4.73,4.73,0,0,1,1339.55,139.64Z"/><rect class="cls-7" x="1232.68" y="234.23" width="102.13" height="42.56" rx="7.31"/><path class="cls-7" d="M1293.28,286.23h36.56a5,5,0,0,1,5,5v40.39a5,5,0,0,1-5,5h-36.56a5,5,0,0,1-5-5v-40.4A5,5,0,0,1,1293.28,286.23Z"/><path class="cls-7" d="M1431.38,676.94H1284.85a8,8,0,0,0-8,8v81.54a8,8,0,0,0,8,8h146.53a8,8,0,0,0,8-8V684.94A8,8,0,0,0,1431.38,676.94Z"/><path class="cls-7" d="M1615.39,676H1461.5a8.64,8.64,0,0,0-8.65,8.64v80.26a8.65,8.65,0,0,0,8.65,8.65h153.89a8.65,8.65,0,0,0,8.65-8.65V684.59A8.64,8.64,0,0,0,1615.39,676Z"/><path class="cls-7" d="M1729.84,674.52h-81.32A12.53,12.53,0,0,0,1636,687.05v71.51a12.53,12.53,0,0,0,12.54,12.53h81.32a12.53,12.53,0,0,0,12.54-12.53V687.05A12.53,12.53,0,0,0,1729.84,674.52Z"/><path class="cls-7" d="M1708.64,51.56h131.79a2.08,2.08,0,0,0,1.44-3.59c-20.15-19.09-46.46-34.36-78.87-44.38a7.19,7.19,0,0,0-2.06-.31h-52.3a7,7,0,0,0-7,7V44.61A7,7,0,0,0,1708.64,51.56Z"/><path class="cls-7" d="M1859.84,73.43V178.62a5.15,5.15,0,0,0,5.15,5.14h20.94a5.15,5.15,0,0,0,5.15-5.14V165.15c0-34.05-9.42-65.83-28.12-92.7A1.72,1.72,0,0,0,1859.84,73.43Z"/><path class="cls-7" d="M1883.46,191.67h-16a7.61,7.61,0,0,0-7.62,7.6v69.92a7.61,7.61,0,0,0,7.62,7.6h16a7.61,7.61,0,0,0,7.62-7.6V199.27A7.61,7.61,0,0,0,1883.46,191.67Z"/><path class="cls-7" d="M1882.75,286h-76.33a8.32,8.32,0,0,0-8.32,8.31v49.46a8.32,8.32,0,0,0,8.32,8.32h76.33a8.32,8.32,0,0,0,8.33-8.32V294.32A8.32,8.32,0,0,0,1882.75,286Z"/><path class="cls-7" d="M1885.44,362.59h-9a5.63,5.63,0,0,0-5.64,5.63V547.51a5.63,5.63,0,0,0,5.64,5.64h9a5.64,5.64,0,0,0,5.64-5.64V368.22A5.64,5.64,0,0,0,1885.44,362.59Z"/><path class="cls-7" d="M1885,563.64H1635a6.08,6.08,0,0,0-6.08,6.07V582.4a6.08,6.08,0,0,0,6.08,6.07h250a6.08,6.08,0,0,0,6.08-6.07V569.71A6.08,6.08,0,0,0,1885,563.64Z"/><path class="cls-7" d="M1879.51,597.86h-69.84a11.56,11.56,0,0,0-11.57,11.56v44A11.57,11.57,0,0,0,1809.67,665h69.84a11.57,11.57,0,0,0,11.57-11.56v-44A11.56,11.56,0,0,0,1879.51,597.86Z"/><path class="cls-7" d="M1878.82,673.89H1766.57a12.24,12.24,0,0,0-12.25,12.24v73.35a12.24,12.24,0,0,0,12.25,12.24h112.25a12.25,12.25,0,0,0,12.26-12.24V686.13A12.25,12.25,0,0,0,1878.82,673.89Z"/><path class="cls-7" d="M1775.21,665a7.68,7.68,0,0,0,7.68-7.68v-51a7.68,7.68,0,0,0-7.68-7.69h-76.84a7.69,7.69,0,0,0-7.69,7.69v51a7.68,7.68,0,0,0,7.69,7.68Z"/><rect class="cls-7" x="1496.07" y="563.64" width="124.17" height="24.83" rx="3.57"/><path class="cls-7" d="M1644.76,142.46H1516.35a8.14,8.14,0,0,0-8.14,8.14v62.76a8.14,8.14,0,0,0,8.14,8.13h128.41a8.13,8.13,0,0,0,8.14-8.13V150.6A8.13,8.13,0,0,0,1644.76,142.46Z"/></g></g><g id="DecorR"><path class="cls-13" d="M1781.55.51,1920,0V164.59H1896A174.92,174.92,0,0,0,1781.55.51Z"/><path class="cls-14" d="M1799.67.51c54.8,16.89,108.08,91.92,105.51,164.08H1896A174.92,174.92,0,0,0,1781.55.51Z"/><path class="cls-15" d="M1904.57,164.59c-.58-4.31-1.18-8.57-2-12.79s-1.57-8.41-2.53-12.54-2-8.25-3.19-12.3-2.39-8.09-3.8-12.06c-.7-2-1.44-4-2.19-5.91s-1.47-3.93-2.26-5.87q-2.37-5.84-5.11-11.48a201.06,201.06,0,0,0-11.93-22c-2.15-3.58-4.43-7.09-6.81-10.51-1.2-1.71-2.42-3.41-3.67-5.08l-3.8-5a199.66,199.66,0,0,0-16.62-18.76c-11.94-11.73-25.43-22-41.13-29.41l.2-.67a107.07,107.07,0,0,1,23.71,10.54,139.38,139.38,0,0,1,20.9,15.41,179.4,179.4,0,0,1,33.16,39.8,194.21,194.21,0,0,1,21,47.39A178.9,178.9,0,0,1,1904,138.7a171.26,171.26,0,0,1,1.59,25.9Z"/><rect class="cls-13" x="1905.27" y="164.59" width="14.76" height="620.05"/><polygon class="cls-14" points="1905.27 784.64 1895.96 779.77 1895.96 164.59 1905.27 164.59 1905.27 784.64"/><line class="cls-16" x1="1865.36" y1="39.36" x2="1900.62" y2="0.51"/><line class="cls-16" x1="1885.73" y1="68.12" x2="1919.54" y2="51.22"/><line class="cls-16" x1="1835.93" y1="13.84" x2="1843.41" y2="2.39"/><line class="cls-16" x1="1901.24" y1="108.15" x2="1919.19" y2="104.86"/><line class="cls-16" x1="1905.27" y1="164.59" x2="1919.54" y2="164.59"/><line class="cls-16" x1="1905.93" y1="212.76" x2="1919.54" y2="212.76"/><line class="cls-16" x1="1905.93" y1="267.12" x2="1919.54" y2="267.12"/><line class="cls-16" x1="1905.27" y1="317.72" x2="1919.54" y2="317.72"/><line class="cls-16" x1="1905.93" y1="375.2" x2="1919.54" y2="375.2"/><line class="cls-16" x1="1905.27" y1="422.06" x2="1919.54" y2="422.06"/><line class="cls-16" x1="1905.27" y1="474.62" x2="1919.19" y2="474.62"/><line class="cls-16" x1="1905.27" y1="523.27" x2="1919.54" y2="522.65"/><line class="cls-16" x1="1905.27" y1="568.25" x2="1919.19" y2="569.82"/><line class="cls-16" x1="1905.27" y1="629.85" x2="1919.19" y2="629.85"/><line class="cls-16" x1="1905.27" y1="686.96" x2="1917.67" y2="686.96"/><line class="cls-16" x1="1905.27" y1="739.44" x2="1917.15" y2="738.48"/><path class="cls-17" d="M1904.92,784.64l-.9-19.38-.68-19.39L1902,707.11l-1-38.77c-.33-12.92-.49-25.85-.75-38.77l-.35-19.38-.22-19.39-.43-38.76-.32-77.54c.11-25.84.12-51.69.32-77.53l.41-38.77.22-19.38.35-19.38c.25-12.93.4-25.85.74-38.77l1-38.77,1.33-38.77.67-19.38.89-19.38h.7l.39,310.13-.31,310.14Z"/></g><g id="DecorL"><path class="cls-13" d="M138.38.51.38,0V164.59H24A174.9,174.9,0,0,1,138.38.51Z"/><path class="cls-17" d="M120.26.51C65.46,17.4,12.18,92.43,14.74,164.59H24A174.9,174.9,0,0,1,138.38.51Z"/><rect class="cls-13" x="0.38" y="164.59" width="14.27" height="620.05"/><polygon class="cls-17" points="14.65 784.64 23.97 779.23 23.97 164.59 14.65 164.59 14.65 784.64"/><path class="cls-18" d="M59.32,41.55c-3.63-3.13-7.12-6.4-10.56-9.72S42,25.13,38.6,21.73,32,14.85,28.75,11.32,22.35,4.22,19.31.51c3.63,3.13,7.12,6.4,10.56,9.72s6.81,6.7,10.16,10.1,6.62,6.88,9.84,10.42S56.28,37.84,59.32,41.55Z"/><path class="cls-18" d="M38.53,70.29c-3.36-1.22-6.64-2.62-9.88-4.07s-6.45-3-9.64-4.57-6.33-3.24-9.44-5S3.38,53.18.38,51.22c3.37,1.21,6.65,2.61,9.89,4.07s6.45,3,9.64,4.57,6.33,3.23,9.43,5S35.54,68.33,38.53,70.29Z"/><path class="cls-18" d="M87.57,16a27.53,27.53,0,0,1-3.5-3.12C83,11.73,82,10.58,81,9.38s-1.88-2.45-2.73-3.74A27.66,27.66,0,0,1,76,1.54a28.33,28.33,0,0,1,3.51,3.12c1.08,1.11,2.11,2.26,3.07,3.46s1.87,2.45,2.73,3.75A27.55,27.55,0,0,1,87.57,16Z"/><path class="cls-18" d="M22,109.71a38.36,38.36,0,0,1-5.49-.46q-2.71-.39-5.37-1t-5.27-1.43a38.27,38.27,0,0,1-5.14-2,38.47,38.47,0,0,1,5.49.45q2.7.39,5.37,1t5.26,1.43A37.09,37.09,0,0,1,22,109.71Z"/><path class="cls-18" d="M14.65,164.59a16,16,0,0,1-3.41.79,28,28,0,0,1-3.42.21,26,26,0,0,1-3.41-.21A16.26,16.26,0,0,1,1,164.59a15.63,15.63,0,0,1,3.42-.78,26.62,26.62,0,0,1,6.83,0A16.63,16.63,0,0,1,14.65,164.59Z"/><path class="cls-18" d="M14,212.76a16.08,16.08,0,0,1-3.4.79,27.87,27.87,0,0,1-3.41.21,24.25,24.25,0,0,1-3.4-.21,16.17,16.17,0,0,1-3.41-.79A16.78,16.78,0,0,1,3.79,212a25.88,25.88,0,0,1,3.4-.22,27.89,27.89,0,0,1,3.41.22A16.69,16.69,0,0,1,14,212.76Z"/><path class="cls-18" d="M14,267.12a16.05,16.05,0,0,1-3.4.78,26.46,26.46,0,0,1-6.81,0,15.54,15.54,0,0,1-3.41-.78,16.17,16.17,0,0,1,3.41-.79,27.71,27.71,0,0,1,6.81,0A16.08,16.08,0,0,1,14,267.12Z"/><path class="cls-18" d="M14.65,317.72a17.36,17.36,0,0,1-3.56.79,30.53,30.53,0,0,1-3.57.21A26.72,26.72,0,0,1,4,318.51a17.6,17.6,0,0,1-3.57-.79A18.27,18.27,0,0,1,4,316.94a28.51,28.51,0,0,1,3.57-.22,30.54,30.54,0,0,1,3.57.22A18,18,0,0,1,14.65,317.72Z"/><path class="cls-18" d="M14,375.2a16.08,16.08,0,0,1-3.4.79,27.87,27.87,0,0,1-3.41.21,25.86,25.86,0,0,1-3.4-.21,16.17,16.17,0,0,1-3.41-.79,15.54,15.54,0,0,1,3.41-.78,26.46,26.46,0,0,1,6.81,0A16.69,16.69,0,0,1,14,375.2Z"/><path class="cls-18" d="M14.65,422.06a17.33,17.33,0,0,1-3.56.78,28.51,28.51,0,0,1-3.57.22A30.53,30.53,0,0,1,4,422.85a17.6,17.6,0,0,1-3.57-.79A17.6,17.6,0,0,1,4,421.27a30.53,30.53,0,0,1,3.57-.21,28.51,28.51,0,0,1,3.57.22A17.33,17.33,0,0,1,14.65,422.06Z"/><path class="cls-18" d="M14.65,474.62a17.33,17.33,0,0,1-3.47.78,29,29,0,0,1-3.48.22,27.1,27.1,0,0,1-3.48-.22,17.42,17.42,0,0,1-3.48-.78,16.79,16.79,0,0,1,3.48-.79,25.4,25.4,0,0,1,3.48-.21,29,29,0,0,1,3.48.21A16.7,16.7,0,0,1,14.65,474.62Z"/><path class="cls-18" d="M14.65,523.27a17.43,17.43,0,0,1-3.6.63,30.38,30.38,0,0,1-3.57.06,28.45,28.45,0,0,1-3.56-.37,17.84,17.84,0,0,1-3.54-.94A17,17,0,0,1,4,522,28.36,28.36,0,0,1,7.56,522a28.45,28.45,0,0,1,3.56.37A17.57,17.57,0,0,1,14.65,523.27Z"/><path class="cls-18" d="M14.65,568.25a16.22,16.22,0,0,1-3.39,1.17,27.09,27.09,0,0,1-3.45.61,29.26,29.26,0,0,1-3.51.18,17.48,17.48,0,0,1-3.56-.39,16.86,16.86,0,0,1,3.39-1.18,28.94,28.94,0,0,1,3.45-.6,27.33,27.33,0,0,1,3.51-.17A16.71,16.71,0,0,1,14.65,568.25Z"/><path class="cls-18" d="M14.65,629.85a17.33,17.33,0,0,1-3.47.78,27.63,27.63,0,0,1-7,0,16.14,16.14,0,0,1-3.48-.78,16.79,16.79,0,0,1,3.48-.79,27.09,27.09,0,0,1,3.48-.21,29,29,0,0,1,3.48.21A16.7,16.7,0,0,1,14.65,629.85Z"/><path class="cls-18" d="M14.65,687a13.42,13.42,0,0,1-3.1.78,21.44,21.44,0,0,1-3.1.22,23.18,23.18,0,0,1-3.1-.21,13.72,13.72,0,0,1-3.1-.79,13.72,13.72,0,0,1,3.1-.79,23.18,23.18,0,0,1,3.1-.21,21.44,21.44,0,0,1,3.1.22A13.42,13.42,0,0,1,14.65,687Z"/><path class="cls-18" d="M14.65,739.44a13.57,13.57,0,0,1-3.16.53,23.34,23.34,0,0,1-3.13,0,23.55,23.55,0,0,1-3.09-.47,13.64,13.64,0,0,1-3-1,13.65,13.65,0,0,1,3.17-.53,21.64,21.64,0,0,1,3.12,0,23.05,23.05,0,0,1,3.09.47A13.64,13.64,0,0,1,14.65,739.44Z"/><path class="cls-15" d="M14.31,164.65c-2.61-17.31-1.35-35.29,2.81-52.52.51-2.16,1.05-4.32,1.64-6.46.3-1.07.63-2.13,1-3.19s.66-2.12,1-3.17q2.1-6.33,4.62-12.52A188.68,188.68,0,0,1,37.55,63,182.24,182.24,0,0,1,53.34,41.47q4.42-5,9.2-9.73c1.59-1.56,3.2-3.11,4.88-4.58s3.39-2.89,5.13-4.29A124.23,124.23,0,0,1,83.36,15,129.2,129.2,0,0,1,95,8.39,87.74,87.74,0,0,1,120.07.18l.21.67A105.88,105.88,0,0,0,96.9,11.62,139.61,139.61,0,0,0,76.24,27,178.65,178.65,0,0,0,43.51,66.7a193.2,193.2,0,0,0-21,47A181.1,181.1,0,0,0,17,138.9a171.86,171.86,0,0,0-1.9,25.74Z"/><path class="cls-15" d="M14.21,784.86C11.39,733.17,9.92,681.49,8.93,629.8l-.4-19.39L8.28,591l-.47-38.77-.35-77.53c.13-25.85.16-51.69.38-77.54l.49-38.76L8.59,339,9,319.66C10,268,11.47,216.28,14.3,164.59v0a.4.4,0,0,1,.42-.38.42.42,0,0,1,.38.4l.35,310.14L15,784.86a.39.39,0,0,1-.4.4.39.39,0,0,1-.39-.37Z"/></g></g></g></g></svg>