<svg xmlns="http://www.w3.org/2000/svg" width="1920.58" height="1080.4" viewBox="0 0 1920.58 1080.4">
  <defs>
    <style>
      .a {
        fill: url(#a);
      }

      .b {
        fill: none;
        stroke: #736357;
        stroke-miterlimit: 10;
      }

      .c {
        fill: url(#b);
      }

      .d {
        fill: #f2f2f2;
      }

      .e {
        fill: #fff;
      }
    </style>
    <linearGradient id="a" x1="0.29" y1="970" x2="1920.29" y2="970" gradientUnits="userSpaceOnUse">
      <stop offset="0" stop-color="#d8c7ba"/>
      <stop offset="0.21" stop-color="#c7b6a9"/>
      <stop offset="0.38" stop-color="#c0afa2"/>
      <stop offset="0.99" stop-color="#9c8c85"/>
    </linearGradient>
    <linearGradient id="b" x1="0.29" y1="430" x2="1920.29" y2="430" gradientUnits="userSpaceOnUse">
      <stop offset="0" stop-color="#e5e5e3"/>
      <stop offset="0.55" stop-color="#e4e3df"/>
      <stop offset="0.99" stop-color="#c6c3bd"/>
    </linearGradient>
  </defs>
  <g>
    <g>
      <rect class="a" x="0.29" y="860" width="1920" height="220"/>
      <g>
        <line class="b" x1="1920.29" y1="914" x2="1837.9" y2="860"/>
        <line class="b" x1="1920.29" y1="1002" x2="1722.51" y2="860"/>
        <line class="b" x1="1885.29" y1="1080" x2="1592.69" y2="860"/>
        <line class="b" x1="1722.29" y1="1080" x2="1470.09" y2="860"/>
        <line class="b" x1="1559.29" y1="1080" x2="1363.36" y2="860"/>
        <line class="b" x1="1403.29" y1="1080" x2="1256.62" y2="860"/>
        <line class="b" x1="1245.29" y1="1080" x2="1149.88" y2="860"/>
        <line class="b" x1="1085.29" y1="1080" x2="1044.59" y2="860"/>
        <line class="b" x1="927.29" y1="1080" x2="936.41" y2="860"/>
        <line class="b" x1="766.29" y1="1080" x2="828.23" y2="860"/>
        <line class="b" x1="609.29" y1="1080" x2="721.5" y2="860"/>
        <line class="b" x1="447.29" y1="1080" x2="619.09" y2="860"/>
        <line class="b" x1="287.29" y1="1080" x2="510.91" y2="860"/>
        <line class="b" x1="134.29" y1="1080" x2="407.06" y2="860"/>
        <line class="b" x1="0.29" y1="1059" x2="280.13" y2="860"/>
        <line class="b" x1="0.29" y1="959" x2="140.21" y2="860"/>
        <line class="b" x1="0.79" y1="874.5" x2="23.38" y2="860"/>
        <g>
          <line class="b" x1="1901.49" y1="860" x2="1919.79" y2="870.5"/>
          <line class="b" x1="1787.41" y1="860" x2="1919.79" y2="955.5"/>
          <line class="b" x1="1667.84" y1="860" x2="1919.79" y2="1053.5"/>
          <line class="b" x1="1539.5" y1="860" x2="1802.79" y2="1079.5"/>
          <line class="b" x1="1643.79" y1="1079.5" x2="1423.23" y2="860"/>
          <line class="b" x1="1482.79" y1="1079.5" x2="1314.64" y2="860"/>
          <line class="b" x1="1324.79" y1="1079.5" x2="1206.04" y2="860"/>
          <line class="b" x1="1166.79" y1="1079.5" x2="1096.35" y2="860"/>
          <line class="b" x1="1003.79" y1="1079.5" x2="992.14" y2="860"/>
          <line class="b" x1="844.79" y1="1078.5" x2="881.35" y2="860"/>
          <line class="b" x1="681.79" y1="1078.5" x2="773.86" y2="860"/>
          <line class="b" x1="525.79" y1="1079.5" x2="670.75" y2="860"/>
          <line class="b" x1="368.79" y1="1079.5" x2="561.05" y2="860"/>
          <line class="b" x1="209.79" y1="1079.5" x2="454.65" y2="860"/>
          <line class="b" x1="52.79" y1="1079.5" x2="339.48" y2="860"/>
          <line class="b" x1="0.79" y1="1004.5" x2="209.79" y2="860"/>
          <line class="b" x1="0.79" y1="914.5" x2="83.9" y2="860"/>
        </g>
      </g>
    </g>
    <g>
      <rect class="c" x="0.29" width="1920" height="860"/>
      <rect class="d" x="0.29" y="820" width="1920" height="40"/>
      <rect class="e" x="0.29" y="819.5" width="1920" height="10.5"/>
    </g>
  </g>
</svg>
