<svg xmlns="http://www.w3.org/2000/svg" xmlns:xlink="http://www.w3.org/1999/xlink" width="1920" height="1080.26" viewBox="0 0 1920 1080.26">
  <defs>
    <style>
      .a {
        fill: url(#a);
      }

      .b {
        fill: #8e673c;
      }

      .c {
        fill: url(#b);
      }

      .d {
        fill: #68482f;
      }

      .e, .f {
        fill: none;
        stroke: #000;
        stroke-miterlimit: 10;
      }

      .f {
        stroke-width: 2px;
      }
    </style>
    <linearGradient id="a" x1="960" y1="-227.7" x2="960" y2="60" gradientTransform="translate(0 1020)" gradientUnits="userSpaceOnUse">
      <stop offset="0.23" stop-color="#b3855a"/>
      <stop offset="0.28" stop-color="#b8895c"/>
      <stop offset="0.46" stop-color="#c79762"/>
      <stop offset="0.68" stop-color="#d09f66"/>
      <stop offset="1" stop-color="#d3a267"/>
    </linearGradient>
    <linearGradient id="b" x1="960" y1="3120" x2="960" y2="2328" gradientTransform="matrix(1, 0, 0, -1, 0, 3120)" gradientUnits="userSpaceOnUse">
      <stop offset="0" stop-color="#a58065"/>
      <stop offset="0.43" stop-color="#966b4e"/>
      <stop offset="0.62" stop-color="#8b6246"/>
      <stop offset="0.96" stop-color="#6c4b32"/>
      <stop offset="1" stop-color="#68482f"/>
    </linearGradient>
  </defs>
  <g>
    <rect class="a" y="792.3" width="1920" height="287.7"/>
    <g>
      <g>
        <polygon class="b" points="95.94 863 0 827.7 95.94 792 192 827.7 95.94 863"/>
        <polygon class="b" points="95.94 934 0 898.7 95.94 863 192 898.7 95.94 934"/>
        <polygon class="b" points="95.94 1005 0 969.7 95.94 934 192 969.7 95.94 1005"/>
        <polygon class="b" points="95.94 1080 0 1042.71 95.94 1005 192 1042.71 95.94 1080"/>
      </g>
      <g>
        <polygon class="b" points="287.94 863.15 192 827.85 287.94 792.15 384 827.85 287.94 863.15"/>
        <polygon class="b" points="287.94 934.15 192 898.85 287.94 863.15 384 898.85 287.94 934.15"/>
        <polygon class="b" points="287.94 1005.15 192 969.85 287.94 934.15 384 969.85 287.94 1005.15"/>
        <polygon class="b" points="287.94 1080.15 192 1042.86 287.94 1005.15 384 1042.86 287.94 1080.15"/>
      </g>
      <g>
        <polygon class="b" points="479.94 863.08 384 827.77 479.94 792.08 576 827.77 479.94 863.08"/>
        <polygon class="b" points="479.94 934.08 384 898.77 479.94 863.08 576 898.77 479.94 934.08"/>
        <polygon class="b" points="479.94 1005.08 384 969.77 479.94 934.08 576 969.77 479.94 1005.08"/>
        <polygon class="b" points="479.94 1080.08 384 1042.78 479.94 1005.08 576 1042.78 479.94 1080.08"/>
      </g>
      <g>
        <polygon class="b" points="671.94 863.23 576 827.92 671.94 792.23 768 827.92 671.94 863.23"/>
        <polygon class="b" points="671.94 934.23 576 898.92 671.94 863.23 768 898.92 671.94 934.23"/>
        <polygon class="b" points="671.94 1005.23 576 969.92 671.94 934.23 768 969.92 671.94 1005.23"/>
        <polygon class="b" points="671.94 1080.22 576 1042.93 671.94 1005.23 768 1042.93 671.94 1080.22"/>
      </g>
      <g>
        <polygon class="b" points="863.94 863.04 768 827.74 863.94 792.04 960 827.74 863.94 863.04"/>
        <polygon class="b" points="863.94 934.04 768 898.74 863.94 863.04 960 898.74 863.94 934.04"/>
        <polygon class="b" points="863.94 1005.04 768 969.74 863.94 934.04 960 969.74 863.94 1005.04"/>
        <polygon class="b" points="863.94 1080.04 768 1042.75 863.94 1005.04 960 1042.75 863.94 1080.04"/>
      </g>
      <g>
        <polygon class="b" points="1055.94 863.19 960 827.88 1055.94 792.19 1152 827.88 1055.94 863.19"/>
        <polygon class="b" points="1055.94 934.19 960 898.88 1055.94 863.19 1152 898.88 1055.94 934.19"/>
        <polygon class="b" points="1055.94 1005.19 960 969.88 1055.94 934.19 1152 969.88 1055.94 1005.19"/>
        <polygon class="b" points="1055.94 1080.19 960 1042.9 1055.94 1005.19 1152 1042.9 1055.94 1080.19"/>
      </g>
      <g>
        <polygon class="b" points="1247.94 863.11 1152 827.81 1247.94 792.11 1344 827.81 1247.94 863.11"/>
        <polygon class="b" points="1247.94 934.11 1152 898.81 1247.94 863.11 1344 898.81 1247.94 934.11"/>
        <polygon class="b" points="1247.94 1005.11 1152 969.81 1247.94 934.11 1344 969.81 1247.94 1005.11"/>
        <polygon class="b" points="1247.94 1080.11 1152 1042.82 1247.94 1005.11 1344 1042.82 1247.94 1080.11"/>
      </g>
      <g>
        <polygon class="b" points="1439.94 863.26 1344 827.96 1439.94 792.26 1536 827.96 1439.94 863.26"/>
        <polygon class="b" points="1439.94 934.26 1344 898.96 1439.94 863.26 1536 898.96 1439.94 934.26"/>
        <polygon class="b" points="1439.94 1005.26 1344 969.96 1439.94 934.26 1536 969.96 1439.94 1005.26"/>
        <polygon class="b" points="1439.94 1080.26 1344 1042.97 1439.94 1005.26 1536 1042.97 1439.94 1080.26"/>
      </g>
      <g>
        <polygon class="b" points="1631.94 863.11 1536 827.81 1631.94 792.11 1728 827.81 1631.94 863.11"/>
        <polygon class="b" points="1631.94 934.11 1536 898.81 1631.94 863.11 1728 898.81 1631.94 934.11"/>
        <polygon class="b" points="1631.94 1005.11 1536 969.81 1631.94 934.11 1728 969.81 1631.94 1005.11"/>
        <polygon class="b" points="1631.94 1080.11 1536 1042.82 1631.94 1005.11 1728 1042.82 1631.94 1080.11"/>
      </g>
      <g>
        <polygon class="b" points="1823.94 863.26 1728 827.96 1823.94 792.26 1920 827.96 1823.94 863.26"/>
        <polygon class="b" points="1823.94 934.26 1728 898.96 1823.94 863.26 1920 898.96 1823.94 934.26"/>
        <polygon class="b" points="1823.94 1005.26 1728 969.96 1823.94 934.26 1920 969.96 1823.94 1005.26"/>
        <polygon class="b" points="1823.94 1080.26 1728 1042.97 1823.94 1005.26 1920 1042.97 1823.94 1080.26"/>
      </g>
    </g>
    <rect class="c" width="1920" height="792"/>
    <g>
      <rect class="d" y="761" width="1920" height="31"/>
      <line class="e" y1="760.5" x2="1920" y2="760.5"/>
      <line class="f" y1="792.5" x2="1920" y2="792.5"/>
    </g>
  </g>
</svg>
