<svg width="19" height="19" viewBox="0 0 19 19" fill="none" xmlns="http://www.w3.org/2000/svg">
<path fill-rule="evenodd" clip-rule="evenodd" d="M17.5217 10.2284C18.074 10.2284 18.5217 9.78073 18.5217 9.22845C18.5217 8.67616 18.074 8.22845 17.5217 8.22845L10.5216 8.22845L10.5216 1.22853C10.5216 0.676242 10.0739 0.228527 9.52165 0.228527C8.96936 0.228526 8.52165 0.676242 8.52165 1.22853L8.52165 8.22845L1.5217 8.22845C0.969418 8.22845 0.521702 8.67616 0.521702 9.22845C0.521702 9.78073 0.969418 10.2284 1.5217 10.2284L8.52165 10.2284L8.52165 17.2285C8.52165 17.7808 8.96936 18.2285 9.52165 18.2285C10.0739 18.2285 10.5216 17.7808 10.5216 17.2285L10.5216 10.2284H17.5217Z" fill="#333333"/>
</svg>
