<svg width="16" height="22" viewBox="0 0 16 22" fill="none" xmlns="http://www.w3.org/2000/svg">
<path d="M11.9663 19.6446C12.2117 19.5356 12.403 19.3325 12.4971 19.081C12.5912 18.8295 12.5802 18.5507 12.4666 18.3074L10.1268 13.2978L14.0429 13.1295C14.4546 13.1118 14.8132 12.8435 14.9463 12.4536C15.0795 12.0638 14.9599 11.6321 14.6451 11.3663L2.64507 1.23588C2.3477 0.984835 1.93169 0.929118 1.57874 1.09306C1.22578 1.25701 1 1.61083 1 2V17.4561C1 17.863 1.24658 18.2293 1.62357 18.3825C2.00057 18.5357 2.43278 18.4451 2.71661 18.1535L5.42888 15.3669L7.79493 20.4238C8.0257 20.917 8.60869 21.1349 9.1064 20.914L11.9663 19.6446Z" stroke="black" stroke-width="2" stroke-linejoin="round"/>
</svg>
