<svg width="92" height="112" viewBox="0 0 92 112" fill="none" xmlns="http://www.w3.org/2000/svg">
<g filter="url(#filter0_d_301_3133)">
<rect x="40" y="25" width="32" height="32" rx="16" fill="white"/>
<path fill-rule="evenodd" clip-rule="evenodd" d="M58 33C58.5523 33 59 33.4477 59 34V35H62C62.5523 35 63 35.4477 63 36C63 36.5523 62.5523 37 62 37H61V46C61 47.6569 59.8807 49 58.5 49H53.5C52.1193 49 51 47.6569 51 46V37H50C49.4477 37 49 36.5523 49 36C49 35.4477 49.4477 35 50 35H53V34C53 33.4477 53.4477 33 54 33H58ZM54 39C53.4872 39 53.0645 39.386 53.0067 39.8834L53 40V44C53 44.5523 53.4477 45 54 45C54.5128 45 54.9355 44.614 54.9933 44.1166L55 44V40C55 39.4477 54.5523 39 54 39ZM58 39C57.4872 39 57.0645 39.386 57.0067 39.8834L57 40V44C57 44.5523 57.4477 45 58 45C58.5128 45 58.9355 44.614 58.9933 44.1166L59 44V40C59 39.4477 58.5523 39 58 39Z" fill="#D22D25"/>
</g>
<defs>
<filter id="filter0_d_301_3133" x="0" y="0" width="112" height="112" filterUnits="userSpaceOnUse" color-interpolation-filters="sRGB">
<feFlood flood-opacity="0" result="BackgroundImageFix"/>
<feColorMatrix in="SourceAlpha" type="matrix" values="0 0 0 0 0 0 0 0 0 0 0 0 0 0 0 0 0 0 127 0" result="hardAlpha"/>
<feOffset dy="15"/>
<feGaussianBlur stdDeviation="20"/>
<feColorMatrix type="matrix" values="0 0 0 0 0 0 0 0 0 0 0 0 0 0 0 0 0 0 0.1 0"/>
<feBlend mode="normal" in2="BackgroundImageFix" result="effect1_dropShadow_301_3133"/>
<feBlend mode="normal" in="SourceGraphic" in2="effect1_dropShadow_301_3133" result="shape"/>
</filter>
</defs>
</svg>
