<svg width="336" height="190" viewBox="0 0 336 190" fill="none" xmlns="http://www.w3.org/2000/svg">
<path d="M0 0V190H28.8539H89.2584H336V0H0Z" fill="url(#paint0_linear_171_1853)"/>
<path d="M336 137.926H0V133.528H336V137.926Z" fill="#925C00"/>
<g clip-path="url(#clip0_171_1853)">
<path d="M336 137.926H0V209.528H336V137.926Z" fill="#FFEED1"/>
<line x1="57.1638" y1="176.869" x2="175.061" y2="176.869" stroke="#925C00" stroke-width="0.577604" stroke-linecap="round"/>
<line x1="13.5886" y1="162.795" x2="131.486" y2="162.795" stroke="#925C00" stroke-width="0.577604" stroke-linecap="round"/>
<line x1="164.789" y1="162.795" x2="282.686" y2="162.795" stroke="#925C00" stroke-width="0.577604" stroke-linecap="round"/>
<line x1="210.114" y1="148.72" x2="328.011" y2="148.72" stroke="#925C00" stroke-width="0.577604" stroke-linecap="round"/>
<line x1="72.9138" y1="148.72" x2="190.811" y2="148.72" stroke="#925C00" stroke-width="0.577604" stroke-linecap="round"/>
</g>
<g clip-path="url(#clip1_171_1853)">
<path d="M0 0V190H28.8539H89.2584H336V0H0Z" fill="#DEEFFF"/>
<ellipse cx="156.023" cy="122.025" rx="86.6046" ry="87.0628" fill="url(#paint1_linear_171_1853)"/>
<path d="M73.8086 148.071L97.9807 165.338L272.927 150.496L256.329 119.6L248.61 114.507L235.149 104.807L231.964 105.825L231.144 103.982C231.176 103.966 231.289 103.904 231.482 103.788C231.675 103.672 231.627 103.449 231.578 103.352L230.662 102.187C230.742 102.107 230.932 101.906 231.048 101.751C231.163 101.596 230.999 101.395 230.903 101.314L222.894 95.2516L219.42 96.5611L216.959 95.009L208.806 68.1869L203.354 63.3366L200.121 65.4707L198.963 64.3067L198.239 64.7432L197.564 63.9672L195.103 65.6648C194.878 64.8725 194.399 63.1814 194.283 62.7546C194.167 62.3278 193.72 62.5121 193.511 62.6576L193.029 61.251L192.884 61.2995L193.077 61.8815L192.884 61.9785L194.042 66.1983L193.559 66.4408L193.704 66.7803L193.077 67.1684L192.884 66.1013L189.941 63.4821L189.651 63.5791L189.844 65.4222L188.3 64.0157L187.866 64.3552L187.48 64.0642L185.116 65.4222C185.036 64.8402 184.875 63.6276 184.875 63.4336C184.798 63.3172 184.714 63.3851 184.682 63.4336L184.875 65.6163L184.489 65.8588L184.73 68.0414H184.489L187.77 97.6767L182.993 95.7366L185.936 94.136L182.8 92.3899L185.647 90.8378L182.752 89.1402L185.357 87.6366L182.655 86.036L185.019 84.6779L182.655 83.0288L184.73 81.7192L182.511 80.2641L184.489 78.9546L182.366 77.4025L184.103 76.1899L182.221 74.7348L183.765 73.5707L182.028 72.1157L183.476 70.9516L181.835 69.5935L183.138 68.4779L181.546 67.2654L182.897 66.1498L181.304 64.8887L182.655 63.7731L181.256 62.5606L182.269 61.542L180.918 60.3779L181.98 59.3109L180.725 58.1953C180.918 58.0175 181.449 57.4678 182.028 56.6917C182.607 55.9157 182.141 55.3013 181.835 55.0911C181.803 55.075 181.7 55.0038 181.546 54.8486C181.7 54.7322 181.674 54.5414 181.642 54.4606L181.449 54.0726L181.16 54.3636L180.629 53.9756L181.256 53.248L180.146 52.278L181.063 51.4049L179.905 50.3863L180.822 49.5133L179.809 48.4947L180.581 47.7187L179.616 46.8941L180.388 46.0696L179.471 45.148L180.243 44.3235L179.326 43.4019L180.002 42.7714L179.181 41.8498L179.857 41.1708L178.892 40.2007L179.519 39.5702L178.747 38.7456L179.471 38.0181L178.603 37.0965L179.326 36.369L178.506 35.5444L179.23 34.7199L179.037 34.4774L175.997 31.6157L175.466 25.0678L169.58 18.7624L168.856 19.5385L166.203 16.5798L166.637 15.9007L161.619 10.4199L161.04 11.293L160.075 10.4199L159.738 10.9049L156.409 7.65524L156.264 6.68518L155.492 8.28578L154.816 7.65524L152.887 10.5654L152.983 8.14027L152.694 7.75225L152.549 11.0504L147.242 20.1205L132.912 85.6965L132.574 85.5995L136.096 69.9815L135.421 68.6719L135.952 67.1199L132.574 59.2139L130.886 59.4079L128.714 54.8001L124.758 55.0911L124.083 57.2253H123.6L123.455 57.5163L121.14 57.6618L119.403 60.863L109.608 87.8306H109.367L109.222 88.0246L102.854 98.0162L103.674 99.8593L102.854 101.751L102.13 101.46L100.441 103.982L98.7044 103.4L94.7481 109.22L92.6252 114.944L89.8268 114.41L86.4977 119.6L73.8086 148.071Z" fill="url(#paint2_linear_171_1853)"/>
<path d="M336 118.926H0V173.463H336V118.926Z" fill="url(#paint3_linear_171_1853)"/>
<path d="M336 137.926H0V133.528H336V137.926Z" fill="#333333"/>
</g>
<g clip-path="url(#clip2_171_1853)">
<path d="M336 137.926H0V209.528H336V137.926Z" fill="#828282"/>
</g>
<defs>
<linearGradient id="paint0_linear_171_1853" x1="0" y1="95" x2="336" y2="95" gradientUnits="userSpaceOnUse">
<stop stop-color="#FFE997"/>
<stop offset="0.24" stop-color="#FFE378"/>
<stop offset="0.58" stop-color="#FFEBA0"/>
<stop offset="1" stop-color="#FFF5CE"/>
</linearGradient>
<linearGradient id="paint1_linear_171_1853" x1="156.023" y1="34.9624" x2="152.122" y2="126.534" gradientUnits="userSpaceOnUse">
<stop stop-color="#3CA6E1"/>
<stop offset="1" stop-color="#3CAFE1" stop-opacity="0"/>
</linearGradient>
<linearGradient id="paint2_linear_171_1853" x1="173.368" y1="6.68518" x2="173.368" y2="165.338" gradientUnits="userSpaceOnUse">
<stop offset="0.175411" stop-color="#275B8B"/>
<stop offset="1" stop-color="#3169AA" stop-opacity="0"/>
</linearGradient>
<linearGradient id="paint3_linear_171_1853" x1="168" y1="118.926" x2="168" y2="173.463" gradientUnits="userSpaceOnUse">
<stop stop-color="#347DEB" stop-opacity="0"/>
<stop offset="1" stop-color="#349EEB"/>
</linearGradient>
<clipPath id="clip0_171_1853">
<rect width="336" height="52.0741" fill="white" transform="translate(0 137.926)"/>
</clipPath>
<clipPath id="clip1_171_1853">
<rect width="336" height="190" fill="white"/>
</clipPath>
<clipPath id="clip2_171_1853">
<rect width="336" height="52.0741" fill="white" transform="translate(0 137.926)"/>
</clipPath>
</defs>
</svg>
