<svg width="20" height="20" viewBox="0 0 20 20" fill="none" xmlns="http://www.w3.org/2000/svg">
<path d="M5.88501 10.7767C5.75894 10.2978 5.63287 9.70547 5.36813 8.82325C4.86742 7.17432 3.99448 5.6441 3.56537 3.97102C3.28328 2.77246 4.30625 1.55838 5.58244 2.00493C7.53548 2.69094 8.14444 6.05047 8.41896 7.75198L8.51981 8.31912C8.385 5.8638 8.20931 4.26209 8.51981 2.24439C8.82622 0.329877 11.7571 0.373454 11.9993 2.2696C12.1245 3.64659 12.1253 5.02077 12.1253 6.40344C12.1253 6.69331 12.1253 8.44515 12.1506 8.2561C12.2262 7.4243 12.264 4.23569 12.5792 3.29045C13.2673 1.17752 15.8197 1.94705 15.9452 3.8702C16.0495 5.26081 15.9044 6.71218 15.8695 8.10487C15.8695 8.15528 15.8569 8.48296 15.8947 8.33172C16.2751 7.14887 15.9452 3.8702 18.006 4.27929C18.6859 4.41427 19.9473 5.33231 19.0273 8.44429C17.729 12.836 16.047 14.7348 16.047 19.3722H6.77487C6.77487 16.0607 2.39651 13.5305 1.14533 11.0288C0.867981 10.4995 0.730428 9.8315 0.906922 9.35258C1.19688 8.60899 1.73739 8.2183 2.60726 8.30652C4.02623 8.44292 4.5996 9.65258 5.88501 10.7767Z" fill="#3AB8BC"/>
</svg>
