<svg width="21" height="16" viewBox="0 0 21 16" fill="none" xmlns="http://www.w3.org/2000/svg">
<path fill-rule="evenodd" clip-rule="evenodd" d="M10.5 0C14.0878 0 17.2554 2.43241 20.0113 7.14351L20.2172 7.50112L20.5 8L20.0113 8.85649C17.2554 13.5676 14.0878 16 10.5 16C6.91215 16 3.74464 13.5676 0.988744 8.85649L0.782823 8.49888L0.5 8L0.782823 7.50112C3.58652 2.55556 6.82245 0 10.5 0ZM10.5 2C7.79692 2 5.22829 3.91554 2.80532 8C5.22829 12.0845 7.79692 14 10.5 14C13.1297 14 15.6289 12.1901 17.987 8.34472L18.1948 8.00013L17.9867 7.65533C15.6249 3.80768 13.1259 2 10.5 2ZM10.5 5C12.1569 5 13.5 6.34315 13.5 8C13.5 9.65685 12.1569 11 10.5 11C8.84315 11 7.5 9.65685 7.5 8C7.5 6.34315 8.84315 5 10.5 5Z" fill="#006666"/>
</svg>
