<svg xmlns="http://www.w3.org/2000/svg" viewBox="0 0 333.2 442.51"><defs><style>.cls-1{opacity:0.2;}.cls-2{opacity:0.3;}.cls-3{fill:#211712;}.cls-4{fill:#020100;}.cls-5{fill:#3f2d25;}.cls-6{fill:#5b4332;}.cls-7{fill:#4c382b;}.cls-8{fill:#664d3c;}.cls-9{fill:#4d4d4d;}.cls-10{fill:#700;}.cls-11{fill:#4f0000;}.cls-12{fill:none;stroke:#0f0702;stroke-miterlimit:10;}.cls-13{fill:#281308;}.cls-14{fill:#1e0d06;}.cls-15{fill:#512e11;}.cls-16{fill:#3f220d;}.cls-17{fill:#33160c;}.cls-18{fill:#a67c5e;}.cls-19{fill:#603813;}.cls-20{fill:#3a1b0d;}</style></defs><g id="Слой_2" data-name="Слой 2"><g id="Слой_1-2" data-name="Слой 1"><g id="Chair"><g class="cls-1"><polygon class="cls-2" points="333.2 349.83 189.89 341.24 0.35 383.23 0 405.07 130.73 442.51 333.2 349.83"/></g><polygon class="cls-2" points="156.83 408.86 32.26 382.19 189.89 341.24 305.8 350.27 156.83 408.86"/><polygon class="cls-3" points="71.77 385.84 58.56 384.07 86.08 266.13 99.56 266.13 71.77 385.84"/><polygon class="cls-4" points="71.77 385.84 85.87 379 111.89 266.13 99.56 266.13 71.77 385.84"/><polygon class="cls-5" points="153.16 402.8 162.74 395.06 173.9 263.27 162.74 266.13 153.16 402.8"/><polygon class="cls-4" points="262.15 362.87 251.69 361.17 240.25 246.32 250.05 243.81 262.15 362.87"/><polygon class="cls-4" points="189.56 352.8 178.26 351.66 183.69 260.77 192.27 258.58 189.56 352.8"/><polygon class="cls-3" points="262.15 362.87 272.53 356.64 263.52 240.37 250.05 243.81 262.15 362.87"/><polygon class="cls-3" points="189.56 352.8 202.86 347.65 205.4 255.23 192.27 258.58 189.56 352.8"/><polygon class="cls-3" points="153.16 402.8 137.23 400.64 149.26 266.13 162.74 266.13 153.16 402.8"/><polygon class="cls-3" points="162.74 247.77 86.08 247.77 41.12 61.17 134.29 61.3 162.74 247.77"/><polygon class="cls-6" points="173.72 247.26 162.74 247.77 134.29 61.3 147.9 54.48 173.72 247.26"/><polygon class="cls-7" points="134.29 61.3 41.12 61.17 63.76 54.48 147.9 54.48 134.29 61.3"/><rect class="cls-3" x="86.08" y="247.77" width="76.66" height="18.36"/><polygon class="cls-7" points="263.47 224.55 162.74 247.77 162.74 266.13 263.52 240.37 263.47 224.55"/><polygon class="cls-4" points="61.52 78.97 125.69 78.97 125.23 75.81 56.26 75.81 94.22 233.49 98.72 233.49 61.52 78.97"/><polygon class="cls-5" points="147.9 233.49 98.72 233.49 61.52 78.97 125.69 78.97 147.9 233.49"/><path class="cls-8" d="M65.27,47.19c-.56-2.57-.39-3.56-1.61-5.63-1.85-3.18-5.83-7.63-7.68-10.81l-7-12a1.3,1.3,0,0,0-2.46.59l-.93,14.7c-.21,3.3-1.13,8.87-1.61,12.14-.31,2.12-.22,2.2.44,5.44A10.64,10.64,0,0,0,57.05,60,10.77,10.77,0,0,0,65.27,47.19Z"/><path class="cls-3" d="M63.42,49.57c-.56-2.56-6.86-.65-8.73-2.91C53.3,45,53.3,45,52,41.65,50.91,39,50.5,32.7,49.68,29.94l-2.36-9.67a.39.39,0,0,0-.75.14l-.94,13.64c-.21,3.3-1.13,8.87-1.61,12.14-.31,2.12-.22,2.2.44,5.44A10.64,10.64,0,0,0,57.14,60h0C61.41,58,64.42,54.1,63.42,49.57Z"/><polygon class="cls-3" points="120.11 61.82 54.37 61.67 65.41 2.18 120.11 61.82"/><polygon class="cls-8" points="119.63 61.3 132.83 54.48 86.57 0 65.41 2.18 119.63 61.3"/><polygon class="cls-5" points="101.27 55.86 66.82 55.33 71.96 22.15 101.27 55.86"/><polygon class="cls-9" points="101.26 55.86 101.27 55.86 101.27 55.86 101.26 55.86"/><polygon class="cls-4" points="71.95 22.21 69.24 19.1 63.64 55.28 66.82 55.33 71.95 22.21"/><path class="cls-8" d="M142.37,43.79c-.69-3-.48-4.22-2-6.68-2.28-3.78-7.15-9-9.42-12.83L122.45,10a1.61,1.61,0,0,0-3,.7l-1.14,17.45c-.25,3.92-1.38,10.54-2,14.42-.38,2.52-.27,2.61.54,6.45a13,13,0,0,0,15.43,10A12.8,12.8,0,0,0,142.37,43.79Z"/><path class="cls-3" d="M140.1,46.63c-.69-3.05-8.41-.79-10.71-3.47-1.7-2-1.7-2-3.33-5.95-1.3-3.16-1.8-10.62-2.81-13.89l-2.89-11.48a.48.48,0,0,0-.91.16l-1.16,16.19c-.25,3.92-1.38,10.54-2,14.42-.38,2.52-.27,2.61.54,6.45A13,13,0,0,0,132.4,59h0C137.64,56.58,141.32,52,140.1,46.63Z"/><path class="cls-10" d="M263.47,224.55l-90,20.69-5.51-41h14.39c18.39-1.11,57.27,5,74.6,11.46Z"/><path class="cls-11" d="M203.63,230.45a282.76,282.76,0,0,1-31.77,3l1.59,11.81,90-20.69-6-8.09C244.06,222.14,225,227.26,203.63,230.45Z"/><line class="cls-12" x1="147.9" y1="233.49" x2="94.22" y2="233.49"/><path class="cls-13" d="M155.58,328q-.45,9-1.21,18c-.27,3-.58,6-.82,9s-.43,6-.65,9c-.38,6-.78,12-1.27,18-.22,3-.5,6-.77,9s-.54,6-.85,9h0c.14-3,.34-6,.54-9s.38-6,.62-9c.44-6,1-12,1.51-17.95.25-3,.54-6,.75-9s.37-6,.57-9q.65-9,1.58-17.94Z"/><path class="cls-13" d="M156.81,269.77c-.29,6-.71,12-1.21,18-.26,3-.58,6-.81,9s-.43,6-.65,9c-.39,6-.78,12-1.27,18-.23,3-.5,6-.78,9s-.53,6-.85,9h-.05c.15-3,.35-6,.54-9s.38-6,.62-9c.44-6,1-12,1.52-17.95.24-3,.54-6,.74-9s.38-6,.58-9c.43-6,.94-12,1.57-17.94Z"/><path class="cls-13" d="M90.68,250.41q6-.19,11.92-.07c4,.14,7.94.26,11.91.19s7.95-.07,11.92,0c2,0,4,.07,6,.13s4,.11,6,.22v.05c-2,.06-4,.08-6,.09s-4,0-6,0c-4,0-8-.12-11.92-.24s-7.94-.11-11.92,0-7.94-.1-11.91-.3Z"/><path class="cls-14" d="M106.89,236.43q6-.19,11.92-.07c4,.14,8,.26,11.92.19s8-.07,11.92,0c2,0,4,.07,6,.13s4,.11,5.95.22v0c-2,.06-4,.08-6,.09s-4,.05-6,0c-4,0-7.94-.12-11.91-.24s-7.95-.11-11.92,0-8-.1-11.92-.3Z"/><path class="cls-14" d="M50.56,70.67c4-.13,7.95-.14,11.92-.07s7.94.27,11.92.19,7.94-.07,11.91,0c2,0,4,.07,6,.13s4,.11,6,.22v0c-2,.06-4,.08-6,.1s-4,0-6,0c-4,0-8-.12-11.92-.24S66.45,71,62.47,71s-7.94-.1-11.91-.3Z"/><path class="cls-14" d="M80.88,65.2c4-.13,7.94-.14,11.92-.06s7.94.26,11.91.19,8-.07,11.92,0c2,0,4,.08,6,.14s4,.11,6,.21v0c-2,.07-4,.09-6,.1s-4,.05-6,0c-4,0-7.95-.12-11.92-.24s-7.94-.11-11.92,0-7.94-.09-11.91-.3Z"/><path class="cls-13" d="M111.71,254.73c4-.13,7.94-.14,11.92-.07s7.94.27,11.91.19,8-.06,11.92,0c2,0,4,.08,6,.14s4,.11,6,.21v.05c-2,.07-4,.08-6,.1s-4,0-6,0c-4,0-8-.13-11.92-.24s-7.94-.12-11.92,0-7.94-.09-11.91-.3Z"/><path class="cls-14" d="M90.74,243.42q6-.19,11.92-.07c4,.14,7.94.26,11.92.19s7.94-.07,11.92,0c2,0,4,.07,5.95.13s4,.11,6,.22v.05c-2,.06-4,.08-6,.09s-4,.05-6,0c-4,0-7.94-.12-11.92-.24s-7.94-.11-11.91,0-8-.1-11.92-.3Z"/><path class="cls-15" d="M200.63,240.9c5-1.28,10.05-2.39,15.11-3.37,2.54-.47,5.09-.86,7.62-1.37s5-1,7.56-1.63c5-1.16,10.07-2.27,15.13-3.27s10.13-2,15.23-2.76l0,.07q-7.51,1.89-15.1,3.44T231,234.94c-2.54.45-5.08.92-7.6,1.47s-5,1.17-7.54,1.73c-5.05,1.09-10.12,2.05-15.22,2.83Z"/><path class="cls-16" d="M165.73,251.88c5-1.28,10-2.39,15.11-3.37,2.53-.47,5.09-.87,7.62-1.37s5-1,7.56-1.63c5-1.16,10.07-2.27,15.13-3.28s10.13-1.95,15.23-2.75v.07q-7.5,1.89-15.09,3.44t-15.2,2.93c-2.54.45-5.07.92-7.59,1.47s-5,1.17-7.55,1.73c-5,1.09-10.11,2-15.21,2.83Z"/><path class="cls-16" d="M200.14,249.5c5-1.39,9.94-2.61,15-3.7,2.51-.53,5-1,7.55-1.54s5-1.16,7.49-1.79q7.47-1.92,15-3.61t15.09-3.09l0,.08c-5,1.37-9.94,2.61-14.94,3.77s-10,2.24-15.06,3.25c-2.51.51-5,1-7.52,1.64s-5,1.28-7.47,1.9c-5,1.19-10,2.26-15.08,3.16Z"/><path class="cls-13" d="M89,258.32c4-.13,8-.14,11.92-.07s7.94.27,11.91.19,8-.06,11.92,0c2,0,4,.08,6,.14s4,.11,6,.21v0c-2,.07-4,.08-6,.1s-4,0-6,0c-4,0-8-.13-11.92-.24s-7.94-.12-11.92-.05-7.94-.09-11.91-.3Z"/><path class="cls-16" d="M108.39,262.22c4-.21,8-.25,11.92-.15,2,.07,4,.21,6,.24s4,0,6,0c4-.1,8-.13,11.92-.06s7.94.19,11.91.47v.07q-6,.28-11.92.23c-4,0-7.94-.12-11.92-.3-2-.08-4-.15-6-.13s-4,.09-6,.12c-4,0-8-.1-11.92-.39Z"/><path class="cls-17" d="M139.49,67.18c.67,3.85,1.27,7.71,1.86,11.57s1.21,7.71,1.75,11.57c1,7.74,2.12,15.47,3.35,23.18s2.43,15.42,3.54,23.15c.58,3.86,1.11,7.73,1.64,11.59s1.07,7.74,1.56,11.61h-.05c-.66-3.85-1.26-7.71-1.87-11.56s-1.22-7.71-1.79-11.58c-1.16-7.71-2.23-15.45-3.3-23.18s-2.25-15.45-3.49-23.16c-.6-3.85-1.14-7.72-1.68-11.58s-1.09-7.73-1.57-11.61Z"/><path class="cls-18" d="M86.16,3.19c2.59,2.78,5.09,5.64,7.53,8.55s4.78,5.89,7.33,8.71,5,5.68,7.47,8.59c1.24,1.44,2.44,2.91,3.64,4.38s2.4,2.93,3.57,4.43l0,0c-1.29-1.39-2.55-2.81-3.81-4.23s-2.52-2.83-3.75-4.28c-2.48-2.87-4.89-5.81-7.29-8.74s-4.9-5.8-7.44-8.62-4.91-5.79-7.24-8.79Z"/><path class="cls-18" d="M84.37,10.48C87,13.25,89.46,16.11,91.89,19s4.78,5.9,7.33,8.71,5,5.69,7.48,8.59c1.23,1.44,2.43,2.91,3.63,4.38s2.41,2.94,3.57,4.44l0,0c-1.3-1.39-2.56-2.81-3.82-4.23s-2.52-2.84-3.75-4.29c-2.48-2.87-4.88-5.8-7.29-8.74s-4.9-5.8-7.44-8.62-4.91-5.78-7.24-8.78Z"/><path class="cls-17" d="M153.19,117.46c.6,3.84,1.14,7.69,1.68,11.54s1.09,7.69,1.57,11.55c.92,7.72,1.88,15.43,3,23.12s2.19,15.39,3.19,23.1c.52,3.85,1,7.71,1.46,11.57s.95,7.71,1.38,11.58h-.05c-.59-3.84-1.14-7.69-1.69-11.53s-1.1-7.7-1.61-11.55c-1.05-7.7-2-15.42-3-23.13s-2-15.41-3.13-23.11c-.55-3.84-1-7.7-1.5-11.56s-1-7.71-1.39-11.57Z"/><path class="cls-14" d="M91.46,80.4c1.05,5.83,2,11.67,2.81,17.53.4,2.93.76,5.87,1.19,8.8s.91,5.85,1.36,8.77c1,5.84,1.89,11.68,2.74,17.54.44,2.93.84,5.86,1.24,8.79s.8,5.87,1.15,8.8h0c-.52-2.91-1-5.83-1.46-8.75s-1-5.85-1.39-8.77c-.9-5.85-1.7-11.72-2.5-17.58-.42-2.93-.8-5.86-1.26-8.79s-1-5.84-1.43-8.76c-.91-5.85-1.74-11.71-2.44-17.58Z"/><path class="cls-14" d="M74.24,27.82c.61,2.09,1.09,4.21,1.49,6.34s.7,4.29,1.25,6.4a120.41,120.41,0,0,1,2.51,12.79h0a118.54,118.54,0,0,1-2.73-12.75c-.33-2.15-.84-4.26-1.38-6.36S74.47,30,74.2,27.83Z"/><path class="cls-14" d="M84.67,43.85a13.79,13.79,0,0,1,.75,2.78c.07.48.09,1,.17,1.44a11.42,11.42,0,0,0,.34,1.4,22.55,22.55,0,0,1,1,5.65h0a22.94,22.94,0,0,1-1.27-5.61,11.35,11.35,0,0,0-.23-1.42c-.11-.46-.28-.92-.41-1.38a13,13,0,0,1-.4-2.86Z"/><path class="cls-14" d="M73.26,42.25A12.87,12.87,0,0,1,74,45c.06.48.09,1,.16,1.43a13,13,0,0,0,.35,1.4,23.09,23.09,0,0,1,1,5.66h0a22.69,22.69,0,0,1-1.27-5.61A11.06,11.06,0,0,0,74,46.5c-.12-.47-.29-.93-.42-1.39a13.6,13.6,0,0,1-.4-2.85Z"/><path class="cls-14" d="M131.31,163.12q1.56,8.74,2.81,17.53c.4,2.93.76,5.87,1.19,8.8s.91,5.85,1.36,8.77c1,5.84,1.89,11.69,2.74,17.54.44,2.93.84,5.86,1.23,8.79s.81,5.87,1.16,8.81h-.05c-.52-2.91-1-5.83-1.46-8.75s-1-5.84-1.39-8.77c-.9-5.85-1.7-11.71-2.5-17.58-.43-2.93-.8-5.86-1.26-8.78s-1-5.84-1.43-8.77q-1.38-8.76-2.45-17.58Z"/><path class="cls-14" d="M118.37,148.38c1,5.83,2,11.67,2.8,17.53.41,2.93.76,5.87,1.19,8.8s.91,5.85,1.36,8.77c1,5.84,1.89,11.69,2.74,17.54.45,2.93.84,5.86,1.24,8.79s.8,5.87,1.16,8.81h-.05c-.52-2.91-1-5.83-1.47-8.75s-1-5.84-1.39-8.77c-.9-5.85-1.7-11.71-2.5-17.58-.42-2.93-.8-5.86-1.26-8.79s-1-5.84-1.43-8.76q-1.37-8.76-2.44-17.58Z"/><path class="cls-14" d="M105.3,80.4c.62,3,1.12,6,1.54,9.07s.72,6.1,1.29,9.12c1.07,6,2,12.11,2.61,18.22h0c-1.21-6-2.09-12.1-2.83-18.19-.34-3-.87-6.08-1.43-9.09s-.89-6.07-1.18-9.13Z"/><path class="cls-14" d="M108.59,135.13c.67,3.3,1.21,6.6,1.67,9.93s.81,6.65,1.42,9.95c1.16,6.61,2.17,13.24,2.86,19.92h-.05c-1.29-6.58-2.26-13.22-3.08-19.88-.39-3.33-1-6.63-1.56-9.93s-1-6.64-1.3-10Z"/><path class="cls-14" d="M110.34,192.78q1,4.93,1.66,9.92c.4,3.33.81,6.66,1.42,10,1.16,6.61,2.17,13.24,2.86,19.91h0c-1.29-6.59-2.26-13.22-3.08-19.88-.38-3.33-1-6.64-1.55-9.94s-1-6.63-1.31-10Z"/><path class="cls-14" d="M83.69,95.62c1,4.55,2,9.13,2.82,13.72.41,2.3.77,4.6,1.2,6.9s.91,4.58,1.37,6.87c1,4.57,1.9,9.14,2.75,13.73.45,2.29.85,4.59,1.25,6.89s.81,4.6,1.16,6.9h0c-.52-2.27-1-4.56-1.47-6.84s-1-4.57-1.39-6.87c-.91-4.58-1.72-9.17-2.52-13.77-.43-2.3-.8-4.6-1.27-6.89s-1-4.57-1.44-6.85q-1.38-6.87-2.46-13.79Z"/><path class="cls-14" d="M118.37,78.87c1,5.83,2,11.68,2.8,17.54.41,2.93.76,5.87,1.19,8.79s.91,5.85,1.36,8.78c1,5.84,1.89,11.68,2.74,17.54.45,2.92.84,5.86,1.24,8.79s.8,5.86,1.16,8.8h-.05c-.52-2.92-1-5.84-1.47-8.76s-1-5.84-1.39-8.77c-.9-5.85-1.7-11.71-2.5-17.57-.42-2.93-.8-5.87-1.26-8.79s-1-5.84-1.43-8.76q-1.37-8.77-2.44-17.59Z"/><path class="cls-14" d="M91.46,161.65c1.24,5.95,2.35,11.92,3.38,17.9.5,3,1,6,1.48,9s1.11,6,1.65,9c1.14,6,2.28,11.92,3.32,17.9.54,3,1,6,1.52,9s1,6,1.45,9h-.05c-.62-3-1.19-6-1.75-8.93s-1.15-6-1.68-9c-1.09-6-2.09-12-3.08-17.95-.52-3-1-6-1.55-9s-1.15-6-1.72-8.94q-1.65-9-3-18Z"/><path class="cls-14" d="M68.78,78.13Q71,87,72.88,96c.62,3,1.19,6,1.84,9s1.34,6,2,9c1.38,6,2.75,11.92,4,17.9.66,3,1.27,6,1.89,9s1.23,6,1.8,9l0,0c-.74-3-1.43-6-2.12-8.94s-1.38-6-2-9c-1.33-6-2.57-12-3.8-17.95-.64-3-1.23-6-1.91-9s-1.39-6-2.07-8.94q-2-9-3.74-18Z"/><path class="cls-19" d="M158,186.37c.79,4.64,1.46,9.29,2,14,.28,2.33.51,4.68.81,7s.65,4.65,1,7c.69,4.66,1.38,9.31,2,14,.32,2.33.59,4.67.86,7s.54,4.67.77,7h-.05c-.39-2.32-.74-4.65-1.08-7s-.7-4.66-1-7c-.64-4.66-1.19-9.33-1.73-14-.3-2.33-.54-4.67-.88-7s-.71-4.65-1.05-7q-1-7-1.68-14Z"/><path class="cls-20" d="M196.2,259.66c0,3.4-.09,6.79-.36,10.17-.15,1.69-.38,3.37-.5,5.06s-.19,3.39-.24,5.08a188.79,188.79,0,0,1-1.42,20.3h-.08A191.22,191.22,0,0,1,194.69,280c.17-1.69.33-3.38.4-5.07s.07-3.39.13-5.09c.15-3.39.44-6.76.9-10.13Z"/><path class="cls-13" d="M202.2,270.94c.07,4.82,0,9.64-.13,14.46-.08,2.41-.22,4.81-.28,7.22s-.07,4.82-.11,7.23c0,4.82-.06,9.64-.19,14.46-.05,2.41-.14,4.81-.23,7.22s-.18,4.82-.32,7.22h-.05c0-2.41,0-4.82,0-7.23s0-4.82.08-7.23c.08-4.81.26-9.63.44-14.45.07-2.4.18-4.81.21-7.22s0-4.82,0-7.23q.09-7.23.49-14.45Z"/><path class="cls-13" d="M197.76,286.67c-.12,5.13-.36,10.26-.68,15.38-.18,2.56-.41,5.12-.56,7.68s-.25,5.12-.38,7.68c-.21,5.13-.43,10.26-.75,15.38-.14,2.56-.32,5.12-.51,7.68s-.36,5.12-.59,7.67h0c.06-2.57.17-5.13.28-7.69s.21-5.13.36-7.69c.26-5.13.62-10.24,1-15.36.15-2.56.36-5.12.48-7.68s.2-5.13.31-7.69c.25-5.13.59-10.25,1.05-15.36Z"/><path class="cls-13" d="M95.74,267.13q-1.35,7.85-3,15.64c-.56,2.59-1.18,5.18-1.72,7.78s-1,5.2-1.56,7.81c-1,5.21-2,10.43-3.09,15.63-.53,2.6-1.1,5.19-1.68,7.78s-1.14,5.19-1.76,7.77h0c.45-2.61,1-5.22,1.45-7.83s1-5.22,1.53-7.82c1-5.2,2.18-10.39,3.33-15.58.54-2.6,1.14-5.18,1.65-7.79s1-5.22,1.49-7.83c1-5.2,2.15-10.4,3.38-15.56Z"/><path class="cls-13" d="M253.8,247.77q.84,7.54,1.37,15.11c.16,2.53.28,5.05.47,7.58s.43,5,.64,7.55c.47,5,.93,10.08,1.3,15.12.2,2.52.36,5.05.51,7.57s.32,5.05.44,7.58h0c-.28-2.51-.52-5-.75-7.55s-.48-5-.67-7.56c-.41-5-.74-10.09-1.06-15.13-.18-2.53-.31-5.05-.54-7.57s-.48-5-.71-7.56q-.65-7.55-1-15.14Z"/><path class="cls-13" d="M261.19,253.86q1.17,9.31,2,18.67c.28,3.12.51,6.24.81,9.36s.65,6.22,1,9.34c.69,6.22,1.37,12.44,2,18.67.32,3.12.58,6.24.85,9.36s.54,6.23.77,9.36h-.05c-.39-3.11-.74-6.22-1.08-9.33s-.7-6.22-1-9.34c-.64-6.22-1.19-12.46-1.72-18.7-.3-3.11-.54-6.23-.88-9.35s-.7-6.22-1-9.33c-.65-6.22-1.22-12.46-1.66-18.7Z"/><path class="cls-13" d="M260.31,289.1c.74,5.78,1.36,11.58,1.9,17.39.25,2.9.46,5.81.74,8.71s.61,5.8.91,8.7c.65,5.8,1.29,11.59,1.84,17.4.29,2.9.53,5.8.78,8.71s.5,5.81.7,8.71h-.05c-.37-2.89-.69-5.79-1-8.69s-.66-5.79-.94-8.69c-.59-5.8-1.1-11.61-1.59-17.42-.28-2.9-.5-5.81-.81-8.71s-.66-5.79-1-8.69q-.92-8.7-1.54-17.43Z"/><path class="cls-13" d="M85.5,279.59q-1.35,7.86-3,15.64c-.56,2.6-1.18,5.18-1.72,7.78s-1,5.21-1.56,7.81c-1,5.22-2,10.43-3.09,15.63-.53,2.6-1.1,5.2-1.68,7.79s-1.14,5.18-1.76,7.77h0c.45-2.62.95-5.23,1.45-7.84s1-5.21,1.53-7.81c1-5.21,2.18-10.4,3.33-15.58.54-2.6,1.14-5.19,1.65-7.79s1-5.22,1.49-7.83q1.55-7.81,3.38-15.57Z"/><path class="cls-13" d="M81.57,316.94q-1.36,7.85-3,15.64c-.56,2.59-1.18,5.18-1.72,7.78s-1,5.21-1.55,7.81c-1,5.22-2,10.43-3.1,15.63-.52,2.6-1.1,5.19-1.68,7.78s-1.14,5.19-1.75,7.77h0c.45-2.61.95-5.22,1.45-7.83s1-5.22,1.53-7.82c1-5.2,2.18-10.39,3.33-15.58.55-2.59,1.14-5.18,1.65-7.79s1-5.22,1.49-7.82q1.55-7.81,3.39-15.57Z"/><path class="cls-13" d="M150.17,301.62c-.35,6.71-.82,13.4-1.37,20.09-.29,3.34-.63,6.68-.9,10s-.48,6.69-.73,10c-.44,6.69-.89,13.39-1.44,20.08-.25,3.34-.55,6.69-.85,10s-.59,6.68-.93,10h0c.17-3.35.39-6.7.62-10.05s.43-6.7.7-10c.49-6.7,1.08-13.38,1.68-20.07.27-3.34.59-6.68.83-10s.43-6.7.65-10q.74-10.05,1.74-20.06Z"/></g></g></g></svg>