<svg xmlns="http://www.w3.org/2000/svg" width="195" height="217" viewBox="0 0 195 217">
  <defs>
    <style>
      .a {
        opacity: 0.1;
      }

      .b {
        fill: #603813;
      }

      .c {
        fill: #42210b;
      }
    </style>
  </defs>
  <g>
    <ellipse class="a" cx="97.5" cy="186.5" rx="97.5" ry="30.5"/>
    <path class="b" d="M61,20V165c0,1.66,3.36,3,7.5,3s7.5-1.34,7.5-3V20Z"/>
    <path class="c" d="M73,14V167a1.25,1.25,0,0,1-.08.42C74.78,166.87,76,166,76,165V14Z"/>
    <path class="b" d="M142,25V178c0,1.66,3.36,3,7.5,3s7.5-1.34,7.5-3V25Z"/>
    <path class="c" d="M154,27V180a1.25,1.25,0,0,1-.08.42c1.86-.55,3.08-1.42,3.08-2.42V27Z"/>
    <path class="b" d="M29,31V195c0,1.66,3.36,3,7.5,3s7.5-1.34,7.5-3V31Z"/>
    <path class="b" d="M111,43V211c0,1.66,3.36,3,7.5,3s7.5-1.34,7.5-3V43Z"/>
    <path class="c" d="M123,43V213a1.25,1.25,0,0,1-.08.42c1.86-.55,3.08-1.42,3.08-2.42V43Z"/>
    <path class="c" d="M41,27V197a1.25,1.25,0,0,1-.08.42C42.78,196.87,44,196,44,195V27Z"/>
    <path class="c" d="M165,18c-8.67,7.51-39.18,18-72,18S29.67,25.51,21,18V28c0,9.94,32.24,18,72,18s72-8.06,72-18Z"/>
    <ellipse class="b" cx="93" cy="18" rx="72" ry="18"/>
  </g>
</svg>
