<svg xmlns="http://www.w3.org/2000/svg" xmlns:xlink="http://www.w3.org/1999/xlink" width="281.6" height="439.59" viewBox="0 0 281.6 439.59">
  <defs>
    <style>
      .a, .b {
        fill: #191613;
      }

      .a, .e {
        opacity: 0.57;
      }

      .a, .e, .f {
        isolation: isolate;
      }

      .b, .c, .d, .g, .h, .i, .j, .k {
        stroke: #000;
      }

      .b, .c, .d, .e, .f, .g, .h, .i, .j, .k {
        stroke-miterlimit: 10;
      }

      .c {
        fill: #3d352d;
      }

      .d {
        fill: #7f664f;
      }

      .e, .f, .k, .m {
        fill: none;
      }

      .e {
        stroke: #bf9a7f;
        stroke-width: 4.3px;
      }

      .f {
        stroke: #edc7ae;
        opacity: 0.83;
      }

      .g {
        fill: #260d0d;
      }

      .h {
        fill: url(#a);
      }

      .i, .l {
        fill: #600;
      }

      .j {
        fill: url(#b);
      }
    </style>
    <linearGradient id="a" x1="189.69" y1="953.63" x2="189.69" y2="1194.04" gradientTransform="matrix(1, 0, 0, -1, 0, 1200.03)" gradientUnits="userSpaceOnUse">
      <stop offset="0" stop-color="#600"/>
      <stop offset="0.31" stop-color="#900"/>
      <stop offset="0.44" stop-color="#a20606"/>
      <stop offset="0.61" stop-color="#b71313"/>
      <stop offset="0.87" stop-color="#7d0505"/>
      <stop offset="1" stop-color="#600"/>
    </linearGradient>
    <linearGradient id="b" x1="129.38" y1="990.95" x2="114.12" y2="904.44" gradientTransform="matrix(1, 0, 0, -1, 0, 1200.03)" gradientUnits="userSpaceOnUse">
      <stop offset="0" stop-color="#600"/>
      <stop offset="0.18" stop-color="#900"/>
      <stop offset="0.45" stop-color="#b71313"/>
      <stop offset="1" stop-color="#600"/>
    </linearGradient>
  </defs>
  <g>
    <path class="a" d="M280.7,404.59c0,17.9-59.8,35-133.5,35s-133.5-17.1-133.5-35,59.8-32.5,133.5-32.5S280.7,386.69,280.7,404.59Z"/>
    <ellipse class="b" cx="29.6" cy="399.39" rx="11" ry="10.2"/>
    <path class="b" d="M29.7,399.39l10.7-.4a3.23,3.23,0,0,0,2.6-5.3c-3.1-3.7-8-5.3-14-6.4-8.6-1.6-15.7,6.2-15.4,12.8Z"/>
    <g>
      <ellipse class="b" cx="87.8" cy="375.79" rx="9" ry="8.3"/>
      <path class="b" d="M87.9,375.69l8.7-.3a2.69,2.69,0,0,0,2.2-4.3c-2.5-3-6.5-4.3-11.3-5.2-7-1.3-12.8,5-12.5,10.4Z"/>
    </g>
    <ellipse class="b" cx="264.5" cy="399.49" rx="11" ry="10.2"/>
    <path class="b" d="M264.5,399.39l-10.7.1c-2.9,0-4.6-3-2.9-5.2,2.9-3.8,7.8-5.6,13.6-7,8.5-2,16,5.5,16,12.1Z"/>
    <g>
      <ellipse class="b" cx="208.8" cy="375.29" rx="9.4" ry="7.9"/>
      <path class="b" d="M208.7,375.19l-9.1.1c-2.4,0-3.9-2.3-2.5-4,2.5-2.9,6.6-4.4,11.6-5.4,7.3-1.5,13.6,4.3,13.6,9.4Z"/>
    </g>
    <path class="c" d="M157.1,388.89l63-15.9-.7-8.1a3.81,3.81,0,0,0-1.1-2.4,8.07,8.07,0,0,0-4.9-2.7h-.2a11.45,11.45,0,0,0-4.8.7L154,377Z"/>
    <path class="c" d="M137.5,383.39l-63-16,.7-8.1a3.81,3.81,0,0,1,1.1-2.4,8.07,8.07,0,0,1,4.9-2.7h.2a11.45,11.45,0,0,1,4.8.7l54.4,16.6Z"/>
    <path class="c" d="M123.7,390.09l-110-1.6v-6.7a7.16,7.16,0,0,1,4.5-6.6h0a14.19,14.19,0,0,1,5.8-1l99.7,2.5Z"/>
    <path class="c" d="M170.9,389l110,1.6.2-6.7a7,7,0,0,0-4.3-6.7h0a14.23,14.23,0,0,0-5.7-1.2l-99.7-.4Z"/>
    <ellipse class="c" cx="146.4" cy="374.29" rx="27.6" ry="8.4"/>
    <path class="d" d="M149.9,374.29h-6.6a3.37,3.37,0,0,1-3.4-3.4v-81.1h13v81.5A2.89,2.89,0,0,1,149.9,374.29Z"/>
    <line class="e" x1="145.5" y1="373.59" x2="145.5" y2="296.09"/>
    <line class="f" x1="144.5" y1="373.59" x2="144.5" y2="296.09"/>
    <path class="g" d="M249.6,262.49l-137.7-27.8,24.7-181.2c1.3-9.7,11.9-20.7,22.4-20h96.8a29.88,29.88,0,0,1,7.3,1c5.3,1.5,9.8,3.2,13.3,6.4,6,5.6,3,13,2,23.5Z"/>
    <path class="h" d="M246.2,243.39l-139.4-26.9,24.5-171.3a19.91,19.91,0,0,1,20.9-17.1l102.2,6a19.37,19.37,0,0,1,18,22Z"/>
    <path class="i" d="M235.8,273.09,152,292.59c-1.5.1-17.7-11.6-17.4-13l6-25.5a2.13,2.13,0,0,1,1.9-1.6l99.7-15.6c4.3-.5,6.1,5.4,7.7,9.2h0c4.2,10-.7,21.3-11.2,25.9l-2.2,1A1.7,1.7,0,0,1,235.8,273.09Z"/>
    <path class="g" d="M155.3,295.79c-22.4,13.5-125.4-20-138.7-30.4-1.7-14.4,0-34.4,20-35.8.3,5.7,234.7-19.7,211.8,12.5-.9,1.3-2.6,1.9-4.2,2.3-19.8,4.4-63.5,3.3-80.2,17.2C157,267.49,167.9,288.29,155.3,295.79Z"/>
    <path class="j" d="M123.1,297.19,14.3,277.49C6.3,276,.5,269.49.5,262v-13.8c0-10.8,8.4-19.9,19.9-21.6l87.3-12.8h.1l137.9,16c1.1.1,2.5,3.3,1.4,3.5l-80.3,11.8a14.84,14.84,0,0,0-4.1,1.2,23.66,23.66,0,0,0-13.8,22.1v9.2C148.9,290.19,136.5,299.59,123.1,297.19Z"/>
    <path class="b" d="M174,385.49h0a4,4,0,0,1-1.8,3.3c-10.2,6.3-41.7,5.7-51.5,0a3.7,3.7,0,0,1-1.9-3.2v-10.3h0c10.1,8.9,44.1,9.3,55.1,0h0l.1,10.2Z"/>
    <ellipse class="b" cx="146.9" cy="427.29" rx="11" ry="10.2"/>
    <path class="b" d="M152.4,429.39a20.18,20.18,0,0,1-10.9,0l-7.6-2.2h0c0-5.3,5.3-12.1,13-12.1s13,6.7,13,12.1Z"/>
    <path class="c" d="M156,413.39l-4.3,6.1a8.78,8.78,0,0,1-11.9.3l-3.9-5.5v-23.2l6.3-5.9a5.16,5.16,0,0,1,7.2.2l6.5,6.6Z"/>
    <g>
      <g>
        <line class="k" x1="155.7" y1="65.09" x2="171.7" y2="100.09"/>
        <line class="k" x1="195.7" y1="70.09" x2="171.7" y2="100.09"/>
        <line class="k" x1="214.7" y1="104.09" x2="195.7" y2="70.09"/>
        <line class="k" x1="241.7" y1="71.09" x2="214.7" y2="104.09"/>
      </g>
      <line class="k" x1="147.7" y1="126.09" x2="162.7" y2="161.09"/>
      <line class="k" x1="188.7" y1="131.09" x2="162.7" y2="162.09"/>
      <line class="k" x1="205.7" y1="167.09" x2="188.7" y2="131.09"/>
      <line class="k" x1="229.7" y1="135.09" x2="205.7" y2="167.09"/>
      <line class="k" x1="138.7" y1="189.09" x2="153.7" y2="219.09"/>
      <line class="k" x1="179.7" y1="195.09" x2="153.7" y2="219.09"/>
      <line class="k" x1="195.7" y1="224.09" x2="179.7" y2="195.09"/>
      <line class="k" x1="220.7" y1="201.09" x2="195.7" y2="224.09"/>
      <line class="k" x1="147.7" y1="126.09" x2="171.7" y2="100.09"/>
      <line class="k" x1="188.7" y1="131.09" x2="214.7" y2="104.09"/>
      <line class="k" x1="171.7" y1="100.09" x2="188.7" y2="131.09"/>
      <line class="k" x1="214.7" y1="104.09" x2="229.7" y2="133.09"/>
      <line class="k" x1="155.7" y1="65.09" x2="179.7" y2="30.09"/>
      <line class="k" x1="195.7" y1="70.09" x2="222.7" y2="33.09"/>
      <line class="k" x1="179.7" y1="30.09" x2="195.7" y2="70.09"/>
      <line class="k" x1="222.7" y1="33.09" x2="239.7" y2="74.09"/>
      <line class="k" x1="138.7" y1="188.09" x2="162.7" y2="162.09"/>
      <line class="k" x1="179.7" y1="195.09" x2="205.7" y2="167.09"/>
      <line class="k" x1="162.7" y1="162.09" x2="179.7" y2="195.09"/>
      <line class="k" x1="205.7" y1="167.09" x2="220.7" y2="201.09"/>
    </g>
    <g>
      <g>
        <path class="l" d="M155.65,69.75l-.36,0a3.11,3.11,0,0,1-2.3-1.85,6.07,6.07,0,0,1-.48-3.5c.36-2.5,2-4.38,3.8-4.38a2.19,2.19,0,0,1,.36,0,3.08,3.08,0,0,1,2.3,1.85,6.11,6.11,0,0,1,.47,3.49C159.09,67.87,157.46,69.75,155.65,69.75Z"/>
        <path d="M156.31,60.5l.29,0c1.64.23,2.69,2.37,2.35,4.78s-1.76,4-3.3,4a1.42,1.42,0,0,1-.29,0c-1.64-.23-2.69-2.37-2.35-4.78s1.76-4,3.3-4m0-1h0c-2.06,0-3.9,2.07-4.29,4.81-.43,3,1,5.6,3.2,5.91a3.11,3.11,0,0,0,.43,0c2,0,3.9-2.06,4.29-4.81a6.59,6.59,0,0,0-.52-3.78,3.62,3.62,0,0,0-2.68-2.13,3.11,3.11,0,0,0-.43,0Z"/>
      </g>
      <g>
        <path class="l" d="M138.67,193.75a2.17,2.17,0,0,1-.36,0c-1.91-.28-3.15-2.67-2.77-5.35.35-2.5,2-4.38,3.79-4.38a2.19,2.19,0,0,1,.36,0,3.06,3.06,0,0,1,2.3,1.85,6,6,0,0,1,.48,3.49C142.11,191.87,140.48,193.75,138.67,193.75Z"/>
        <path d="M139.33,184.5l.29,0c1.64.24,2.7,2.38,2.35,4.78s-1.76,3.95-3.3,3.95a1.46,1.46,0,0,1-.29,0c-1.64-.23-2.69-2.37-2.35-4.78.32-2.26,1.77-3.95,3.3-3.95m0-1h0c-2.05,0-3.9,2.07-4.29,4.81a6.63,6.63,0,0,0,.52,3.79,3.63,3.63,0,0,0,2.68,2.12,3.11,3.11,0,0,0,.43,0c2.06,0,3.9-2.06,4.29-4.81a6.51,6.51,0,0,0-.52-3.78,3.62,3.62,0,0,0-2.67-2.13l-.44,0Z"/>
      </g>
      <g>
        <path class="l" d="M162.67,165.75l-.37,0a3.1,3.1,0,0,1-2.29-1.86,6,6,0,0,1-.48-3.49c.36-2.5,2-4.38,3.79-4.38a2.23,2.23,0,0,1,.37,0,3.12,3.12,0,0,1,2.3,1.85,6.15,6.15,0,0,1,.47,3.5C166.1,163.87,164.47,165.75,162.67,165.75Z"/>
        <path d="M163.32,156.5a1.51,1.51,0,0,1,.3,0c1.64.23,2.69,2.37,2.35,4.78-.33,2.26-1.77,3.95-3.3,3.95l-.3,0c-1.64-.23-2.69-2.37-2.34-4.78.32-2.26,1.76-3.95,3.29-3.95m0-1h0c-2,0-3.89,2.07-4.28,4.81-.43,3,1,5.59,3.19,5.91a3.25,3.25,0,0,0,.44,0c2.05,0,3.89-2.07,4.29-4.81.42-3-1-5.6-3.2-5.91a3.25,3.25,0,0,0-.44,0Z"/>
      </g>
      <g>
        <path class="l" d="M239.65,78.74a2.19,2.19,0,0,1-.36,0,3.09,3.09,0,0,1-2.3-1.85,6,6,0,0,1-.48-3.49c.36-2.5,2-4.39,3.8-4.39a2.19,2.19,0,0,1,.36,0,3.12,3.12,0,0,1,2.3,1.85,6.13,6.13,0,0,1,.47,3.5C243.09,76.85,241.46,78.74,239.65,78.74Z"/>
        <path d="M240.31,69.48l.29,0c1.64.23,2.69,2.37,2.35,4.78-.32,2.26-1.76,3.95-3.3,3.95l-.29,0c-1.64-.24-2.69-2.38-2.35-4.78s1.76-4,3.3-4m0-1h0c-2.06,0-3.9,2.07-4.29,4.82a6.51,6.51,0,0,0,.52,3.78,3.64,3.64,0,0,0,2.68,2.13,3.11,3.11,0,0,0,.43,0c2,0,3.9-2.07,4.29-4.81a6.63,6.63,0,0,0-.52-3.79,3.61,3.61,0,0,0-2.68-2.12,2.09,2.09,0,0,0-.43,0Z"/>
      </g>
      <g>
        <path class="l" d="M220.68,204.74a2.22,2.22,0,0,1-.37,0c-1.91-.27-3.15-2.67-2.77-5.34.35-2.5,2-4.38,3.79-4.38a2.17,2.17,0,0,1,.36,0c1.92.27,3.16,2.67,2.78,5.35C224.11,202.85,222.48,204.74,220.68,204.74Z"/>
        <path d="M221.33,195.49a1.37,1.37,0,0,1,.29,0c1.64.23,2.7,2.37,2.35,4.78s-1.76,4-3.3,4l-.29,0c-1.64-.24-2.69-2.38-2.35-4.78s1.77-3.95,3.3-3.95m0-1h0c-2.05,0-3.9,2.06-4.29,4.81a6.59,6.59,0,0,0,.52,3.78,3.64,3.64,0,0,0,2.68,2.13,3.11,3.11,0,0,0,.43,0c2.06,0,3.9-2.07,4.29-4.81a6.54,6.54,0,0,0-.52-3.79,3.63,3.63,0,0,0-2.67-2.12,3.25,3.25,0,0,0-.44,0Z"/>
      </g>
      <g>
        <path class="l" d="M179.67,199.75a2.19,2.19,0,0,1-.36,0c-1.91-.27-3.15-2.67-2.77-5.34.35-2.5,2-4.39,3.79-4.39a2.19,2.19,0,0,1,.36,0c1.92.27,3.16,2.67,2.78,5.34C183.11,197.86,181.48,199.75,179.67,199.75Z"/>
        <path d="M180.33,190.49l.29,0c1.64.24,2.7,2.38,2.35,4.78s-1.76,4-3.3,4l-.29,0c-1.64-.24-2.69-2.38-2.35-4.78s1.77-4,3.3-4m0-1h0c-2.05,0-3.9,2.07-4.29,4.81-.43,3,1,5.6,3.2,5.92a3.11,3.11,0,0,0,.43,0c2.06,0,3.9-2.07,4.29-4.81.43-3-1-5.6-3.19-5.92l-.44,0Z"/>
      </g>
      <g>
        <path class="l" d="M205.67,171.74l-.37,0a3.11,3.11,0,0,1-2.29-1.85,6.07,6.07,0,0,1-.48-3.5c.36-2.5,2-4.38,3.79-4.38l.37,0a3.12,3.12,0,0,1,2.3,1.85,6.16,6.16,0,0,1,.47,3.5C209.1,169.86,207.47,171.74,205.67,171.74Z"/>
        <path d="M206.32,162.49l.3,0c1.64.23,2.69,2.37,2.35,4.78s-1.77,4-3.3,4a1.51,1.51,0,0,1-.3,0c-1.64-.23-2.69-2.37-2.34-4.78.32-2.26,1.76-3.95,3.29-3.95m0-1h0c-2,0-3.89,2.07-4.28,4.81-.43,3,1,5.59,3.19,5.91a3.25,3.25,0,0,0,.44,0c2.05,0,3.89-2.07,4.29-4.81.42-3-1-5.59-3.2-5.91a3.25,3.25,0,0,0-.44,0Z"/>
      </g>
      <g>
        <path class="l" d="M147.66,130.75a2.17,2.17,0,0,1-.36,0c-1.94-.28-3.16-2.63-2.78-5.35.36-2.5,2-4.38,3.8-4.38a2.19,2.19,0,0,1,.36,0c1.91.27,3.16,2.67,2.78,5.34C151.1,128.87,149.47,130.75,147.66,130.75Z"/>
        <path d="M148.32,121.5l.29,0c1.64.24,2.69,2.38,2.35,4.78s-1.76,4-3.3,4a1.42,1.42,0,0,1-.29,0c-1.64-.23-2.69-2.37-2.35-4.78s1.76-4,3.3-4m0-1h0c-2,0-3.9,2.07-4.29,4.81a6.63,6.63,0,0,0,.52,3.79,3.63,3.63,0,0,0,2.68,2.12,3.11,3.11,0,0,0,.43,0c2.06,0,3.9-2.06,4.29-4.81.43-3-1-5.59-3.2-5.91a3.11,3.11,0,0,0-.43,0Z"/>
      </g>
      <g>
        <path class="l" d="M229.66,139.74l-.36,0a3.08,3.08,0,0,1-2.3-1.85,6,6,0,0,1-.47-3.49c.35-2.5,2-4.39,3.79-4.39l.36,0a3.11,3.11,0,0,1,2.3,1.85,6.05,6.05,0,0,1,.48,3.5C233.1,137.85,231.47,139.74,229.66,139.74Z"/>
        <path d="M230.32,130.48a1.43,1.43,0,0,1,.29,0c1.64.23,2.69,2.37,2.35,4.78s-1.76,4-3.3,4l-.29,0c-1.64-.24-2.69-2.38-2.35-4.78s1.76-4,3.3-4m0-1c-2,0-3.9,2.07-4.29,4.82-.43,3,1,5.59,3.2,5.91a3.11,3.11,0,0,0,.43,0c2.06,0,3.9-2.07,4.29-4.81.43-3-1-5.6-3.2-5.91a3.13,3.13,0,0,0-.43,0Z"/>
      </g>
      <g>
        <path class="l" d="M188.66,135.75a2.19,2.19,0,0,1-.36,0c-1.91-.27-3.16-2.67-2.77-5.35.35-2.49,2-4.38,3.79-4.38a2.19,2.19,0,0,1,.36,0,3.09,3.09,0,0,1,2.3,1.85,6,6,0,0,1,.48,3.49C192.1,133.86,190.47,135.75,188.66,135.75Z"/>
        <path d="M189.32,126.49l.29,0c1.64.24,2.69,2.38,2.35,4.78s-1.76,4-3.3,4l-.29,0c-1.64-.24-2.69-2.38-2.35-4.78s1.76-4,3.3-4m0-1h0c-2,0-3.9,2.07-4.29,4.81a6.63,6.63,0,0,0,.52,3.79,3.64,3.64,0,0,0,2.68,2.13,3.11,3.11,0,0,0,.43,0c2.06,0,3.9-2.07,4.29-4.82.43-3-1-5.59-3.2-5.91a3.11,3.11,0,0,0-.43,0Z"/>
      </g>
      <g>
        <path class="l" d="M171.66,104.75a2.31,2.31,0,0,1-.37,0c-1.91-.27-3.15-2.67-2.77-5.34.36-2.5,2-4.38,3.79-4.38a2.36,2.36,0,0,1,.37,0c1.94.28,3.16,2.63,2.77,5.35C175.09,102.87,173.46,104.75,171.66,104.75Z"/>
        <path d="M172.31,95.5a1.51,1.51,0,0,1,.3,0c1.64.23,2.69,2.37,2.35,4.78s-1.77,4-3.3,4l-.3,0c-1.64-.24-2.69-2.38-2.35-4.78s1.77-4,3.3-4m0-1h0c-2.05,0-3.89,2.06-4.28,4.81-.43,3,1,5.59,3.19,5.91a3.25,3.25,0,0,0,.44,0c2.05,0,3.89-2.07,4.28-4.81.43-3-1-5.6-3.19-5.91a3.25,3.25,0,0,0-.44,0Z"/>
      </g>
      <g>
        <path class="l" d="M214.66,108.74l-.37,0c-1.91-.28-3.15-2.67-2.77-5.35.36-2.5,2-4.38,3.79-4.38l.37,0c1.94.28,3.16,2.63,2.77,5.35C218.09,106.86,216.46,108.74,214.66,108.74Z"/>
        <path d="M215.31,99.49l.3,0c1.64.23,2.69,2.37,2.34,4.78-.32,2.26-1.76,3.95-3.29,3.95a1.51,1.51,0,0,1-.3,0c-1.64-.23-2.69-2.37-2.35-4.78.33-2.26,1.77-4,3.3-4m0-1h0c-2.05,0-3.89,2.07-4.29,4.81a6.64,6.64,0,0,0,.53,3.79,3.62,3.62,0,0,0,2.67,2.12,3.25,3.25,0,0,0,.44,0c2.05,0,3.89-2.07,4.28-4.81a6.56,6.56,0,0,0-.52-3.79,3.62,3.62,0,0,0-2.67-2.12,3.25,3.25,0,0,0-.44,0Z"/>
      </g>
      <g>
        <path class="l" d="M195.65,74.75a2.19,2.19,0,0,1-.36,0c-1.91-.27-3.16-2.67-2.78-5.35.36-2.49,2-4.38,3.8-4.38a2.19,2.19,0,0,1,.36,0c1.91.27,3.16,2.67,2.77,5.34C199.09,72.86,197.46,74.75,195.65,74.75Z"/>
        <path d="M196.31,65.49l.29,0c1.64.24,2.69,2.38,2.35,4.78s-1.76,4-3.3,4l-.29,0c-1.64-.24-2.69-2.38-2.35-4.78s1.76-4,3.3-4m0-1h0c-2.06,0-3.9,2.07-4.29,4.81-.43,3,1,5.6,3.2,5.92a3.11,3.11,0,0,0,.43,0c2,0,3.9-2.07,4.29-4.82.43-3-1-5.59-3.2-5.91a3.11,3.11,0,0,0-.43,0Z"/>
      </g>
    </g>
    <path class="m" d="M201.6,10.2h0a4,4,0,0,1-1.8,3.3c-10.2,6.3-41.7,5.7-51.5,0a3.7,3.7,0,0,1-1.9-3.2V0h0c10.1,8.9,44.1,9.3,55.1,0h0l.1,10.2Z"/>
  </g>
</svg>
