<svg xmlns="http://www.w3.org/2000/svg" xmlns:xlink="http://www.w3.org/1999/xlink" viewBox="0 0 261.93 352.42"><defs><style>.cls-1{isolation:isolate;}.cls-2{opacity:0.2;fill:url(#Безымянный_градиент_66);}.cls-3,.cls-4,.cls-5,.cls-6{opacity:0.4;}.cls-3{fill:url(#Безымянный_градиент_66-2);}.cls-4{fill:url(#Безымянный_градиент_66-3);}.cls-5{fill:url(#Безымянный_градиент_66-4);}.cls-6{fill:url(#Безымянный_градиент_66-5);}.cls-7{fill:url(#Безымянный_градиент_146);}.cls-8{fill:url(#Безымянный_градиент_146-2);}.cls-9{fill:url(#Безымянный_градиент_146-3);}.cls-10{fill:url(#Безымянный_градиент_146-4);}.cls-11{fill:url(#Безымянный_градиент_146-5);}.cls-12{fill:url(#Безымянный_градиент_5);}.cls-13{mix-blend-mode:soft-light;fill:url(#Безымянный_градиент_19);}.cls-14{fill:none;stroke:#777;stroke-linecap:round;stroke-miterlimit:10;stroke-width:2px;}</style><linearGradient id="Безымянный_градиент_66" x1="-48.43" y1="384.37" x2="124.57" y2="303.87" gradientTransform="translate(187.7 653.26) rotate(180)" gradientUnits="userSpaceOnUse"><stop offset="0" stop-color="#fff" stop-opacity="0"/><stop offset="0.08" stop-color="#e7e7e7" stop-opacity="0.17"/><stop offset="0.25" stop-color="#bcbcbc" stop-opacity="0.47"/><stop offset="0.43" stop-color="#9b9a9a" stop-opacity="0.7"/><stop offset="0.61" stop-color="#838282" stop-opacity="0.87"/><stop offset="0.8" stop-color="#757474" stop-opacity="0.97"/><stop offset="1" stop-color="#706f6f"/></linearGradient><linearGradient id="Безымянный_градиент_66-2" x1="32.69" y1="451.72" x2="50.84" y2="443.27" gradientTransform="translate(267.27 779.75) rotate(169.83)" xlink:href="#Безымянный_градиент_66"/><linearGradient id="Безымянный_градиент_66-3" x1="-8.61" y1="499.8" x2="9.54" y2="491.35" gradientTransform="translate(267.27 779.75) rotate(169.83)" xlink:href="#Безымянный_градиент_66"/><linearGradient id="Безымянный_градиент_66-4" x1="78.11" y1="524.76" x2="96.25" y2="516.32" gradientTransform="translate(267.27 779.75) rotate(169.83)" xlink:href="#Безымянный_градиент_66"/><linearGradient id="Безымянный_градиент_66-5" x1="127.19" y1="478.98" x2="145.34" y2="470.53" gradientTransform="translate(267.27 779.75) rotate(169.83)" xlink:href="#Безымянный_градиент_66"/><linearGradient id="Безымянный_градиент_146" x1="206.99" y1="34.96" x2="211.87" y2="32.34" gradientTransform="translate(-43.95 180.17) rotate(9.53)" gradientUnits="userSpaceOnUse"><stop offset="0.13" stop-color="#0e0e0e"/><stop offset="0.83" stop-color="#666"/><stop offset="1" stop-color="#262823"/></linearGradient><linearGradient id="Безымянный_градиент_146-2" x1="88.48" y1="244.89" x2="93.4" y2="245.98" gradientTransform="matrix(1, 0, 0, 1, 0, 0)" xlink:href="#Безымянный_градиент_146"/><linearGradient id="Безымянный_градиент_146-3" x1="-126.88" y1="143.48" x2="-120.92" y2="144.92" gradientTransform="matrix(1.18, 0.11, -0.03, 1.02, 211.6, 141.04)" xlink:href="#Безымянный_градиент_146"/><linearGradient id="Безымянный_градиент_146-4" x1="128.29" y1="273.97" x2="135.43" y2="273.25" gradientTransform="matrix(1, 0, 0, 1, 0, 0)" xlink:href="#Безымянный_градиент_146"/><linearGradient id="Безымянный_градиент_146-5" x1="-8.35" y1="188.17" x2="196.29" y2="188.17" gradientTransform="matrix(-1, 0, 0, 1, 198.39, 0)" xlink:href="#Безымянный_градиент_146"/><linearGradient id="Безымянный_градиент_5" x1="-73.17" y1="104.7" x2="200.61" y2="104.7" gradientTransform="matrix(-1, 0, 0, 1, 198.39, 0)" gradientUnits="userSpaceOnUse"><stop offset="0.04" stop-color="#999"/><stop offset="0.97" stop-color="#f7f7f7"/><stop offset="0.99" stop-color="#e6e6e6"/></linearGradient><linearGradient id="Безымянный_градиент_19" x1="4.9" y1="22.56" x2="4.9" y2="-0.18" gradientTransform="matrix(-1, 0, 0, 1, 198.39, 0)" gradientUnits="userSpaceOnUse"><stop offset="0" stop-color="gray"/><stop offset="0.99" stop-color="#fff"/></linearGradient></defs><title>chair_front</title><g class="cls-1"><g id="Слой_2" data-name="Слой 2"><g id="Слой_1-2" data-name="Слой 1"><path class="cls-2" d="M34.1,335.47c-4.89-16.18,26.28-42.22,54.29-54.3,52.76-22.73,123-8.27,131.35,20.14,4.57,15.56-10.34,32.09-12.26,34.15-10.35,11.11-26,17.18-73.55,16.64C75.57,351.44,38.84,351.13,34.1,335.47Z"/><path class="cls-3" d="M135.71,351.51c-.8-1.58,1.93-4.85,4.6-6.61,5-3.32,12.55-3.13,13.94-.35.76,1.52-.47,3.51-.63,3.75-.86,1.34-2.36,2.25-7.29,3.08C140.29,352.4,136.49,353,135.71,351.51Z"/><path class="cls-4" d="M167.88,296.9c-.8-1.58,1.93-4.85,4.6-6.61,5-3.32,12.55-3.13,13.94-.35.76,1.52-.47,3.51-.63,3.75-.86,1.34-2.36,2.25-7.29,3.08C172.46,297.78,168.66,298.43,167.88,296.9Z"/><path class="cls-5" d="M78.12,287.63c-.8-1.58,1.93-4.85,4.6-6.61,5-3.32,12.55-3.13,13.94-.35.76,1.52-.47,3.51-.63,3.75-.86,1.34-2.36,2.25-7.29,3.08C82.7,288.52,78.9,289.16,78.12,287.63Z"/><path class="cls-6" d="M37.89,341.37c-.8-1.58,1.93-4.85,4.6-6.61,5-3.32,12.55-3.13,13.94-.35.76,1.52-.47,3.51-.63,3.75-.86,1.34-2.36,2.25-7.29,3.08C42.46,342.25,38.67,342.9,37.89,341.37Z"/><path class="cls-7" d="M174.46,295.86l-2.52.84a1.1,1.1,0,0,1-1.38-.67l-33.63-93.67a1.09,1.09,0,0,1,.66-1.4l4.47-1.6a1.09,1.09,0,0,1,1.4.68l31.68,94.43A1.09,1.09,0,0,1,174.46,295.86Z"/><path class="cls-8" d="M82.54,287.8l-2.32-.52a.86.86,0,0,1-.66-1l16.5-82.92a.86.86,0,0,1,1-.68l4.08.81a.87.87,0,0,1,.67,1L83.58,287.15A.86.86,0,0,1,82.54,287.8Z"/><path class="cls-9" d="M42.07,342.33l-2.48-1a1.2,1.2,0,0,1-.81-1.39L77.31,204.43a1.23,1.23,0,0,1,1.57-.72l5.45,1.55a1.23,1.23,0,0,1,1,1.46l-41.49,135A1.27,1.27,0,0,1,42.07,342.33Z"/><path class="cls-10" d="M142.69,351.69l-3.41.44a1.25,1.25,0,0,1-1.4-1.08L118.15,197.18a1.25,1.25,0,0,1,1.08-1.4l6-.77a1.25,1.25,0,0,1,1.4,1.1l17.18,154.19a1.28,1.28,0,0,1-.26.91A1.34,1.34,0,0,1,142.69,351.69Z"/><path class="cls-11" d="M113.48,214a128.49,128.49,0,0,0,28.63-1.75,129.76,129.76,0,0,0,35.25-11.52c8.26-4.1,16-11,22.24-17.76a97.78,97.78,0,0,0,7.14-8.67l-4.24,1.87A149.3,149.3,0,0,1,173,194.3a151.67,151.67,0,0,1-32.11,10.3C84.71,215.4,32.29,182.47,20.13,174.83a209.52,209.52,0,0,1-18-12.7c.34.4,1,1.18,1.86,2.14,1.4,1.56,6.67,7.28,18.35,16,1.51,1.13,2.26,1.69,3.4,2.49a133,133,0,0,0,17,9.82,226.39,226.39,0,0,0,29.72,13.14A144.11,144.11,0,0,0,113.48,214Z"/><path class="cls-12" d="M12.74,149.12a7.44,7.44,0,0,0-3.53-1.21,8.89,8.89,0,0,0-7.39,2.63c-3.07,3.54-2.4,10.56,3.1,14.73,59.68,44.31,130.75,57.6,177.84,29.11,45.4-27.46,60.92-89,70.27-126.1A306.28,306.28,0,0,0,261.92,9a8,8,0,0,0-8-8.42L135.34,0a8,8,0,0,0-8,7c-3.61,26.22-9.83,42-15.51,69.2-6.35,30.43-28.29,58.53-52.54,68.7C40.72,152.64,16.81,151.58,12.74,149.12Z"/><path class="cls-13" d="M127.35,7a8,8,0,0,1,8-7L253.93.58a8,8,0,0,1,8,8.42c-.2,4-.5,8.24-.92,12.75H125C126,16.49,126.72,11.54,127.35,7Z"/><path class="cls-14" d="M88,142.7a180,180,0,0,1,99,30.66"/></g></g></g></svg>