<svg xmlns="http://www.w3.org/2000/svg" xmlns:xlink="http://www.w3.org/1999/xlink" viewBox="0 0 440.38 340.6"><defs><style>.cls-1{fill:url(#linear-gradient);}.cls-2{fill:url(#linear-gradient-2);}.cls-3{fill:url(#linear-gradient-3);}.cls-4{fill:url(#linear-gradient-4);}.cls-5{fill:url(#linear-gradient-5);}.cls-6{fill:url(#linear-gradient-6);}.cls-7{fill:#fff;stroke:#231f20;stroke-miterlimit:10;}.cls-8{fill:url(#linear-gradient-7);}.cls-9{fill:url(#linear-gradient-8);}.cls-10{fill:url(#linear-gradient-9);}.cls-11{fill:#c1272d;}.cls-12{fill:#f26167;}.cls-13{fill:url(#linear-gradient-10);}.cls-14{fill:url(#linear-gradient-11);}.cls-15{fill:url(#linear-gradient-12);}.cls-16{fill:url(#linear-gradient-13);}</style><linearGradient id="linear-gradient" x1="62.54" y1="273.56" x2="34.37" y2="346.51" gradientUnits="userSpaceOnUse"><stop offset="0.01" stop-color="#3a3734"/><stop offset="0.4" stop-color="#534c4b"/><stop offset="0.67" stop-color="#605757"/></linearGradient><linearGradient id="linear-gradient-2" x1="-6961.52" y1="273.56" x2="-6989.69" y2="346.51" gradientTransform="matrix(-1, 0, 0, 1, -6578.89, 0)" xlink:href="#linear-gradient"/><linearGradient id="linear-gradient-3" x1="220.54" y1="201.21" x2="220.54" y2="-123.76" gradientUnits="userSpaceOnUse"><stop offset="0" stop-color="#cc2017"/><stop offset="0.32" stop-color="#d92e1f"/><stop offset="0.64" stop-color="#eb4029"/></linearGradient><linearGradient id="linear-gradient-4" x1="220.19" y1="189.15" x2="220.19" y2="222.07" gradientUnits="userSpaceOnUse"><stop offset="0.16" stop-color="#eb4029"/><stop offset="0.87" stop-color="#f44b2c"/></linearGradient><linearGradient id="linear-gradient-5" x1="218.31" y1="218.67" x2="218.31" y2="295.5" gradientUnits="userSpaceOnUse"><stop offset="0" stop-color="#fd5b45"/><stop offset="0.87" stop-color="#f44b2c"/></linearGradient><linearGradient id="linear-gradient-6" x1="88.13" y1="129.34" x2="28.43" y2="138.28" gradientUnits="userSpaceOnUse"><stop offset="0.25" stop-color="#e03224"/><stop offset="1" stop-color="#f44b2c"/></linearGradient><linearGradient id="linear-gradient-7" x1="23.85" y1="51.04" x2="23.85" y2="291.08" gradientUnits="userSpaceOnUse"><stop offset="0" stop-color="#fd5b45"/><stop offset="0.91" stop-color="#eb4029"/></linearGradient><linearGradient id="linear-gradient-8" x1="-6851.09" y1="128.06" x2="-6910.39" y2="136.95" gradientTransform="matrix(-1, 0, 0, 1, -6498.68, 0)" xlink:href="#linear-gradient-6"/><linearGradient id="linear-gradient-9" x1="-6915.21" y1="51.04" x2="-6915.21" y2="291.08" gradientTransform="matrix(1, 0, 0, -1, 7331.73, 345.25)" xlink:href="#linear-gradient-7"/><linearGradient id="linear-gradient-10" x1="220.08" y1="170.42" x2="380.75" y2="170.42" xlink:href="#linear-gradient-5"/><linearGradient id="linear-gradient-11" x1="302.63" y1="221.4" x2="302.63" y2="173.69" xlink:href="#linear-gradient-3"/><linearGradient id="linear-gradient-12" x1="625.27" y1="170.42" x2="785.94" y2="170.42" gradientTransform="matrix(-1, 0, 0, 1, 846.5, 0)" xlink:href="#linear-gradient-5"/><linearGradient id="linear-gradient-13" x1="707.82" y1="221.4" x2="707.82" y2="173.69" gradientTransform="matrix(-1, 0, 0, 1, 846.5, 0)" xlink:href="#linear-gradient-3"/></defs><title>kreslo</title><g id="Слой_2" data-name="Слой 2"><g id="Слой_1-2" data-name="Слой 1"><polygon class="cls-1" points="47.64 283.77 34.71 340.6 41.17 340.6 70.28 281.86 47.64 283.77"/><polygon class="cls-2" points="397.52 283.77 410.46 340.6 403.99 340.6 374.88 281.86 397.52 283.77"/><path class="cls-3" d="M95.28,0H345.79a16,16,0,0,1,16,16V204.24a0,0,0,0,1,0,0H79.24a0,0,0,0,1,0,0V16A16,16,0,0,1,95.28,0Z"/><polygon class="cls-4" points="360.33 193.38 220.19 193.38 212.31 193.38 80.05 193.38 47.71 211.91 47.71 221.66 212.31 221.66 220.19 221.66 392.67 221.66 392.67 211.91 360.33 193.38"/><rect class="cls-5" x="43.66" y="219.9" width="349.3" height="73.01"/><polygon class="cls-6" points="80.05 195.98 80.05 52.34 43.66 52.34 47.71 219.06 80.05 195.98"/><path class="cls-7" d="M47.71,52.34"/><path class="cls-8" d="M22.24,52.34H47.71a0,0,0,0,1,0,0V292.91a0,0,0,0,1,0,0H14.31A14.31,14.31,0,0,1,0,278.61v-204A22.24,22.24,0,0,1,22.24,52.34Z"/><polygon class="cls-9" points="360.33 193.38 360.33 52.34 396.71 52.34 392.67 216.46 360.33 193.38"/><path class="cls-7" d="M392.67,52.34"/><path class="cls-10" d="M406.68,52.34h33.69a0,0,0,0,1,0,0V292.91a0,0,0,0,1,0,0H415a22.29,22.29,0,0,1-22.29-22.29V66.35A14,14,0,0,1,406.68,52.34Z" transform="translate(833.05 345.25) rotate(180)"/><ellipse class="cls-11" cx="218.65" cy="46.87" rx="4.1" ry="4.92"/><path class="cls-12" d="M218.25,49a7.06,7.06,0,0,1-3.55-.91,4.3,4.3,0,0,0,4,3.68c2.08,0,3.78-1.88,4-4.3A6.91,6.91,0,0,1,218.25,49Z"/><ellipse class="cls-11" cx="142.97" cy="46.87" rx="4.1" ry="4.92"/><path class="cls-12" d="M142.57,49a7.06,7.06,0,0,1-3.55-.91,4.3,4.3,0,0,0,4,3.68c2.08,0,3.78-1.88,4-4.3A6.91,6.91,0,0,1,142.57,49Z"/><ellipse class="cls-11" cx="292.89" cy="46.87" rx="4.1" ry="4.92"/><path class="cls-12" d="M292.49,49a7.06,7.06,0,0,1-3.55-.91,4.3,4.3,0,0,0,4,3.68c2.08,0,3.78-1.88,4-4.3A6.91,6.91,0,0,1,292.49,49Z"/><ellipse class="cls-11" cx="218.65" cy="107.36" rx="4.1" ry="4.92"/><path class="cls-12" d="M218.25,109.51a7.06,7.06,0,0,1-3.55-.91,4.3,4.3,0,0,0,4,3.68c2.08,0,3.78-1.88,4-4.3A6.91,6.91,0,0,1,218.25,109.51Z"/><ellipse class="cls-11" cx="142.97" cy="107.36" rx="4.1" ry="4.92"/><path class="cls-12" d="M142.57,109.51a7.06,7.06,0,0,1-3.55-.91,4.3,4.3,0,0,0,4,3.68c2.08,0,3.78-1.88,4-4.3A6.91,6.91,0,0,1,142.57,109.51Z"/><ellipse class="cls-11" cx="292.89" cy="107.36" rx="4.1" ry="4.92"/><path class="cls-12" d="M292.49,109.51a7.06,7.06,0,0,1-3.55-.91,4.31,4.31,0,0,0,4,3.68c2.08,0,3.78-1.88,4-4.3A6.91,6.91,0,0,1,292.49,109.51Z"/><path class="cls-13" d="M380.75,168.38S364.61,147,350.87,147s-64.59.31-71.88-1-47.1-1.35-53.54,8.57-5.28,31.09-5.28,31.09S373.75,217,380.75,168.38Z"/><path class="cls-14" d="M380.75,168.38c3.84,4.07,7.57,41.56,0,47.87s-150,0-150,0-10.65,3.61-10.65-27.05,7.85-17.45,59.15-17.45S375.15,162.43,380.75,168.38Z"/><path class="cls-15" d="M60.55,168.38S76.7,147,90.44,147s64.59.31,71.88-1,47.1-1.35,53.54,8.57,5.28,31.09,5.28,31.09S67.56,217,60.55,168.38Z"/><path class="cls-16" d="M60.55,168.38c-3.84,4.07-7.57,41.56,0,47.87s150,0,150,0,10.65,3.61,10.65-27.05-7.85-17.45-59.15-17.45S66.16,162.43,60.55,168.38Z"/></g></g></svg>