<svg width="24" height="24" viewBox="0 0 24 24"  fill="none" xmlns="http://www.w3.org/2000/svg">
    <path d="M7.88501 12.7767C7.75894 12.2978 7.63287 11.7055 7.36813 10.8232C6.86742 9.17432 5.99448 7.6441 5.56537 5.97102C5.28328 4.77246 6.30625 3.55838 7.58244 4.00493C9.53548 4.69094 10.1444 8.05047 10.419 9.75198L10.5198 10.3191C10.385 7.8638 10.2093 6.26209 10.5198 4.24439C10.8262 2.32988 13.7571 2.37345 13.9993 4.2696C14.1245 5.64659 14.1253 7.02077 14.1253 8.40344C14.1253 8.69331 14.1253 10.4452 14.1506 10.2561C14.2262 9.4243 14.264 6.23569 14.5792 5.29045C15.2673 3.17752 17.8197 3.94705 17.9452 5.8702C18.0495 7.26081 17.9044 8.71218 17.8695 10.1049C17.8695 10.1553 17.8569 10.483 17.8947 10.3317C18.2751 9.14887 17.9452 5.8702 20.006 6.27929C20.6859 6.41427 21.9473 7.33231 21.0273 10.4443C19.729 14.836 18.047 16.7348 18.047 21.3722H8.77487C8.77487 18.0607 4.39651 15.5305 3.14533 13.0288C2.86798 12.4995 2.73043 11.8315 2.90692 11.3526C3.19688 10.609 3.73739 10.2183 4.60726 10.3065C6.02623 10.4429 6.5996 11.6526 7.88501 12.7767Z" fill="#3AB8BC"/>
</svg>

