<svg width="21" height="20" viewBox="0 0 21 20" fill="none" xmlns="http://www.w3.org/2000/svg">
<path fill-rule="evenodd" clip-rule="evenodd" d="M17.667 0C19.3238 0 20.667 1.34315 20.667 3V17C20.667 18.6569 19.3238 20 17.667 20H3.66699C2.01014 20 0.666992 18.6569 0.666992 17V3C0.666992 1.34315 2.01014 0 3.66699 0H17.667ZM18.667 10.302L14.499 16.5547C14.1913 17.0163 13.5733 17.1338 13.121 16.838L13.0268 16.7682L7.8545 12.458L3.89499 18H17.667C18.2193 18 18.667 17.5523 18.667 17V10.302ZM17.667 2H3.66699C3.11471 2 2.66699 2.44772 2.66699 3V16.278L6.85326 10.4188C7.16716 9.9793 7.76648 9.87371 8.20823 10.159L8.30718 10.2318L13.4522 14.5193L18.667 6.696V3C18.667 2.44772 18.2193 2 17.667 2ZM6.66699 4C7.77156 4 8.66699 4.89543 8.66699 6C8.66699 7.10457 7.77156 8 6.66699 8C5.56242 8 4.66699 7.10457 4.66699 6C4.66699 4.89543 5.56242 4 6.66699 4Z" fill="black"/>
</svg>
