<svg width="24" height="24" viewBox="0 0 24 24" fill="none" xmlns="http://www.w3.org/2000/svg">
<path fill-rule="evenodd" clip-rule="evenodd" d="M11.5081 4.39997C11.2633 5.99319 11.3413 7.28641 11.4546 9.16596C11.4754 9.51054 11.4974 9.87483 11.5188 10.2643C11.5478 10.7923 11.1607 11.2516 10.6354 11.3125C10.1102 11.3734 9.62829 11.0148 9.53571 10.4942L9.43486 9.92705L9.43218 9.91124C9.29511 9.06165 9.08666 7.88587 8.69531 6.8515C8.28366 5.7635 7.78269 5.13535 7.25213 4.94863C7.00863 4.8636 6.83979 4.92926 6.71286 5.06205C6.56395 5.21782 6.4788 5.47266 6.53739 5.73394C6.7318 6.48768 7.02912 7.22412 7.36259 8.01955C7.39241 8.09066 7.42256 8.16236 7.45294 8.23461C7.75554 8.95411 8.08131 9.72872 8.32544 10.5327L8.3264 10.5358L8.32639 10.5358C8.52119 11.185 8.65014 11.7086 8.74909 12.1104C8.78736 12.2658 8.82115 12.403 8.85252 12.5222C8.96437 12.9471 8.78574 13.3953 8.41224 13.6267C8.03874 13.8582 7.55791 13.8187 7.22715 13.5295C6.86785 13.2153 6.56404 12.9 6.30126 12.6199C6.2436 12.5584 6.18891 12.4997 6.1365 12.4435C5.93993 12.2327 5.77531 12.0562 5.60582 11.8942C5.20438 11.5106 4.90652 11.3398 4.51202 11.3019L4.50681 11.3014C4.24445 11.2748 4.12994 11.3273 4.07983 11.3594C4.0249 11.3947 3.93323 11.4797 3.84382 11.7038C3.80964 11.8093 3.81873 12.1585 4.03156 12.5647L4.04016 12.5815C4.28783 13.0767 4.71662 13.6195 5.29093 14.247C5.57338 14.5556 5.87656 14.8696 6.19586 15.1999L6.21081 15.2154C6.52231 15.5377 6.84815 15.8747 7.16554 16.2196C8.20431 17.3482 9.32832 18.7333 9.67065 20.3722H17.0735C17.1778 18.418 17.5849 16.9215 18.1109 15.4745C18.3269 14.8803 18.5511 14.3208 18.7785 13.7532C19.2081 12.6808 19.6493 11.5796 20.0688 10.1608C20.491 8.73242 20.3562 7.99208 20.2048 7.65507C20.0618 7.33652 19.858 7.26933 19.8117 7.26014C19.6015 7.21841 19.577 7.2669 19.573 7.27495C19.5727 7.27548 19.5725 7.27584 19.5724 7.27598C19.5018 7.34747 19.3911 7.53834 19.2924 7.94463C19.1981 8.33252 19.1453 8.77697 19.0889 9.25835C19.0869 9.2757 19.0848 9.29324 19.0828 9.31095C19.0353 9.71761 18.9773 10.2136 18.8583 10.6023C18.8444 10.6541 18.8084 10.7701 18.739 10.8849C18.7109 10.9314 18.6447 11.0338 18.5281 11.1327C18.409 11.2338 18.154 11.3979 17.7952 11.3678C17.4377 11.3378 17.2144 11.1347 17.1148 11.0175C17.0168 10.9021 16.9682 10.7916 16.9481 10.7417C16.906 10.6375 16.8909 10.5488 16.8864 10.5218C16.8797 10.482 16.8763 10.4481 16.8744 10.4266C16.8706 10.3831 16.8693 10.3432 16.8687 10.3166C16.8671 10.2485 16.87 10.0542 16.87 10.1049C16.87 10.0965 16.8701 10.0882 16.8703 10.0799C16.8822 9.60398 16.9045 9.14718 16.9261 8.70284C16.9726 7.74784 17.0164 6.85042 16.9484 5.945L16.9477 5.93529L16.9477 5.93529C16.9146 5.42685 16.5713 5.11472 16.2514 5.04177C16.0996 5.00718 15.9742 5.02987 15.8778 5.08546C15.7867 5.13798 15.6387 5.26792 15.5305 5.60011L15.5283 5.60676L15.5283 5.60675C15.4864 5.73252 15.4331 6.01481 15.3843 6.45772C15.3381 6.87692 15.3026 7.36998 15.2739 7.87291C15.25 8.29046 15.2302 8.73265 15.2123 9.13431C15.1891 9.65263 15.169 10.1034 15.1469 10.3467C15.1456 10.3606 15.1441 10.3744 15.1422 10.3883L15.1421 10.3892C15.1409 10.3993 15.1302 10.4861 15.0975 10.5841C15.0873 10.6149 15.0653 10.6767 15.0257 10.7491C14.9985 10.7989 14.8988 10.9776 14.6842 11.1141C14.5615 11.1921 14.3892 11.2633 14.1782 11.2698C13.965 11.2764 13.7824 11.2147 13.6456 11.1354C13.408 10.9977 13.2993 10.8041 13.2705 10.7517C13.2015 10.6264 13.1761 10.5134 13.1713 10.4921C13.1711 10.4912 13.171 10.4905 13.1708 10.49C13.1619 10.4509 13.157 10.4189 13.1546 10.4023C13.1497 10.3676 13.1471 10.3378 13.1458 10.3218C13.141 10.2607 13.1385 10.1809 13.1367 10.1121C13.133 9.96018 13.1305 9.7421 13.129 9.51635C13.1258 9.06226 13.1258 8.5491 13.1258 8.40382V8.40343C13.1258 7.0215 13.1243 5.69919 13.0058 4.38185C12.958 4.05829 12.7024 3.83253 12.2734 3.82793C11.8428 3.82331 11.5656 4.04774 11.5081 4.39997ZM14.7932 3.40453C14.8213 3.38678 14.8498 3.36957 14.8786 3.35293C15.4583 3.01864 16.1078 2.95773 16.6959 3.0918C17.7372 3.32921 18.6464 4.1874 18.8878 5.38445C19.281 5.23427 19.7259 5.20407 20.2011 5.29842C20.8348 5.4242 21.6017 5.88353 22.0293 6.83574C22.4486 7.76949 22.4845 9.04416 21.9867 10.7278C21.5436 12.2268 21.0363 13.4966 20.5868 14.6216C20.3701 15.1641 20.1668 15.673 19.9906 16.1577C19.4372 17.6801 19.0475 19.1969 19.0475 21.3722C19.0475 21.9245 18.5998 22.3722 18.0475 22.3722H8.77532C8.22304 22.3722 7.77532 21.9245 7.77532 21.3722C7.77532 20.1428 6.95214 18.941 5.69395 17.574C5.39324 17.2473 5.08186 16.9251 4.76512 16.5974L4.75782 16.5899C4.44184 16.263 4.11952 15.9294 3.81555 15.5973C3.21912 14.9456 2.63344 14.2367 2.25538 13.4841C1.9195 12.8387 1.65383 11.8622 1.96906 11.0068L1.9757 10.9893C2.17475 10.4788 2.49602 9.99913 3.00033 9.67579C3.5097 9.34919 4.09941 9.25028 4.70601 9.31135C5.1508 9.35443 5.53408 9.47364 5.87135 9.63869C5.78529 9.42883 5.69586 9.21599 5.60436 8.99821C5.5758 8.93025 5.54704 8.8618 5.51812 8.79281C5.18434 7.99663 4.83195 7.13482 4.59718 6.21946L4.59242 6.20012C4.37248 5.26561 4.65756 4.31774 5.26715 3.68005C5.90014 3.01789 6.88074 2.69978 7.91317 3.06103L7.9143 3.06143C8.57502 3.29351 9.09709 3.71874 9.51181 4.22671C9.51828 4.18208 9.52498 4.13727 9.5319 4.09228L9.53282 4.08634L9.53283 4.08635C9.78264 2.52547 11.1238 1.81548 12.2948 1.82804C13.2602 1.8384 14.3366 2.34457 14.7932 3.40453Z" fill="#006666"/>
</svg>
