<svg width="24" height="24" viewBox="0 0 24 24" fill="none" xmlns="http://www.w3.org/2000/svg">
<path fill-rule="evenodd" clip-rule="evenodd" d="M8.2929 5.29116L11.293 2.29116L11.4049 2.19458L11.5158 2.12314L11.629 2.06937L11.7342 2.03399L11.8253 2.01356L11.9411 2L12.0592 2.00001L12.1748 2.01354L12.3129 2.04814L12.3668 2.06765L12.454 2.10693L12.5208 2.14433L12.6018 2.19939L12.6656 2.25181L12.7072 2.29116L15.7073 5.29116L15.7905 5.38537C16.0701 5.74497 16.0701 6.25157 15.7905 6.61117L15.7073 6.70537L15.6131 6.78856C15.2535 7.06817 14.7469 7.06817 14.3873 6.78856L14.2931 6.70537L13 5.41327L13.0001 14.9983C13.0001 15.5111 12.6141 15.9338 12.1168 15.9915L12.0001 15.9983L11.8835 15.9915C11.4244 15.9382 11.0601 15.574 11.0068 15.1149L11.0001 14.9983L11 5.41327L9.70715 6.70537L9.61294 6.78856C9.22064 7.09359 8.65339 7.06586 8.2929 6.70537C7.93241 6.34489 7.90468 5.77766 8.20971 5.38537L8.2929 5.29116Z" fill="#006666"/>
<path d="M8 11.5L4.1991 14.1606C3.62248 14.5643 3.63221 15.4215 4.21787 15.8119L11.4453 20.6302C11.7812 20.8541 12.2188 20.8541 12.5547 20.6302L19.7821 15.8119C20.3678 15.4215 20.3775 14.5643 19.8009 14.1606L16 11.5" stroke="#006666" stroke-width="2" stroke-linecap="round"/>
</svg>
