<svg width="24" height="24" viewBox="0 0 24 24" fill="none" xmlns="http://www.w3.org/2000/svg">
<g clip-path="url(#clip0_312_5152)">
<line x1="22" y1="12" x2="6" y2="12" stroke="#006666" stroke-width="2" stroke-linecap="round" stroke-dasharray="4 4"/>
<rect x="23" y="1" width="8" height="10" rx="1" transform="rotate(90 23 1)" fill="#006666"/>
<circle cx="18" cy="3" r="1" fill="white"/>
<rect x="23" y="15" width="8" height="10" rx="1" transform="rotate(90 23 15)" fill="#006666"/>
<circle cx="18" cy="21" r="1" fill="white"/>
<path fill-rule="evenodd" clip-rule="evenodd" d="M3.07016 4.82843C3.07016 5.33823 3.45165 5.75893 3.94472 5.82064L4.07016 5.82843L4.51837 5.82699C4.36439 5.95931 4.21489 6.09791 4.07016 6.24264C0.945967 9.36684 0.945967 14.4322 4.07016 17.5563C4.46069 17.9469 5.09385 17.9469 5.48438 17.5563C5.8749 17.1658 5.8749 16.5327 5.48438 16.1421C3.14123 13.799 3.14123 10 5.48438 7.65685C5.61665 7.52458 5.75407 7.39922 5.89627 7.28095L5.89859 7.65685C5.89859 8.20914 6.3463 8.65685 6.89859 8.65685C7.40839 8.65685 7.82909 8.27537 7.8908 7.78229L7.89859 7.65685L7.89859 4.82843C7.89859 4.31863 7.5171 3.89793 7.02403 3.83622L6.89859 3.82843L4.07016 3.82843C3.51788 3.82843 3.07016 4.27614 3.07016 4.82843Z" fill="#006666"/>
<path fill-rule="evenodd" clip-rule="evenodd" d="M5.47243 6.24509C5.84112 6.60155 5.87666 7.17288 5.5725 7.57058L5.49628 7.6591L5.34063 7.81989C3.13705 10.1776 3.19571 13.8677 5.48445 16.1564C5.61665 16.2886 5.754 16.4139 5.89611 16.5321L5.89866 16.1564C5.89866 15.6041 6.34638 15.1564 6.89866 15.1564C7.45095 15.1564 7.89866 15.6041 7.89866 16.1564L7.89866 18.9848C7.89866 19.5371 7.45095 19.9848 6.89867 19.9848L4.07024 19.9848C3.51795 19.9848 3.07024 19.5371 3.07024 18.9848C3.07024 18.4326 3.51795 17.9848 4.07024 17.9848L4.51868 17.9865C4.36462 17.8541 4.21504 17.7154 4.07024 17.5706C1.07826 14.5786 0.944418 9.79125 3.72103 6.62969L3.89112 6.44198L4.05841 6.26894C4.4423 5.87189 5.07537 5.86121 5.47243 6.24509Z" fill="#006666"/>
</g>
<defs>
<clipPath id="clip0_312_5152">
<rect width="24" height="24" fill="white"/>
</clipPath>
</defs>
</svg>
