<svg width="24" height="24" viewBox="0 0 24 24" fill="none" xmlns="http://www.w3.org/2000/svg">
<g clip-path="url(#clip0_312_5142)">
<line x1="12" y1="6" x2="12" y2="22" stroke="#006666" stroke-width="2" stroke-linecap="round" stroke-dasharray="4 4"/>
<rect x="1" y="11" width="8" height="10" rx="1" fill="#006666"/>
<rect x="15" y="11" width="8" height="10" rx="1" fill="#006666"/>
<path fill-rule="evenodd" clip-rule="evenodd" d="M4.82843 3.07114C5.33823 3.07114 5.75893 3.45262 5.82064 3.9457L5.82843 4.07114L5.82699 4.51934C5.95931 4.36537 6.09791 4.21587 6.24264 4.07114C9.36683 0.946943 14.4322 0.946943 17.5563 4.07114C17.9469 4.46166 17.9469 5.09483 17.5563 5.48535C17.1658 5.87588 16.5327 5.87588 16.1421 5.48535C13.799 3.14221 10 3.14221 7.65685 5.48535C7.52458 5.61763 7.39922 5.75505 7.28095 5.89724L7.65685 5.89956C8.20914 5.89957 8.65685 6.34728 8.65685 6.89956C8.65685 7.40937 8.27537 7.83007 7.78229 7.89177L7.65685 7.89956L4.82843 7.89957C4.31863 7.89957 3.89793 7.51808 3.83622 7.025L3.82843 6.89957L3.82843 4.07114C3.82843 3.51885 4.27614 3.07114 4.82843 3.07114Z" fill="#006666"/>
<path fill-rule="evenodd" clip-rule="evenodd" d="M6.24607 5.4734C6.60253 5.8421 7.17386 5.87764 7.57156 5.57348L7.66008 5.49725L7.82086 5.3416C10.1785 3.13803 13.8686 3.19669 16.1574 5.48543C16.2896 5.61763 16.4149 5.75497 16.5331 5.89708L16.1574 5.89964C15.6051 5.89964 15.1574 6.34736 15.1574 6.89964C15.1574 7.45193 15.6051 7.89964 16.1574 7.89964H18.9858C19.5381 7.89964 19.9858 7.45192 19.9858 6.89964V4.07121C19.9858 3.51893 19.5381 3.07121 18.9858 3.07121C18.4335 3.07121 17.9858 3.51893 17.9858 4.07121L17.9875 4.51966C17.8551 4.3656 17.7164 4.21602 17.5716 4.07121C14.5796 1.07924 9.79222 0.945394 6.63067 3.722L6.44295 3.89209L6.26992 4.05939C5.87286 4.44327 5.86218 5.07635 6.24607 5.4734Z" fill="#006666"/>
<circle cx="17" cy="16" r="1" fill="white"/>
<circle cx="7" cy="16" r="1" fill="white"/>
</g>
<defs>
<clipPath id="clip0_312_5142">
<rect width="24" height="24" fill="#006666"/>
</clipPath>
</defs>
</svg>
