<svg width="21" height="20" viewBox="0 0 21 20" fill="none" xmlns="http://www.w3.org/2000/svg">
<path fill-rule="evenodd" clip-rule="evenodd" d="M10.3321 17.7983L18.7774 12.1681C19.237 11.8617 19.8578 11.9859 20.1642 12.4454C20.4487 12.8721 20.3619 13.4379 19.9801 13.7619L19.8868 13.8322L10.8868 19.8322C10.5883 20.0312 10.2093 20.0533 9.89289 19.8985L9.77744 19.8322L0.777437 13.8322C0.317909 13.5258 0.193735 12.9049 0.500087 12.4454C0.784557 12.0187 1.34022 11.8812 1.78607 12.109L1.88684 12.1681L10.3321 17.7983L18.7774 12.1681L10.3321 17.7983ZM10.8868 0.16795L19.8868 6.16795C20.4806 6.56377 20.4806 7.43623 19.8868 7.83205L10.8868 13.8321C10.5509 14.056 10.1133 14.056 9.77744 13.8321L0.777437 7.83205C0.183704 7.43623 0.183704 6.56377 0.777437 6.16795L9.77744 0.16795C10.1133 -0.0559832 10.5509 -0.0559832 10.8868 0.16795ZM10.3321 2.20185L3.13491 7L10.3321 11.7981L17.5294 7L10.3321 2.20185Z" fill="white"/>
</svg>
